{
.appVersion = "3151";
.formatVersion = 3;
axes = (
{
name = Weight;
tag = wght;
},
{
hidden = 1;
name = Italic;
tag = ital;
}
);
classes = (
{
automatic = 1;

glyphs = (
{
color = 6;
glyphname = A;
kernLeft = A;
kernRight = A;
lastChange = "2023-07-01 17:22:12 +0000";
layers = (
{
anchors = (
{
name = bottom;
pos = (305,0);
},
{
name = ogonek;
pos = (555,10);
},
{
name = top;
pos = (305,733);
}
);
layerId = m01;
shapes = (
{
closed = 1;
nodes = (
(70,0,l),
(128,173,l),
(482,173,l),
(540,0,l),
(577,0,l),
(323,733,l),
(287,733,l),
(32,0,l)
);
},
{
closed = 1;
nodes = (
(286,633,l),
(310,706,l),
(300,706,l),
(322,633,l),
(468,207,l),
(140,207,l)
);
}
);
userData = {
com.hugojourdan.ColorFlow = {
"0" = 0;
"1" = 0;
"10" = 0;
"11" = 0;
"2" = 0;
"3" = 0;
"4" = 0;
"5" = 0;
"6" = 0;
"7" = 0;
"8" = 0;
"9" = 0;
};
};
width = 610;
},
{
anchors = (
{
name = bottom;
pos = (335,0);
},
{
name = ogonek;
pos = (603,10);
},
{
name = top;
pos = (335,733);
}
);
layerId = m002;
shapes = (
{
closed = 1;
nodes = (
(114,0,l),
(169,164,l),
(501,164,l),
(556,0,l),
(642,0,l),
(387,733,l),
(283,733,l),
(28,0,l)
);
},
{
closed = 1;
nodes = (
(322,612,l),
(349,694,l),
(321,694,l),
(348,612,l),
(474,244,l),
(196,244,l)
);
}
);
userData = {
com.hugojourdan.ColorFlow = {
"0" = 0;
"1" = 0;
"10" = 0;
"11" = 0;
"2" = 0;
"3" = 0;
"4" = 0;
"5" = 0;
"6" = 0;
"7" = 0;
"8" = 0;
"9" = 0;
};
};
width = 670;
},
{
anchors = (
{
name = bottom;
pos = (375,0);
},
{
name = ogonek;
pos = (643,10);
},
{
name = top;
pos = (375,733);
}
);
layerId = m003;
shapes = (
{
closed = 1;
nodes = (
(206,0,l),
(243,114,l),
(507,114,l),
(544,0,l),
(722,0,l),
(475,733,l),
(275,733,l),
(28,0,l)
);
},
{
closed = 1;
nodes = (
(363,482,l),
(387,577,l),
(363,577,l),
(387,482,l),
(467,244,l),
(283,244,l)
);
}
);
userData = {
com.hugojourdan.ColorFlow = {
"0" = 0;
"1" = 0;
"10" = 0;
"11" = 0;
"2" = 0;
"3" = 0;
"4" = 0;
"5" = 0;
"6" = 0;
"7" = 0;
"8" = 0;
"9" = 0;
};
};
width = 750;
}
);
unicode = 65;
},
{
color = 6;
glyphname = AE;
kernLeft = A;
kernRight = E;
lastChange = "2023-06-30 16:12:48 +0000";
layers = (
{
layerId = m01;
shapes = (
{
closed = 1;
nodes = (
(421,642,l),
(421,207,l),
(184,207,l)
);
},
{
closed = 1;
nodes = (
(73,0,l),
(168,173,l),
(421,173,l),
(421,0,l),
(791,0,l),
(791,39,l),
(458,39,l),
(458,378,l),
(725,378,l),
(725,415,l),
(458,415,l),
(458,695,l),
(791,695,l),
(791,733,l),
(429,733,l),
(35,0,l)
);
}
);
userData = {
com.hugojourdan.ColorFlow = {
"0" = 0;
"1" = 0;
"10" = 0;
"11" = 0;
"2" = 0;
"3" = 0;
"4" = 0;
"5" = 0;
"6" = 0;
"7" = 0;
"8" = 0;
"9" = 0;
};
};
width = 840;
},
{
layerId = m002;
shapes = (
{
closed = 1;
nodes = (
(449,626,l),
(449,244,l),
(241,244,l)
);
},
{
closed = 1;
nodes = (
(114,0,l),
(204,164,l),
(449,164,l),
(449,0,l),
(839,0,l),
(839,82,l),
(529,82,l),
(529,354,l),
(777,354,l),
(777,434,l),
(529,434,l),
(529,653,l),
(839,653,l),
(839,733,l),
(421,733,l),
(28,0,l)
);
}
);
userData = {
com.hugojourdan.ColorFlow = {
"0" = 0;
"1" = 0;
"10" = 0;
"11" = 0;
"2" = 0;
"3" = 0;
"4" = 0;
"5" = 0;
"6" = 0;
"7" = 0;
"8" = 0;
"9" = 0;
};
};
width = 890;
},
{
layerId = m003;
shapes = (
{
closed = 1;
nodes = (
(483,550,l),
(483,244,l),
(339,244,l)
);
},
{
closed = 1;
nodes = (
(212,0,l),
(272,114,l),
(483,114,l),
(483,0,l),
(933,0,l),
(933,152,l),
(663,152,l),
(663,302,l),
(871,302,l),
(871,444,l),
(663,444,l),
(663,585,l),
(933,585,l),
(933,733,l),
(411,733,l),
(28,0,l)
);
}
);
userData = {
com.hugojourdan.ColorFlow = {
"0" = 0;
"1" = 0;
"10" = 0;
"11" = 0;
"2" = 0;
"3" = 0;
"4" = 0;
"5" = 0;
"6" = 0;
"7" = 0;
"8" = 0;
"9" = 0;
};
};
width = 984;
}
);
unicode = 198;
},
{
color = 6;
glyphname = B;
kernLeft = I;
kernRight = B;
lastChange = "2023-06-30 16:12:48 +0000";
layers = (
{
layerId = m01;
shapes = (
{
closed = 1;
nodes = (
(100,695,l),
(151,696,o),
(207,696,o),
(257,695,cs),
(394,692,o),
(452,637,o),
(452,556,cs),
(452,469,o),
(404,400,o),
(278,398,cs),
(213,397,o),
(158,397,o),
(100,397,c)
);
},
{
closed = 1;
nodes = (
(101,361,l),
(165,361,o),
(228,360,o),
(292,359,cs),
(400,357,o),
(506,288,o),
(506,193,cs),
(506,113,o),
(460,40,o),
(314,37,cs),
(245,36,o),
(170,36,o),
(101,37,c)
);
},
{
closed = 1;
nodes = (
(151,-1,o),
(236,-1,o),
(320,0,cs),
(476,2,o),
(542,91,o),
(542,193,cs),
(542,305,o),
(444,364,o),
(363,379,c),
(435,393,o),
(489,466,o),
(489,556,cs),
(489,648,o),
(422,733,o),
(252,733,cs),
(190,733,o),
(128,734,o),
(66,733,c),
(67,0,l)
);
}
);
userData = {
com.hugojourdan.ColorFlow = {
"0" = 0;
"1" = 0;
"10" = 0;
"11" = 0;
"2" = 0;
"3" = 0;
"4" = 0;
"5" = 0;
"6" = 0;
"7" = 0;
"8" = 0;
"9" = 0;
};
};
width = 590;
},
{
layerId = m002;
shapes = (
{
closed = 1;
nodes = (
(143,655,l),
(184,656,o),
(224,656,o),
(265,656,cs),
(365,656,o),
(423,610,o),
(423,546,cs),
(423,466,o),
(374,420,o),
(275,418,cs),
(221,417,o),
(187,417,o),
(143,417,c)
);
},
{
closed = 1;
nodes = (
(144,339,l),
(198,339,o),
(253,339,o),
(307,338,cs),
(408,336,o),
(474,273,o),
(474,210,cs),
(474,131,o),
(439,83,o),
(318,81,cs),
(260,80,o),
(202,80,o),
(144,80,c)
);
},
{
closed = 1;
nodes = (
(151,-1,o),
(238,-1,o),
(324,0,cs),
(472,2,o),
(553,78,o),
(553,202,cs),
(553,307,o),
(487,363,o),
(423,389,c),
(471,419,o),
(504,471,o),
(504,546,cs),
(504,639,o),
(441,730,o),
(260,733,cs),
(195,734,o),
(129,734,o),
(64,733,c),
(65,0,l)
);
}
);
userData = {
com.hugojourdan.ColorFlow = {
"0" = 0;
"1" = 0;
"10" = 0;
"11" = 0;
"2" = 0;
"3" = 0;
"4" = 0;
"5" = 0;
"6" = 0;
"7" = 0;
"8" = 0;
"9" = 0;
};
};
width = 600;
},
{
layerId = m003;
shapes = (
{
closed = 1;
nodes = (
(243,596,l),
(267,597,o),
(291,597,o),
(315,596,cs),
(386,593,o),
(423,566,o),
(423,521,cs),
(423,462,o),
(389,439,o),
(324,438,cs),
(292,437,o),
(267,437,o),
(243,437,c)
);
},
{
closed = 1;
nodes = (
(244,309,l),
(281,309,o),
(319,309,o),
(356,308,cs),
(419,307,o),
(474,277,o),
(474,226,cs),
(474,170,o),
(444,142,o),
(367,141,cs),
(326,140,o),
(285,140,o),
(244,140,c)
);
},
{
closed = 1;
nodes = (
(166,-1,o),
(272,-1,o),
(375,0,cs),
(584,2,o),
(653,75,o),
(653,202,cs),
(653,307,o),
(593,367,o),
(496,387,c),
(567,411,o),
(604,464,o),
(604,546,cs),
(604,646,o),
(533,730,o),
(310,733,cs),
(228,734,o),
(144,734,o),
(64,733,c),
(65,1,l)
);
}
);
userData = {
com.hugojourdan.ColorFlow = {
"0" = 0;
"1" = 0;
"10" = 0;
"11" = 0;
"2" = 0;
"3" = 0;
"4" = 0;
"5" = 0;
"6" = 0;
"7" = 0;
"8" = 0;
"9" = 0;
};
};
width = 700;
}
);
unicode = 66;
},
{
color = 6;
glyphname = C;
kernLeft = O;
kernRight = C;
lastChange = "2023-07-01 15:11:19 +0000";
layers = (
{
anchors = (
{
name = bottom;
pos = (380,0);
},
{
name = top;
pos = (380,733);
}
);
layerId = m01;
shapes = (
{
closed = 1;
nodes = (
(540,-14,o),
(642,44,o),
(711,144,c),
(681,167,l),
(612,73,o),
(513,24,o),
(404,24,cs),
(215,24,o),
(76,168,o),
(76,368,cs),
(76,568,o),
(220,709,o),
(404,709,cs),
(501,709,o),
(605,670,o),
(675,578,c),
(708,603,l),
(634,697,o),
(536,747,o),
(404,747,cs),
(184,747,o),
(38,582,o),
(38,368,cs),
(38,154,o),
(184,-14,o),
(404,-14,cs)
);
}
);
userData = {
com.hugojourdan.ColorFlow = {
"0" = 0;
"1" = 0;
"10" = 0;
"11" = 0;
"2" = 0;
"3" = 0;
"4" = 0;
"5" = 0;
"6" = 0;
"7" = 0;
"8" = 0;
"9" = 0;
};
};
width = 760;
},
{
anchors = (
{
name = bottom;
pos = (380,0);
},
{
name = top;
pos = (380,733);
}
);
layerId = m002;
shapes = (
{
closed = 1;
nodes = (
(544,-13,o),
(652,53,o),
(720,161,c),
(656,207,l),
(595,112,o),
(506,69,o),
(402,69,cs),
(244,69,o),
(117,199,o),
(117,368,cs),
(117,537,o),
(244,666,o),
(402,666,cs),
(494,666,o),
(591,615,o),
(646,535,c),
(718,585,l),
(644,688,o),
(540,746,o),
(402,746,cs),
(185,746,o),
(36,578,o),
(36,368,cs),
(36,158,o),
(185,-13,o),
(402,-13,cs)
);
}
);
userData = {
com.hugojourdan.ColorFlow = {
"0" = 0;
"1" = 0;
"10" = 0;
"11" = 0;
"2" = 0;
"3" = 0;
"4" = 0;
"5" = 0;
"6" = 0;
"7" = 0;
"8" = 0;
"9" = 0;
};
};
width = 760;
},
{
anchors = (
{
name = bottom;
pos = (400,0);
},
{
name = top;
pos = (400,733);
}
);
layerId = m003;
shapes = (
{
closed = 1;
nodes = (
(598,-13,o),
(694,64,o),
(750,155,c),
(626,252,l),
(580,186,o),
(517,149,o),
(422,149,cs),
(310,149,o),
(217,224,o),
(217,368,cs),
(217,512,o),
(310,586,o),
(422,586,cs),
(514,586,o),
(579,545,o),
(614,494,c),
(747,591,l),
(685,676,o),
(591,746,o),
(422,746,cs),
(181,746,o),
(36,584,o),
(36,368,cs),
(36,152,o),
(180,-13,o),
(422,-13,cs)
);
}
);
userData = {
com.hugojourdan.ColorFlow = {
"0" = 0;
"1" = 0;
"10" = 0;
"11" = 0;
"2" = 0;
"3" = 0;
"4" = 0;
"5" = 0;
"6" = 0;
"7" = 0;
"8" = 0;
"9" = 0;
};
};
width = 790;
}
);
unicode = 67;
},
{
color = 6;
glyphname = D;
kernLeft = I;
kernRight = O;
lastChange = "2023-07-01 16:39:49 +0000";
layers = (
{
anchors = (
{
name = bottom;
pos = (325,0);
},
{
name = center;
pos = (325,367);
},
{
name = top;
pos = (325,733);
}
);
layerId = m01;
shapes = (
{
closed = 1;
nodes = (
(101,696,l),
(170,697,o),
(246,697,o),
(315,696,cs),
(501,693,o),
(623,572,o),
(623,377,cs),
(623,181,o),
(543,45,o),
(313,41,cs),
(245,40,o),
(170,40,o),
(102,41,c)
);
},
{
closed = 1;
nodes = (
(554,3,o),
(661,151,o),
(661,377,cs),
(661,588,o),
(530,732,o),
(321,734,cs),
(232,735,o),
(153,735,o),
(65,734,c),
(65,0,l),
(157,-1,o),
(228,-1,o),
(320,0,cs)
);
}
);
userData = {
com.hugojourdan.ColorFlow = {
"0" = 0;
"1" = 0;
"10" = 0;
"11" = 0;
"2" = 0;
"3" = 0;
"4" = 0;
"5" = 0;
"6" = 0;
"7" = 0;
"8" = 0;
"9" = 0;
};
};
width = 710;
},
{
anchors = (
{
name = bottom;
pos = (330,0);
},
{
name = center;
pos = (330,367);
},
{
name = top;
pos = (330,733);
}
);
layerId = m002;
shapes = (
{
closed = 1;
nodes = (
(145,654,l),
(204,655,o),
(263,655,o),
(322,654,cs),
(478,651,o),
(587,549,o),
(587,376,cs),
(587,237,o),
(533,86,o),
(319,82,cs),
(261,81,o),
(203,81,o),
(145,82,c)
);
},
{
closed = 1;
nodes = (
(559,3,o),
(669,166,o),
(669,376,cs),
(669,583,o),
(534,731,o),
(328,733,cs),
(237,734,o),
(157,734,o),
(66,733,c),
(66,0,l),
(153,-1,o),
(240,-1,o),
(327,0,cs)
);
}
);
userData = {
com.hugojourdan.ColorFlow = {
"0" = 0;
"1" = 0;
"10" = 0;
"11" = 0;
"2" = 0;
"3" = 0;
"4" = 0;
"5" = 0;
"6" = 0;
"7" = 0;
"8" = 0;
"9" = 0;
};
};
width = 720;
},
{
anchors = (
{
name = bottom;
pos = (360,0);
},
{
name = center;
pos = (360,367);
},
{
name = top;
pos = (360,733);
}
);
layerId = m003;
shapes = (
{
closed = 1;
nodes = (
(245,585,l),
(287,585,o),
(319,585,o),
(361,584,cs),
(463,582,o),
(547,514,o),
(547,376,cs),
(547,249,o),
(508,155,o),
(358,152,cs),
(317,151,o),
(286,151,o),
(245,151,c)
);
},
{
closed = 1;
nodes = (
(655,4,o),
(729,174,o),
(729,376,cs),
(729,589,o),
(598,731,o),
(369,733,cs),
(271,734,o),
(178,734,o),
(66,732,c),
(66,1,l),
(169,-1,o),
(264,-1,o),
(368,0,cs)
);
}
);
userData = {
com.hugojourdan.ColorFlow = {
"0" = 0;
"1" = 0;
"10" = 0;
"11" = 0;
"2" = 0;
"3" = 0;
"4" = 0;
"5" = 0;
"6" = 0;
"7" = 0;
"8" = 0;
"9" = 0;
};
};
width = 780;
}
);
unicode = 68;
},
{
glyphname = Eth;
kernLeft = DTH;
kernRight = O;
lastChange = "2023-08-12 06:17:18 +0000";
layers = (
{
layerId = m01;
shapes = (
{
pos = (15,0);
ref = D;
},
{
closed = 1;
nodes = (
(23,360,l),
(337,360,l),
(337,396,l),
(32,396,l)
);
}
);
userData = {
com.hugojourdan.ColorFlow = {
"0" = 0;
"1" = 0;
"10" = 0;
"11" = 0;
"2" = 0;
"3" = 0;
"4" = 0;
"5" = 0;
"6" = 0;
"7" = 0;
"8" = 0;
"9" = 0;
};
};
width = 730;
},
{
layerId = m002;
shapes = (
{
pos = (30,0);
ref = D;
},
{
closed = 1;
nodes = (
(12,335,l),
(372,335,l),
(372,409,l),
(32,409,l)
);
}
);
userData = {
com.hugojourdan.ColorFlow = {
"0" = 0;
"1" = 0;
"10" = 0;
"11" = 0;
"2" = 0;
"3" = 0;
"4" = 0;
"5" = 0;
"6" = 0;
"7" = 0;
"8" = 0;
"9" = 0;
};
};
width = 750;
},
{
layerId = m003;
shapes = (
{
pos = (60,0);
ref = D;
},
{
closed = 1;
nodes = (
(12,295,l),
(402,295,l),
(402,449,l),
(62,449,l)
);
}
);
userData = {
com.hugojourdan.ColorFlow = {
"0" = 0;
"1" = 0;
"10" = 0;
"11" = 0;
"2" = 0;
"3" = 0;
"4" = 0;
"5" = 0;
"6" = 0;
"7" = 0;
"8" = 0;
"9" = 0;
};
};
width = 840;
}
);
unicode = 208;
},
{
color = 6;
glyphname = E;
kernLeft = I;
kernRight = E;
lastChange = "2023-07-01 17:22:52 +0000";
layers = (
{
anchors = (
{
name = bottom;
pos = (254,0);
},
{
name = ogonek;
pos = (429,10);
},
{
name = top;
pos = (264,733);
},
{
name = topleft;
pos = (30,733);
}
);
layerId = m01;
shapes = (
{
closed = 1;
nodes = (
(79,733,l),
(79,0,l),
(449,0,l),
(449,39,l),
(114,39,l),
(114,378,l),
(384,378,l),
(384,415,l),
(114,415,l),
(114,695,l),
(449,695,l),
(449,733,l)
);
}
);
userData = {
com.hugojourdan.ColorFlow = {
"0" = 0;
"1" = 0;
"10" = 0;
"11" = 0;
"2" = 0;
"3" = 0;
"4" = 0;
"5" = 0;
"6" = 0;
"7" = 0;
"8" = 0;
"9" = 0;
};
};
width = 500;
},
{
anchors = (
{
name = bottom;
pos = (265,0);
},
{
name = ogonek;
pos = (429,10);
},
{
name = top;
pos = (274,733);
},
{
name = topleft;
pos = (30,733);
}
);
layerId = m002;
shapes = (
{
closed = 1;
nodes = (
(79,733,l),
(79,0,l),
(469,0,l),
(469,82,l),
(159,82,l),
(159,354,l),
(407,354,l),
(407,434,l),
(159,434,l),
(159,653,l),
(469,653,l),
(469,733,l)
);
}
);
userData = {
com.hugojourdan.ColorFlow = {
"0" = 0;
"1" = 0;
"10" = 0;
"11" = 0;
"2" = 0;
"3" = 0;
"4" = 0;
"5" = 0;
"6" = 0;
"7" = 0;
"8" = 0;
"9" = 0;
};
};
width = 520;
},
{
anchors = (
{
name = bottom;
pos = (315,0);
},
{
name = ogonek;
pos = (469,10);
},
{
name = top;
pos = (324,733);
},
{
name = topleft;
pos = (80,733);
}
);
layerId = m003;
shapes = (
{
closed = 1;
nodes = (
(79,733,l),
(79,0,l),
(549,0,l),
(549,152,l),
(259,152,l),
(259,302,l),
(447,302,l),
(447,444,l),
(259,444,l),
(259,585,l),
(549,585,l),
(549,733,l)
);
}
);
userData = {
com.hugojourdan.ColorFlow = {
"0" = 0;
"1" = 0;
"10" = 0;
"11" = 0;
"2" = 0;
"3" = 0;
"4" = 0;
"5" = 0;
"6" = 0;
"7" = 0;
"8" = 0;
"9" = 0;
};
};
width = 600;
}
);
unicode = 69;
},
{
glyphname = Schwa;
kernLeft = O;
kernRight = O;
lastChange = "2023-08-12 06:17:09 +0000";
layers = (
{
anchors = (
{
name = bottom;
pos = (415,0);
},
{
name = top;
pos = (415,733);
}
);
layerId = m01;
shapes = (
{
closed = 1;
nodes = (
(619,-14,o),
(784,152,o),
(784,366,cs),
(784,579,o),
(609,747,o),
(409,747,cs),
(294,747,o),
(190,696,o),
(116,602,c),
(147,582,l),
(211,661,o),
(310,710,o),
(409,710,cs),
(587,710,o),
(746,559,o),
(746,366,cs),
(746,155,o),
(587,28,o),
(409,28,cs),
(244,28,o),
(108,136,o),
(89,317,c),
(758,317,l),
(755,353,l),
(50,353,l),
(50,352,o),
(50,350,o),
(50,348,cs),
(50,139,o),
(219,-14,o),
(409,-14,cs)
);
}
);
userData = {
com.hugojourdan.ColorFlow = {
"0" = 0;
"1" = 0;
"10" = 0;
"11" = 0;
"2" = 0;
"3" = 0;
"4" = 0;
"5" = 0;
"6" = 0;
"7" = 0;
"8" = 0;
"9" = 0;
};
};
width = 830;
},
{
anchors = (
{
name = bottom;
pos = (415,0);
},
{
name = top;
pos = (415,733);
}
);
layerId = m002;
shapes = (
{
closed = 1;
nodes = (
(626,-13,o),
(784,156,o),
(784,366,cs),
(784,576,o),
(616,746,o),
(409,746,cs),
(290,746,o),
(177,688,o),
(104,585,c),
(173,536,l),
(231,615,o),
(316,666,o),
(409,666,cs),
(567,666,o),
(703,528,o),
(703,366,cs),
(703,197,o),
(567,71,o),
(409,71,cs),
(271,71,o),
(162,164,o),
(139,295,c),
(733,295,l),
(731,374,l),
(51,374,l),
(50,366,o),
(50,357,o),
(50,349,cs),
(50,143,o),
(212,-13,o),
(409,-13,cs)
);
}
);
userData = {
com.hugojourdan.ColorFlow = {
"0" = 0;
"1" = 0;
"10" = 0;
"11" = 0;
"2" = 0;
"3" = 0;
"4" = 0;
"5" = 0;
"6" = 0;
"7" = 0;
"8" = 0;
"9" = 0;
};
};
width = 830;
},
{
anchors = (
{
name = bottom;
pos = (425,0);
},
{
name = top;
pos = (425,733);
}
);
layerId = m003;
shapes = (
{
closed = 1;
nodes = (
(662,-13,o),
(804,154,o),
(804,366,cs),
(804,573,o),
(658,746,o),
(419,746,cs),
(278,746,o),
(171,678,o),
(107,591,c),
(230,503,l),
(283,560,o),
(327,586,o),
(419,586,cs),
(521,586,o),
(623,513,o),
(623,366,cs),
(623,212,o),
(523,151,o),
(419,151,cs),
(313,151,o),
(238,197,o),
(228,285,c),
(669,285,l),
(667,424,l),
(51,424,l),
(49,391,o),
(49,377,o),
(50,349,cs),
(57,134,o),
(183,-13,o),
(419,-13,cs)
);
}
);
userData = {
com.hugojourdan.ColorFlow = {
"0" = 0;
"1" = 0;
"10" = 0;
"11" = 0;
"2" = 0;
"3" = 0;
"4" = 0;
"5" = 0;
"6" = 0;
"7" = 0;
"8" = 0;
"9" = 0;
};
};
width = 850;
}
);
unicode = 399;
},
{
color = 6;
glyphname = F;
kernLeft = I;
kernRight = F;
lastChange = "2023-06-30 16:12:48 +0000";
layers = (
{
layerId = m01;
shapes = (
{
closed = 1;
nodes = (
(76,733,l),
(76,0,l),
(111,0,l),
(111,360,l),
(370,360,l),
(370,399,l),
(111,399,l),
(111,695,l),
(416,695,l),
(416,733,l)
);
}
);
userData = {
com.hugojourdan.ColorFlow = {
"0" = 0;
"1" = 0;
"10" = 0;
"11" = 0;
"2" = 0;
"3" = 0;
"4" = 0;
"5" = 0;
"6" = 0;
"7" = 0;
"8" = 0;
"9" = 0;
};
};
width = 469;
},
{
layerId = m002;
shapes = (
{
closed = 1;
nodes = (
(75,733,l),
(75,0,l),
(157,0,l),
(157,337,l),
(393,337,l),
(393,417,l),
(157,417,l),
(157,653,l),
(437,653,l),
(437,733,l)
);
}
);
userData = {
com.hugojourdan.ColorFlow = {
"0" = 0;
"1" = 0;
"10" = 0;
"11" = 0;
"2" = 0;
"3" = 0;
"4" = 0;
"5" = 0;
"6" = 0;
"7" = 0;
"8" = 0;
"9" = 0;
};
};
width = 490;
},
{
layerId = m003;
shapes = (
{
closed = 1;
nodes = (
(75,733,l),
(75,0,l),
(257,0,l),
(257,292,l),
(483,292,l),
(483,437,l),
(257,437,l),
(257,593,l),
(527,593,l),
(527,733,l)
);
}
);
userData = {
com.hugojourdan.ColorFlow = {
"0" = 0;
"1" = 0;
"10" = 0;
"11" = 0;
"2" = 0;
"3" = 0;
"4" = 0;
"5" = 0;
"6" = 0;
"7" = 0;
"8" = 0;
"9" = 0;
};
};
width = 580;
}
);
unicode = 70;
},
{
color = 6;
glyphname = G;
kernLeft = O;
kernRight = O;
lastChange = "2023-07-01 17:46:14 +0000";
layers = (
{
anchors = (
{
name = bottom;
pos = (415,0);
},
{
name = top;
pos = (415,733);
}
);
layerId = m01;
shapes = (
{
closed = 1;
nodes = (
(611,-14,o),
(780,139,o),
(780,348,cs),
(780,350,o),
(780,352,o),
(780,353,c),
(465,353,l),
(452,317,l),
(741,317,l),
(722,136,o),
(586,28,o),
(421,28,cs),
(243,28,o),
(84,155,o),
(84,366,cs),
(84,559,o),
(243,710,o),
(421,710,cs),
(520,710,o),
(619,661,o),
(683,582,c),
(714,602,l),
(640,696,o),
(536,747,o),
(421,747,cs),
(221,747,o),
(46,579,o),
(46,366,cs),
(46,152,o),
(211,-14,o),
(421,-14,cs)
);
}
);
userData = {
com.hugojourdan.ColorFlow = {
"0" = 0;
"1" = 0;
"10" = 0;
"11" = 0;
"2" = 0;
"3" = 0;
"4" = 0;
"5" = 0;
"6" = 0;
"7" = 0;
"8" = 0;
"9" = 0;
};
};
width = 830;
},
{
anchors = (
{
name = bottom;
pos = (415,0);
},
{
name = top;
pos = (415,733);
}
);
layerId = m002;
shapes = (
{
closed = 1;
nodes = (
(618,-13,o),
(780,143,o),
(780,349,cs),
(780,357,o),
(780,366,o),
(779,374,c),
(449,374,l),
(417,295,l),
(691,295,l),
(668,164,o),
(559,71,o),
(421,71,cs),
(263,71,o),
(127,197,o),
(127,366,cs),
(127,528,o),
(263,666,o),
(421,666,cs),
(514,666,o),
(599,615,o),
(657,536,c),
(726,585,l),
(653,688,o),
(540,746,o),
(421,746,cs),
(214,746,o),
(46,576,o),
(46,366,cs),
(46,156,o),
(204,-13,o),
(421,-13,cs)
);
}
);
userData = {
com.hugojourdan.ColorFlow = {
"0" = 0;
"1" = 0;
"10" = 0;
"11" = 0;
"2" = 0;
"3" = 0;
"4" = 0;
"5" = 0;
"6" = 0;
"7" = 0;
"8" = 0;
"9" = 0;
};
};
width = 830;
},
{
anchors = (
{
name = bottom;
pos = (425,0);
},
{
name = top;
pos = (425,733);
}
);
layerId = m003;
shapes = (
{
closed = 1;
nodes = (
(667,-13,o),
(793,134,o),
(800,349,cs),
(801,377,o),
(801,391,o),
(799,424,c),
(413,424,l),
(381,285,l),
(622,285,l),
(612,197,o),
(537,151,o),
(431,151,cs),
(327,151,o),
(227,212,o),
(227,366,cs),
(227,513,o),
(329,586,o),
(431,586,cs),
(523,586,o),
(567,560,o),
(620,503,c),
(743,591,l),
(679,678,o),
(572,746,o),
(431,746,cs),
(192,746,o),
(46,573,o),
(46,366,cs),
(46,154,o),
(188,-13,o),
(431,-13,cs)
);
}
);
userData = {
com.hugojourdan.ColorFlow = {
"0" = 0;
"1" = 0;
"10" = 0;
"11" = 0;
"2" = 0;
"3" = 0;
"4" = 0;
"5" = 0;
"6" = 0;
"7" = 0;
"8" = 0;
"9" = 0;
};
};
width = 850;
}
);
unicode = 71;
},
{
color = 6;
glyphname = H;
kernLeft = I;
kernRight = I;
lastChange = "2023-08-12 05:12:21 +0000";
layers = (
{
anchors = (
{
name = bottom;
pos = (325,0);
},
{
name = center;
pos = (325,367);
},
{
name = top;
pos = (325,733);
},
{
name = topleft;
pos = (20,733);
}
);
layerId = m01;
shapes = (
{
closed = 1;
nodes = (
(543,733,l),
(544,400,l),
(107,400,l),
(107,733,l),
(71,733,l),
(71,0,l),
(107,0,l),
(107,365,l),
(544,365,l),
(544,0,l),
(579,0,l),
(579,733,l)
);
}
);
userData = {
com.hugojourdan.ColorFlow = {
"0" = 0;
"1" = 0;
"10" = 0;
"11" = 0;
"2" = 0;
"3" = 0;
"4" = 0;
"5" = 0;
"6" = 0;
"7" = 0;
"8" = 0;
"9" = 0;
};
};
width = 650;
},
{
anchors = (
{
name = bottom;
pos = (340,0);
},
{
name = center;
pos = (340,367);
},
{
name = top;
pos = (340,733);
},
{
name = topleft;
pos = (20,733);
}
);
layerId = m002;
shapes = (
{
closed = 1;
nodes = (
(524,733,l),
(525,421,l),
(156,421,l),
(156,733,l),
(75,733,l),
(75,0,l),
(156,0,l),
(156,343,l),
(525,343,l),
(525,0,l),
(605,0,l),
(605,733,l)
);
}
);
userData = {
com.hugojourdan.ColorFlow = {
"0" = 0;
"1" = 0;
"10" = 0;
"11" = 0;
"2" = 0;
"3" = 0;
"4" = 0;
"5" = 0;
"6" = 0;
"7" = 0;
"8" = 0;
"9" = 0;
};
};
width = 680;
},
{
anchors = (
{
name = bottom;
pos = (390,0);
},
{
name = center;
pos = (390,367);
},
{
name = top;
pos = (390,733);
},
{
name = topleft;
pos = (20,733);
}
);
layerId = m003;
shapes = (
{
closed = 1;
nodes = (
(524,733,l),
(525,451,l),
(256,451,l),
(256,733,l),
(75,733,l),
(75,0,l),
(256,0,l),
(256,303,l),
(525,303,l),
(525,0,l),
(705,0,l),
(705,733,l)
);
}
);
userData = {
com.hugojourdan.ColorFlow = {
"0" = 0;
"1" = 0;
"10" = 0;
"11" = 0;
"2" = 0;
"3" = 0;
"4" = 0;
"5" = 0;
"6" = 0;
"7" = 0;
"8" = 0;
"9" = 0;
};
};
width = 780;
}
);
unicode = 72;
},
{
glyphname = Hbar;
kernLeft = I;
kernRight = I;
lastChange = "2023-08-12 06:18:04 +0000";
layers = (
{
layerId = m01;
shapes = (
{
ref = H;
},
{
closed = 1;
nodes = (
(13,584,l),
(621,584,l),
(621,620,l),
(22,620,l)
);
}
);
userData = {
com.hugojourdan.ColorFlow = {
"0" = 0;
"1" = 0;
"10" = 0;
"11" = 0;
"2" = 0;
"3" = 0;
"4" = 0;
"5" = 0;
"6" = 0;
"7" = 0;
"8" = 0;
"9" = 0;
};
};
width = 650;
},
{
layerId = m002;
shapes = (
{
ref = H;
},
{
closed = 1;
nodes = (
(-8,565,l),
(662,565,l),
(662,639,l),
(12,639,l)
);
}
);
userData = {
com.hugojourdan.ColorFlow = {
"0" = 0;
"1" = 0;
"10" = 0;
"11" = 0;
"2" = 0;
"3" = 0;
"4" = 0;
"5" = 0;
"6" = 0;
"7" = 0;
"8" = 0;
"9" = 0;
};
};
width = 680;
},
{
layerId = m003;
shapes = (
{
ref = H;
},
{
closed = 1;
nodes = (
(-8,523,l),
(762,523,l),
(762,677,l),
(42,677,l)
);
}
);
userData = {
com.hugojourdan.ColorFlow = {
"0" = 0;
"1" = 0;
"10" = 0;
"11" = 0;
"2" = 0;
"3" = 0;
"4" = 0;
"5" = 0;
"6" = 0;
"7" = 0;
"8" = 0;
"9" = 0;
};
};
width = 780;
}
);
unicode = 294;
},
{
color = 6;
glyphname = I;
kernLeft = I;
kernRight = I;
lastChange = "2023-07-01 17:23:26 +0000";
layers = (
{
anchors = (
{
name = bottom;
pos = (115,0);
},
{
name = ogonek;
pos = (115,10);
},
{
name = top;
pos = (115,733);
},
{
name = topleft;
pos = (35,733);
}
);
layerId = m01;
shapes = (
{
closed = 1;
nodes = (
(96,0,l),
(134,0,l),
(134,733,l),
(96,733,l)
);
}
);
userData = {
com.hugojourdan.ColorFlow = {
"0" = 0;
"1" = 0;
"10" = 0;
"11" = 0;
"2" = 0;
"3" = 0;
"4" = 0;
"5" = 0;
"6" = 0;
"7" = 0;
"8" = 0;
"9" = 0;
};
};
width = 230;
},
{
anchors = (
{
name = bottom;
pos = (140,0);
},
{
name = ogonek;
pos = (144,10);
},
{
name = top;
pos = (140,733);
},
{
name = topleft;
pos = (30,733);
}
);
layerId = m002;
shapes = (
{
closed = 1;
nodes = (
(100,0,l),
(180,0,l),
(180,733,l),
(100,733,l)
);
}
);
userData = {
com.hugojourdan.ColorFlow = {
"0" = 0;
"1" = 0;
"10" = 0;
"11" = 0;
"2" = 0;
"3" = 0;
"4" = 0;
"5" = 0;
"6" = 0;
"7" = 0;
"8" = 0;
"9" = 0;
};
};
width = 280;
},
{
anchors = (
{
name = bottom;
pos = (185,0);
},
{
name = ogonek;
pos = (189,10);
},
{
name = top;
pos = (185,733);
},
{
name = topleft;
pos = (75,733);
}
);
layerId = m003;
shapes = (
{
closed = 1;
nodes = (
(100,0,l),
(270,0,l),
(270,733,l),
(100,733,l)
);
}
);
userData = {
com.hugojourdan.ColorFlow = {
"0" = 0;
"1" = 0;
"10" = 0;
"11" = 0;
"2" = 0;
"3" = 0;
"4" = 0;
"5" = 0;
"6" = 0;
"7" = 0;
"8" = 0;
"9" = 0;
};
};
width = 370;
}
);
unicode = 73;
},
{
color = 6;
glyphname = J;
kernLeft = J;
kernRight = I;
lastChange = "2023-06-30 16:12:48 +0000";
layers = (
{
anchors = (
{
name = bottom;
pos = (156,0);
},
{
name = top;
pos = (230,733);
}
);
layerId = m01;
shapes = (
{
closed = 1;
nodes = (
(202,-13,o),
(251,72,o),
(252,191,cs),
(253,362,o),
(253,562,o),
(252,733,c),
(217,733,l),
(218,578,o),
(217,311,o),
(217,217,cs),
(217,59,o),
(162,21,o),
(49,21,cs),
(40,21,o),
(32,21,o),
(25,22,c),
(16,-11,l),
(26,-12,o),
(40,-13,o),
(56,-13,cs)
);
}
);
userData = {
com.hugojourdan.ColorFlow = {
"0" = 0;
"1" = 0;
"10" = 0;
"11" = 0;
"2" = 0;
"3" = 0;
"4" = 0;
"5" = 0;
"6" = 0;
"7" = 0;
"8" = 0;
"9" = 0;
};
};
width = 310;
},
{
anchors = (
{
name = bottom;
pos = (170,0);
},
{
name = top;
pos = (240,733);
}
);
layerId = m002;
shapes = (
{
closed = 1;
nodes = (
(223,-13,o),
(278,82,o),
(279,200,cs),
(281,443,o),
(280,470,o),
(279,733,c),
(201,733,l),
(202,475,o),
(201,463,o),
(201,225,cs),
(201,120,o),
(163,66,o),
(69,66,cs),
(51,66,o),
(41,67,o),
(31,70,c),
(13,-5,l),
(24,-9,o),
(48,-13,o),
(75,-13,cs)
);
}
);
userData = {
com.hugojourdan.ColorFlow = {
"0" = 0;
"1" = 0;
"10" = 0;
"11" = 0;
"2" = 0;
"3" = 0;
"4" = 0;
"5" = 0;
"6" = 0;
"7" = 0;
"8" = 0;
"9" = 0;
};
};
width = 340;
},
{
anchors = (
{
name = bottom;
pos = (220,0);
},
{
name = top;
pos = (290,733);
}
);
layerId = m003;
shapes = (
{
closed = 1;
nodes = (
(320,-13,o),
(378,90,o),
(379,200,cs),
(380,369,o),
(380,564,o),
(379,733,c),
(211,733,l),
(212,572,o),
(211,386,o),
(211,225,cs),
(211,157,o),
(182,126,o),
(119,126,cs),
(91,126,o),
(65,130,o),
(36,137,c),
(14,-5,l),
(54,-13,o),
(88,-13,o),
(125,-13,cs)
);
}
);
userData = {
com.hugojourdan.ColorFlow = {
"0" = 0;
"1" = 0;
"10" = 0;
"11" = 0;
"2" = 0;
"3" = 0;
"4" = 0;
"5" = 0;
"6" = 0;
"7" = 0;
"8" = 0;
"9" = 0;
};
};
width = 440;
}
);
unicode = 74;
},
{
color = 6;
glyphname = K;
kernLeft = I;
kernRight = K;
lastChange = "2023-07-01 17:46:50 +0000";
layers = (
{
anchors = (
{
name = bottom;
pos = (280,0);
},
{
name = top;
pos = (280,733);
}
);
layerId = m01;
shapes = (
{
closed = 1;
nodes = (
(60,0,l),
(95,0,l),
(95,733,l),
(60,733,l)
);
},
{
closed = 1;
nodes = (
(479,0,l),
(527,0,l),
(218,384,l),
(505,733,l),
(457,733,l),
(175,384,l)
);
}
);
userData = {
com.hugojourdan.ColorFlow = {
"0" = 0;
"1" = 0;
"10" = 0;
"11" = 0;
"2" = 0;
"3" = 0;
"4" = 0;
"5" = 0;
"6" = 0;
"7" = 0;
"8" = 0;
"9" = 0;
};
};
width = 560;
},
{
anchors = (
{
name = bottom;
pos = (320,0);
},
{
name = top;
pos = (320,733);
}
);
layerId = m002;
shapes = (
{
closed = 1;
nodes = (
(68,0,l),
(146,0,l),
(146,733,l),
(68,733,l)
);
},
{
closed = 1;
nodes = (
(503,0,l),
(606,0,l),
(298,383,l),
(586,733,l),
(483,733,l),
(200,383,l)
);
}
);
userData = {
com.hugojourdan.ColorFlow = {
"0" = 0;
"1" = 0;
"10" = 0;
"11" = 0;
"2" = 0;
"3" = 0;
"4" = 0;
"5" = 0;
"6" = 0;
"7" = 0;
"8" = 0;
"9" = 0;
};
};
width = 640;
},
{
anchors = (
{
name = bottom;
pos = (370,0);
},
{
name = top;
pos = (370,733);
}
);
layerId = m003;
shapes = (
{
closed = 1;
nodes = (
(68,0,l),
(228,0,l),
(228,733,l),
(68,733,l)
);
},
{
closed = 1;
nodes = (
(511,0,l),
(705,0,l),
(452,383,l),
(685,733,l),
(491,733,l),
(269,383,l)
);
}
);
userData = {
com.hugojourdan.ColorFlow = {
"0" = 0;
"1" = 0;
"10" = 0;
"11" = 0;
"2" = 0;
"3" = 0;
"4" = 0;
"5" = 0;
"6" = 0;
"7" = 0;
"8" = 0;
"9" = 0;
};
};
width = 740;
}
);
unicode = 75;
},
{
color = 6;
glyphname = L;
kernLeft = I;
kernRight = L;
lastChange = "2023-07-01 17:45:43 +0000";
layers = (
{
anchors = (
{
name = bottom;
pos = (240,0);
},
{
name = center;
pos = (90,367);
},
{
name = top;
pos = (90,733);
},
{
name = topright;
pos = (340,880);
}
);
layerId = m01;
shapes = (
{
closed = 1;
nodes = (
(65,733,l),
(65,0,l),
(423,0,l),
(423,37,l),
(99,37,l),
(99,733,l)
);
}
);
userData = {
com.hugojourdan.ColorFlow = {
"0" = 0;
"1" = 0;
"10" = 0;
"11" = 0;
"2" = 0;
"3" = 0;
"4" = 0;
"5" = 0;
"6" = 0;
"7" = 0;
"8" = 0;
"9" = 0;
};
};
width = 460;
},
{
anchors = (
{
name = bottom;
pos = (260,0);
},
{
name = center;
pos = (110,367);
},
{
name = top;
pos = (110,733);
},
{
name = topright;
pos = (360,880);
}
);
layerId = m002;
shapes = (
{
closed = 1;
nodes = (
(65,733,l),
(65,0,l),
(443,0,l),
(443,82,l),
(147,82,l),
(147,733,l)
);
}
);
userData = {
com.hugojourdan.ColorFlow = {
"0" = 0;
"1" = 0;
"10" = 0;
"11" = 0;
"2" = 0;
"3" = 0;
"4" = 0;
"5" = 0;
"6" = 0;
"7" = 0;
"8" = 0;
"9" = 0;
};
};
width = 480;
},
{
anchors = (
{
name = bottom;
pos = (299,0);
},
{
name = center;
pos = (155,367);
},
{
name = top;
pos = (155,733);
},
{
name = topright;
pos = (340,880);
}
);
layerId = m003;
shapes = (
{
closed = 1;
nodes = (
(65,733,l),
(65,0,l),
(533,0,l),
(533,152,l),
(237,152,l),
(237,733,l)
);
}
);
userData = {
com.hugojourdan.ColorFlow = {
"0" = 0;
"1" = 0;
"10" = 0;
"11" = 0;
"2" = 0;
"3" = 0;
"4" = 0;
"5" = 0;
"6" = 0;
"7" = 0;
"8" = 0;
"9" = 0;
};
};
width = 570;
}
);
unicode = 76;
},
{
glyphname = Lslash;
kernLeft = I;
kernRight = L;
lastChange = "2023-07-01 17:58:59 +0000";
layers = (
{
layerId = m01;
shapes = (
{
ref = L;
},
{
closed = 1;
nodes = (
(12,285,l),
(332,450,l),
(332,489,l),
(12,324,l)
);
}
);
userData = {
com.hugojourdan.ColorFlow = {
"0" = 0;
"1" = 0;
"10" = 0;
"11" = 0;
"2" = 0;
"3" = 0;
"4" = 0;
"5" = 0;
"6" = 0;
"7" = 0;
"8" = 0;
"9" = 0;
};
};
width = 460;
},
{
layerId = m002;
shapes = (
{
ref = L;
},
{
closed = 1;
nodes = (
(12,257,l),
(362,433,l),
(362,517,l),
(12,341,l)
);
}
);
userData = {
com.hugojourdan.ColorFlow = {
"0" = 0;
"1" = 0;
"10" = 0;
"11" = 0;
"2" = 0;
"3" = 0;
"4" = 0;
"5" = 0;
"6" = 0;
"7" = 0;
"8" = 0;
"9" = 0;
};
};
width = 480;
},
{
layerId = m003;
shapes = (
{
ref = L;
},
{
closed = 1;
nodes = (
(12,205,l),
(402,405,l),
(402,569,l),
(12,369,l)
);
}
);
userData = {
com.hugojourdan.ColorFlow = {
"0" = 0;
"1" = 0;
"10" = 0;
"11" = 0;
"2" = 0;
"3" = 0;
"4" = 0;
"5" = 0;
"6" = 0;
"7" = 0;
"8" = 0;
"9" = 0;
};
};
width = 570;
}
);
unicode = 321;
},
{
color = 6;
glyphname = M;
kernLeft = I;
kernRight = I;
lastChange = "2023-06-30 16:12:48 +0000";
layers = (
{
layerId = m01;
shapes = (
{
closed = 1;
nodes = (
(71,0,l),
(106,0,l),
(106,550,l),
(104,685,l),
(99,673,l),
(374,0,l),
(415,0,l),
(690,674,l),
(685,686,l),
(683,550,l),
(684,0,l),
(719,0,l),
(719,733,l),
(677,733,l),
(412,78,l),
(390,11,l),
(399,11,l),
(377,78,l),
(113,733,l),
(71,733,l)
);
}
);
userData = {
com.hugojourdan.ColorFlow = {
"0" = 0;
"1" = 0;
"10" = 0;
"11" = 0;
"2" = 0;
"3" = 0;
"4" = 0;
"5" = 0;
"6" = 0;
"7" = 0;
"8" = 0;
"9" = 0;
};
};
width = 790;
},
{
layerId = m002;
shapes = (
{
closed = 1;
nodes = (
(71,0,l),
(149,0,l),
(149,540,l),
(147,626,l),
(134,623,l),
(369,0,l),
(471,0,l),
(706,624,l),
(693,627,l),
(691,540,l),
(692,0,l),
(770,0,l),
(770,733,l),
(659,733,l),
(433,100,l),
(407,20,l),
(433,20,l),
(407,100,l),
(181,733,l),
(70,733,l)
);
}
);
userData = {
com.hugojourdan.ColorFlow = {
"0" = 0;
"1" = 0;
"10" = 0;
"11" = 0;
"2" = 0;
"3" = 0;
"4" = 0;
"5" = 0;
"6" = 0;
"7" = 0;
"8" = 0;
"9" = 0;
};
};
width = 840;
},
{
layerId = m003;
shapes = (
{
closed = 1;
nodes = (
(71,0,l),
(243,0,l),
(243,230,l),
(226,520,l),
(190,545,l),
(372,0,l),
(568,0,l),
(750,546,l),
(714,521,l),
(697,230,l),
(698,0,l),
(870,0,l),
(870,733,l),
(667,733,l),
(506,300,l),
(449,98,l),
(491,98,l),
(434,300,l),
(273,733,l),
(70,733,l)
);
}
);
userData = {
com.hugojourdan.ColorFlow = {
"0" = 0;
"1" = 0;
"10" = 0;
"11" = 0;
"2" = 0;
"3" = 0;
"4" = 0;
"5" = 0;
"6" = 0;
"7" = 0;
"8" = 0;
"9" = 0;
};
};
width = 940;
}
);
unicode = 77;
},
{
color = 6;
glyphname = N;
kernLeft = I;
kernRight = I;
lastChange = "2023-06-30 16:12:48 +0000";
layers = (
{
anchors = (
{
name = bottom;
pos = (335,0);
},
{
name = top;
pos = (335,733);
}
);
layerId = m01;
shapes = (
{
closed = 1;
nodes = (
(71,0,l),
(106,0,l),
(106,605,l),
(101,712,l),
(99,700,l),
(550,0,l),
(600,0,l),
(600,733,l),
(565,733,l),
(565,128,l),
(571,22,l),
(571,33,l),
(119,733,l),
(70,733,l)
);
}
);
userData = {
com.hugojourdan.ColorFlow = {
"0" = 0;
"1" = 0;
"10" = 0;
"11" = 0;
"2" = 0;
"3" = 0;
"4" = 0;
"5" = 0;
"6" = 0;
"7" = 0;
"8" = 0;
"9" = 0;
};
};
width = 670;
},
{
anchors = (
{
name = bottom;
pos = (340,0);
},
{
name = top;
pos = (340,733);
}
);
layerId = m002;
shapes = (
{
closed = 1;
nodes = (
(71,0,l),
(149,0,l),
(149,592,l),
(148,662,l),
(126,656,l),
(510,0,l),
(610,0,l),
(610,733,l),
(532,733,l),
(532,141,l),
(534,71,l),
(555,77,l),
(170,733,l),
(70,733,l)
);
}
);
userData = {
com.hugojourdan.ColorFlow = {
"0" = 0;
"1" = 0;
"10" = 0;
"11" = 0;
"2" = 0;
"3" = 0;
"4" = 0;
"5" = 0;
"6" = 0;
"7" = 0;
"8" = 0;
"9" = 0;
};
};
width = 680;
},
{
anchors = (
{
name = bottom;
pos = (390,0);
},
{
name = top;
pos = (390,733);
}
);
layerId = m003;
shapes = (
{
closed = 1;
nodes = (
(71,0,l),
(249,0,l),
(249,292,l),
(242,549,l),
(157,599,l),
(517,0,l),
(710,0,l),
(710,733,l),
(532,733,l),
(532,441,l),
(540,183,l),
(624,134,l),
(263,733,l),
(70,733,l)
);
}
);
userData = {
com.hugojourdan.ColorFlow = {
"0" = 0;
"1" = 0;
"10" = 0;
"11" = 0;
"2" = 0;
"3" = 0;
"4" = 0;
"5" = 0;
"6" = 0;
"7" = 0;
"8" = 0;
"9" = 0;
};
};
width = 780;
}
);
unicode = 78;
},
{
color = 6;
glyphname = Eng;
kernLeft = I;
kernRight = I;
lastChange = "2023-08-12 06:19:18 +0000";
layers = (
{
anchors = (
{
name = bottom;
pos = (335,0);
},
{
name = top;
pos = (335,733);
}
);
layerId = m01;
shapes = (
{
closed = 1;
nodes = (
(71,0,l),
(106,0,l),
(106,605,l),
(102,696,l),
(564,-23,l),
(558,-156,o),
(503,-189,o),
(397,-189,cs),
(388,-189,o),
(380,-189,o),
(373,-188,c),
(364,-221,l),
(374,-222,o),
(388,-223,o),
(404,-223,cs),
(550,-223,o),
(599,-138,o),
(600,-19,cs),
(600,733,l),
(565,733,l),
(565,128,l),
(568,37,l),
(119,733,l),
(70,733,l)
);
}
);
userData = {
com.hugojourdan.ColorFlow = {
"0" = 0;
"1" = 0;
"10" = 0;
"11" = 0;
"2" = 0;
"3" = 0;
"4" = 0;
"5" = 0;
"6" = 0;
"7" = 0;
"8" = 0;
"9" = 0;
};
};
width = 670;
},
{
anchors = (
{
name = bottom;
pos = (340,0);
},
{
name = top;
pos = (340,733);
}
);
layerId = m002;
shapes = (
{
closed = 1;
nodes = (
(71,0,l),
(149,0,l),
(149,592,l),
(149,618,l),
(531,-21,l),
(525,-109,o),
(486,-154,o),
(400,-154,cs),
(382,-154,o),
(372,-153,o),
(362,-150,c),
(344,-225,l),
(355,-229,o),
(379,-233,o),
(406,-233,cs),
(554,-233,o),
(610,-138,o),
(610,-20,cs),
(610,733,l),
(532,733,l),
(532,141,l),
(533,115,l),
(170,733,l),
(70,733,l)
);
}
);
userData = {
com.hugojourdan.ColorFlow = {
"0" = 0;
"1" = 0;
"10" = 0;
"11" = 0;
"2" = 0;
"3" = 0;
"4" = 0;
"5" = 0;
"6" = 0;
"7" = 0;
"8" = 0;
"9" = 0;
};
};
width = 680;
},
{
anchors = (
{
name = bottom;
pos = (390,0);
},
{
name = top;
pos = (390,733);
}
);
layerId = m003;
shapes = (
{
closed = 1;
nodes = (
(71,0,l),
(249,0,l),
(249,292,l),
(245,453,l),
(538,-33,l),
(529,-75,o),
(500,-94,o),
(450,-94,cs),
(422,-94,o),
(396,-90,o),
(367,-83,c),
(345,-225,l),
(385,-233,o),
(419,-233,o),
(456,-233,cs),
(651,-233,o),
(710,-130,o),
(710,-20,cs),
(710,733,l),
(532,733,l),
(532,441,l),
(537,278,l),
(263,733,l),
(70,733,l)
);
}
);
userData = {
com.hugojourdan.ColorFlow = {
"0" = 0;
"1" = 0;
"10" = 0;
"11" = 0;
"2" = 0;
"3" = 0;
"4" = 0;
"5" = 0;
"6" = 0;
"7" = 0;
"8" = 0;
"9" = 0;
};
};
width = 780;
}
);
unicode = 330;
},
{
color = 6;
glyphname = O;
kernLeft = O;
kernRight = O;
lastChange = "2023-06-30 16:12:48 +0000";
layers = (
{
anchors = (
{
name = bottom;
pos = (425,-10);
},
{
name = center;
pos = (425,367);
},
{
name = ogonek;
pos = (776,10);
},
{
name = top;
pos = (425,733);
},
{
name = topleft;
pos = (30,733);
},
{
name = topright;
pos = (820,733);
}
);
layerId = m01;
shapes = (
{
closed = 1;
nodes = (
(605,710,o),
(765,580,o),
(765,366,cs),
(765,168,o),
(615,25,o),
(425,25,cs),
(235,25,o),
(85,168,o),
(85,366,cs),
(85,580,o),
(245,710,o),
(425,710,cs)
);
},
{
closed = 1;
nodes = (
(639,-14,o),
(803,149,o),
(803,367,cs),
(803,587,o),
(636,747,o),
(425,747,cs),
(214,747,o),
(47,587,o),
(47,367,cs),
(47,149,o),
(211,-14,o),
(425,-14,cs)
);
}
);
userData = {
com.hugojourdan.ColorFlow = {
"0" = 0;
"1" = 0;
"10" = 0;
"11" = 0;
"2" = 0;
"3" = 0;
"4" = 0;
"5" = 0;
"6" = 0;
"7" = 0;
"8" = 0;
"9" = 0;
};
};
width = 850;
},
{
anchors = (
{
name = bottom;
pos = (425,0);
},
{
name = center;
pos = (425,367);
},
{
name = ogonek;
pos = (757,10);
},
{
name = top;
pos = (425,733);
},
{
name = topleft;
pos = (30,733);
},
{
name = topright;
pos = (820,733);
}
);
layerId = m002;
shapes = (
{
closed = 1;
nodes = (
(580,666,o),
(722,551,o),
(722,366,cs),
(722,190,o),
(591,69,o),
(425,69,cs),
(259,69,o),
(128,190,o),
(128,366,cs),
(128,551,o),
(270,666,o),
(425,666,cs)
);
},
{
closed = 1;
nodes = (
(655,-13,o),
(802,153,o),
(802,367,cs),
(802,583,o),
(642,746,o),
(425,746,cs),
(208,746,o),
(48,583,o),
(48,367,cs),
(48,153,o),
(195,-13,o),
(425,-13,cs)
);
}
);
userData = {
com.hugojourdan.ColorFlow = {
"0" = 0;
"1" = 0;
"10" = 0;
"11" = 0;
"2" = 0;
"3" = 0;
"4" = 0;
"5" = 0;
"6" = 0;
"7" = 0;
"8" = 0;
"9" = 0;
};
};
width = 850;
},
{
anchors = (
{
name = bottom;
pos = (435,0);
},
{
name = center;
pos = (435,367);
},
{
name = ogonek;
pos = (767,10);
},
{
name = top;
pos = (435,733);
},
{
name = topleft;
pos = (40,733);
},
{
name = topright;
pos = (830,733);
}
);
layerId = m003;
shapes = (
{
closed = 1;
nodes = (
(549,582,o),
(643,506,o),
(643,366,cs),
(643,229,o),
(557,151,o),
(435,151,cs),
(313,151,o),
(227,229,o),
(227,366,cs),
(227,506,o),
(321,582,o),
(435,582,cs)
);
},
{
closed = 1;
nodes = (
(687,-13,o),
(822,155,o),
(822,367,cs),
(822,574,o),
(679,746,o),
(435,746,cs),
(191,746,o),
(48,574,o),
(48,367,cs),
(48,155,o),
(183,-13,o),
(435,-13,cs)
);
}
);
userData = {
com.hugojourdan.ColorFlow = {
"0" = 0;
"1" = 0;
"10" = 0;
"11" = 0;
"2" = 0;
"3" = 0;
"4" = 0;
"5" = 0;
"6" = 0;
"7" = 0;
"8" = 0;
"9" = 0;
};
};
width = 870;
}
);
unicode = 79;
},
{
color = 6;
glyphname = Oslash;
kernLeft = O;
kernRight = O;
lastChange = "2023-06-30 16:12:48 +0000";
layers = (
{
layerId = m01;
shapes = (
{
ref = O;
},
{
closed = 1;
nodes = (
(30,21,l),
(55,-4,l),
(800,712,l),
(775,737,l)
);
}
);
userData = {
com.hugojourdan.ColorFlow = {
"0" = 0;
"1" = 0;
"10" = 0;
"11" = 0;
"2" = 0;
"3" = 0;
"4" = 0;
"5" = 0;
"6" = 0;
"7" = 0;
"8" = 0;
"9" = 0;
};
};
width = 830;
},
{
layerId = m002;
shapes = (
{
ref = O;
},
{
closed = 1;
nodes = (
(30,55,l),
(82,0,l),
(800,678,l),
(748,733,l)
);
}
);
userData = {
com.hugojourdan.ColorFlow = {
"0" = 0;
"1" = 0;
"10" = 0;
"11" = 0;
"2" = 0;
"3" = 0;
"4" = 0;
"5" = 0;
"6" = 0;
"7" = 0;
"8" = 0;
"9" = 0;
};
};
width = 830;
},
{
layerId = m003;
shapes = (
{
pos = (35,0);
ref = O;
},
{
closed = 1;
nodes = (
(30,109,l),
(124,0,l),
(870,624,l),
(776,733,l)
);
}
);
userData = {
com.hugojourdan.ColorFlow = {
"0" = 0;
"1" = 0;
"10" = 0;
"11" = 0;
"2" = 0;
"3" = 0;
"4" = 0;
"5" = 0;
"6" = 0;
"7" = 0;
"8" = 0;
"9" = 0;
};
};
width = 900;
}
);
unicode = 216;
},
{
color = 6;
glyphname = OE;
kernLeft = O;
kernRight = E;
lastChange = "2023-06-30 16:12:48 +0000";
layers = (
{
layerId = m01;
shapes = (
{
closed = 1;
nodes = (
(519,733,l),
(484,742,o),
(449,747,o),
(412,747,cs),
(191,747,o),
(34,587,o),
(34,367,cs),
(34,149,o),
(178,-14,o),
(412,-14,cs),
(452,-14,o),
(487,-10,o),
(522,0,c),
(913,0,l),
(913,39,l),
(585,39,l),
(585,378,l),
(848,378,l),
(848,415,l),
(585,415,l),
(585,695,l),
(913,695,l),
(913,733,l)
);
},
{
closed = 1;
nodes = (
(72,577,o),
(229,710,o),
(412,710,cs),
(457,710,o),
(503,703,o),
(543,679,c),
(543,55,l),
(504,32,o),
(458,25,o),
(412,25,cs),
(215,25,o),
(72,158,o),
(72,366,cs)
);
}
);
userData = {
com.hugojourdan.ColorFlow = {
"0" = 0;
"1" = 0;
"10" = 0;
"11" = 0;
"2" = 0;
"3" = 0;
"4" = 0;
"5" = 0;
"6" = 0;
"7" = 0;
"8" = 0;
"9" = 0;
};
};
width = 960;
},
{
layerId = m002;
shapes = (
{
closed = 1;
nodes = (
(519,733,l),
(486,741,o),
(451,746,o),
(415,746,cs),
(198,746,o),
(38,583,o),
(38,367,cs),
(38,153,o),
(185,-13,o),
(415,-13,cs),
(453,-13,o),
(488,-9,o),
(522,0,c),
(909,0,l),
(909,82,l),
(599,82,l),
(599,354,l),
(847,354,l),
(847,434,l),
(599,434,l),
(599,653,l),
(909,653,l),
(909,733,l)
);
},
{
closed = 1;
nodes = (
(118,551,o),
(260,666,o),
(415,666,cs),
(451,666,o),
(486,660,o),
(519,648,c),
(519,86,l),
(487,75,o),
(452,69,o),
(415,69,cs),
(249,69,o),
(118,190,o),
(118,366,cs)
);
}
);
userData = {
com.hugojourdan.ColorFlow = {
"0" = 0;
"1" = 0;
"10" = 0;
"11" = 0;
"2" = 0;
"3" = 0;
"4" = 0;
"5" = 0;
"6" = 0;
"7" = 0;
"8" = 0;
"9" = 0;
};
};
width = 960;
},
{
layerId = m003;
shapes = (
{
closed = 1;
nodes = (
(541,733,l),
(515,739,o),
(468,746,o),
(425,746,cs),
(181,746,o),
(38,584,o),
(38,367,cs),
(38,145,o),
(173,-13,o),
(425,-13,cs),
(469,-13,o),
(516,-8,o),
(545,0,c),
(949,0,l),
(949,152,l),
(659,152,l),
(659,302,l),
(887,302,l),
(887,444,l),
(659,444,l),
(659,585,l),
(949,585,l),
(949,733,l)
);
},
{
closed = 1;
nodes = (
(216,526,o),
(301,596,o),
(425,596,cs),
(450,596,o),
(458,595,o),
(479,588,c),
(479,146,l),
(460,140,o),
(450,139,o),
(425,139,cs),
(293,139,o),
(216,215,o),
(216,366,cs)
);
}
);
userData = {
com.hugojourdan.ColorFlow = {
"0" = 0;
"1" = 0;
"10" = 0;
"11" = 0;
"2" = 0;
"3" = 0;
"4" = 0;
"5" = 0;
"6" = 0;
"7" = 0;
"8" = 0;
"9" = 0;
};
};
width = 1000;
}
);
unicode = 338;
},
{
color = 6;
glyphname = P;
kernLeft = I;
kernRight = P;
lastChange = "2023-06-30 16:12:48 +0000";
layers = (
{
layerId = m01;
shapes = (
{
closed = 1;
nodes = (
(100,697,l),
(161,698,o),
(229,698,o),
(290,697,cs),
(426,694,o),
(496,617,o),
(496,517,cs),
(496,410,o),
(419,343,o),
(335,340,cs),
(306,339,o),
(286,339,o),
(246,340,c),
(265,303,l),
(286,303,o),
(305,303,o),
(339,304,cs),
(456,308,o),
(530,405,o),
(530,517,cs),
(530,642,o),
(433,731,o),
(294,733,cs),
(216,734,o),
(143,734,o),
(65,733,c),
(65,0,l),
(100,0,l)
);
}
);
userData = {
com.hugojourdan.ColorFlow = {
"0" = 0;
"1" = 0;
"10" = 0;
"11" = 0;
"2" = 0;
"3" = 0;
"4" = 0;
"5" = 0;
"6" = 0;
"7" = 0;
"8" = 0;
"9" = 0;
};
};
width = 560;
},
{
layerId = m002;
shapes = (
{
closed = 1;
nodes = (
(147,650,l),
(198,651,o),
(248,651,o),
(299,650,cs),
(406,648,o),
(462,592,o),
(462,509,cs),
(462,413,o),
(408,372,o),
(313,369,cs),
(285,368,o),
(256,368,o),
(228,369,c),
(262,287,l),
(280,287,o),
(289,287,o),
(308,287,c),
(475,287,o),
(546,384,o),
(546,509,cs),
(546,646,o),
(441,731,o),
(308,733,cs),
(228,734,o),
(147,734,o),
(67,733,c),
(67,0,l),
(147,0,l)
);
}
);
userData = {
com.hugojourdan.ColorFlow = {
"0" = 0;
"1" = 0;
"10" = 0;
"11" = 0;
"2" = 0;
"3" = 0;
"4" = 0;
"5" = 0;
"6" = 0;
"7" = 0;
"8" = 0;
"9" = 0;
};
};
width = 580;
},
{
layerId = m003;
shapes = (
{
closed = 1;
nodes = (
(232,591,l),
(266,591,o),
(314,591,o),
(348,590,cs),
(422,589,o),
(462,559,o),
(462,499,cs),
(462,438,o),
(427,401,o),
(361,399,cs),
(328,398,o),
(311,398,o),
(281,400,c),
(316,248,l),
(331,247,o),
(340,247,o),
(358,247,cs),
(575,247,o),
(646,359,o),
(646,499,cs),
(646,641,o),
(523,731,o),
(359,733,cs),
(262,734,o),
(162,734,o),
(67,733,c),
(67,0,l),
(232,0,l)
);
}
);
userData = {
com.hugojourdan.ColorFlow = {
"0" = 0;
"1" = 0;
"10" = 0;
"11" = 0;
"2" = 0;
"3" = 0;
"4" = 0;
"5" = 0;
"6" = 0;
"7" = 0;
"8" = 0;
"9" = 0;
};
};
width = 680;
}
);
unicode = 80;
},
{
color = 6;
glyphname = Thorn;
kernLeft = I;
kernRight = D;
lastChange = "2023-08-12 06:16:24 +0000";
layers = (
{
layerId = m01;
shapes = (
{
closed = 1;
nodes = (
(103,541,l),
(164,543,o),
(228,543,o),
(289,542,cs),
(413,539,o),
(489,469,o),
(489,369,cs),
(489,254,o),
(414,201,o),
(304,198,cs),
(285,197,o),
(265,197,o),
(246,197,c),
(263,155,l),
(275,155,o),
(286,155,o),
(298,155,cs),
(464,155,o),
(529,244,o),
(529,369,cs),
(529,504,o),
(431,583,o),
(298,585,cs),
(235,586,o),
(167,586,o),
(103,586,c),
(103,733,l),
(64,733,l),
(64,0,l),
(103,0,l)
);
}
);
userData = {
com.hugojourdan.ColorFlow = {
"0" = 0;
"1" = 0;
"10" = 0;
"11" = 0;
"2" = 0;
"3" = 0;
"4" = 0;
"5" = 0;
"6" = 0;
"7" = 0;
"8" = 0;
"9" = 0;
};
};
width = 570;
},
{
layerId = m002;
shapes = (
{
closed = 1;
nodes = (
(142,512,l),
(193,513,o),
(243,513,o),
(294,512,cs),
(401,510,o),
(463,452,o),
(463,369,cs),
(463,273,o),
(403,230,o),
(308,227,cs),
(280,226,o),
(251,226,o),
(223,227,c),
(257,147,l),
(272,147,o),
(288,147,o),
(303,147,cs),
(470,147,o),
(541,244,o),
(541,369,cs),
(541,506,o),
(436,591,o),
(303,593,cs),
(250,594,o),
(196,594,o),
(142,594,c),
(142,733,l),
(62,733,l),
(62,0,l),
(142,0,l)
);
}
);
userData = {
com.hugojourdan.ColorFlow = {
"0" = 0;
"1" = 0;
"10" = 0;
"11" = 0;
"2" = 0;
"3" = 0;
"4" = 0;
"5" = 0;
"6" = 0;
"7" = 0;
"8" = 0;
"9" = 0;
};
};
width = 580;
},
{
layerId = m003;
shapes = (
{
closed = 1;
nodes = (
(227,461,l),
(261,461,o),
(309,461,o),
(343,460,cs),
(407,459,o),
(447,429,o),
(447,369,cs),
(447,308,o),
(412,271,o),
(356,269,cs),
(323,268,o),
(306,268,o),
(276,270,c),
(311,117,l),
(325,117,o),
(339,117,o),
(353,117,c),
(555,117,o),
(621,229,o),
(621,369,cs),
(621,511,o),
(508,600,o),
(354,603,cs),
(307,604,o),
(282,604,o),
(227,603,c),
(227,733,l),
(62,733,l),
(62,0,l),
(227,0,l)
);
}
);
userData = {
com.hugojourdan.ColorFlow = {
"0" = 0;
"1" = 0;
"10" = 0;
"11" = 0;
"2" = 0;
"3" = 0;
"4" = 0;
"5" = 0;
"6" = 0;
"7" = 0;
"8" = 0;
"9" = 0;
};
};
width = 660;
}
);
unicode = 222;
},
{
color = 6;
glyphname = Q;
kernLeft = O;
kernRight = O;
lastChange = "2023-06-30 16:12:48 +0000";
layers = (
{
layerId = m01;
shapes = (
{
closed = 1;
nodes = (
(269,41,l),
(498,-123,l),
(562,-123,l),
(465,-52,l),
(375,7,l)
);
},
{
ref = O;
}
);
userData = {
com.hugojourdan.ColorFlow = {
"0" = 0;
"1" = 0;
"10" = 0;
"11" = 0;
"2" = 0;
"3" = 0;
"4" = 0;
"5" = 0;
"6" = 0;
"7" = 0;
"8" = 0;
"9" = 0;
};
};
width = 850;
},
{
layerId = m002;
shapes = (
{
closed = 1;
nodes = (
(487,-120,l),
(612,-120,l),
(492,-35,l),
(364,43,l),
(260,43,l)
);
},
{
ref = O;
}
);
userData = {
com.hugojourdan.ColorFlow = {
"0" = 0;
"1" = 0;
"10" = 0;
"11" = 0;
"2" = 0;
"3" = 0;
"4" = 0;
"5" = 0;
"6" = 0;
"7" = 0;
"8" = 0;
"9" = 0;
};
};
width = 850;
},
{
layerId = m003;
shapes = (
{
closed = 1;
nodes = (
(448,-120,l),
(671,-120,l),
(579,-48,l),
(430,43,l),
(231,43,l)
);
},
{
ref = O;
}
);
userData = {
com.hugojourdan.ColorFlow = {
"0" = 0;
"1" = 0;
"10" = 0;
"11" = 0;
"2" = 0;
"3" = 0;
"4" = 0;
"5" = 0;
"6" = 0;
"7" = 0;
"8" = 0;
"9" = 0;
};
};
width = 870;
}
);
unicode = 81;
},
{
color = 6;
glyphname = R;
kernLeft = I;
kernRight = R;
lastChange = "2023-07-02 16:43:37 +0000";
layers = (
{
anchors = (
{
name = bottom;
pos = (297,0);
},
{
name = top;
pos = (277,733);
}
);
layerId = m01;
shapes = (
{
closed = 1;
nodes = (
(109,695,l),
(168,696,o),
(239,696,o),
(300,696,cs),
(418,696,o),
(504,623,o),
(504,519,cs),
(504,423,o),
(433,366,o),
(315,364,cs),
(297,364,o),
(284,364,o),
(265,364,c),
(498,0,l),
(542,0,l),
(324,332,l),
(465,333,o),
(539,415,o),
(539,519,cs),
(539,657,o),
(425,731,o),
(309,733,cs),
(230,734,o),
(153,734,o),
(74,733,c),
(74,0,l),
(109,0,l)
);
}
);
userData = {
com.hugojourdan.ColorFlow = {
"0" = 0;
"1" = 0;
"10" = 0;
"11" = 0;
"2" = 0;
"3" = 0;
"4" = 0;
"5" = 0;
"6" = 0;
"7" = 0;
"8" = 0;
"9" = 0;
};
};
width = 593;
},
{
anchors = (
{
name = bottom;
pos = (302,0);
},
{
name = top;
pos = (282,733);
}
);
layerId = m002;
shapes = (
{
closed = 1;
nodes = (
(152,650,l),
(202,651,o),
(254,651,o),
(305,650,cs),
(402,648,o),
(467,594,o),
(467,511,cs),
(467,418,o),
(414,387,o),
(319,384,cs),
(290,383,o),
(260,383,o),
(230,384,c),
(474,0,l),
(571,0,l),
(373,309,l),
(495,327,o),
(551,405,o),
(551,511,cs),
(551,648,o),
(446,731,o),
(314,733,cs),
(233,734,o),
(153,734,o),
(72,733,c),
(72,0,l),
(152,0,l)
);
}
);
userData = {
com.hugojourdan.ColorFlow = {
"0" = 0;
"1" = 0;
"10" = 0;
"11" = 0;
"2" = 0;
"3" = 0;
"4" = 0;
"5" = 0;
"6" = 0;
"7" = 0;
"8" = 0;
"9" = 0;
};
};
width = 603;
},
{
anchors = (
{
name = bottom;
pos = (367,0);
},
{
name = top;
pos = (347,733);
}
);
layerId = m003;
shapes = (
{
closed = 1;
nodes = (
(237,591,l),
(271,591,o),
(320,591,o),
(354,590,cs),
(419,589,o),
(467,543,o),
(467,495,cs),
(467,438,o),
(427,396,o),
(367,394,cs),
(335,393,o),
(312,393,o),
(275,394,c),
(512,0,l),
(701,0,l),
(512,285,l),
(592,304,o),
(651,384,o),
(651,495,cs),
(651,627,o),
(527,731,o),
(365,733,cs),
(267,734,o),
(169,734,o),
(72,733,c),
(72,0,l),
(237,0,l)
);
}
);
userData = {
com.hugojourdan.ColorFlow = {
"0" = 0;
"1" = 0;
"10" = 0;
"11" = 0;
"2" = 0;
"3" = 0;
"4" = 0;
"5" = 0;
"6" = 0;
"7" = 0;
"8" = 0;
"9" = 0;
};
};
width = 730;
}
);
unicode = 82;
},
{
color = 6;
glyphname = S;
kernLeft = S;
kernRight = S;
lastChange = "2023-08-12 05:13:22 +0000";
layers = (
{
anchors = (
{
name = bottom;
pos = (270,0);
},
{
name = top;
pos = (270,733);
}
);
layerId = m01;
shapes = (
{
closed = 1;
nodes = (
(424,-14,o),
(498,67,o),
(498,172,cs),
(498,269,o),
(442,339,o),
(297,390,cs),
(169,435,o),
(99,486,o),
(99,568,cs),
(99,660,o),
(174,711,o),
(262,711,cs),
(336,711,o),
(398,681,o),
(438,621,c),
(470,639,l),
(420,716,o),
(355,747,o),
(259,747,cs),
(138,747,o),
(63,666,o),
(63,570,cs),
(63,474,o),
(125,415,o),
(264,366,cs),
(401,318,o),
(461,263,o),
(461,176,cs),
(461,76,o),
(392,24,o),
(279,24,cs),
(181,24,o),
(107,78,o),
(81,165,c),
(46,153,l),
(74,53,o),
(156,-14,o),
(279,-14,cs)
);
}
);
userData = {
com.hugojourdan.ColorFlow = {
"0" = 0;
"1" = 0;
"10" = 0;
"11" = 0;
"2" = 0;
"3" = 0;
"4" = 0;
"5" = 0;
"6" = 0;
"7" = 0;
"8" = 0;
"9" = 0;
};
};
width = 540;
},
{
anchors = (
{
name = bottom;
pos = (280,0);
},
{
name = top;
pos = (280,733);
}
);
layerId = m002;
shapes = (
{
closed = 1;
nodes = (
(435,-13,o),
(516,76,o),
(516,182,cs),
(516,281,o),
(455,359,o),
(313,412,cs),
(210,450,o),
(146,492,o),
(146,557,cs),
(146,623,o),
(201,665,o),
(273,665,cs),
(342,665,o),
(391,637,o),
(426,574,c),
(497,618,l),
(445,708,o),
(372,746,o),
(270,746,cs),
(147,746,o),
(64,658,o),
(64,559,cs),
(64,453,o),
(134,394,o),
(268,345,cs),
(381,304,o),
(433,257,o),
(433,186,cs),
(433,106,o),
(383,72,o),
(289,72,cs),
(198,72,o),
(144,123,o),
(126,211,c),
(45,177,l),
(68,67,o),
(158,-13,o),
(289,-13,cs)
);
}
);
userData = {
com.hugojourdan.ColorFlow = {
"0" = 0;
"1" = 0;
"10" = 0;
"11" = 0;
"2" = 0;
"3" = 0;
"4" = 0;
"5" = 0;
"6" = 0;
"7" = 0;
"8" = 0;
"9" = 0;
};
};
width = 560;
},
{
anchors = (
{
name = bottom;
pos = (330,0);
},
{
name = top;
pos = (330,733);
}
);
layerId = m003;
shapes = (
{
closed = 1;
nodes = (
(513,-13,o),
(616,68,o),
(616,182,cs),
(616,290,o),
(529,373,o),
(380,432,cs),
(296,465,o),
(256,503,o),
(256,546,cs),
(256,583,o),
(293,607,o),
(348,604,cs),
(410,601,o),
(446,567,o),
(470,526,c),
(598,606,l),
(556,684,o),
(472,746,o),
(345,746,cs),
(180,746,o),
(84,665,o),
(84,551,cs),
(84,445,o),
(138,367,o),
(301,305,cs),
(399,268,o),
(433,231,o),
(433,186,cs),
(433,152,o),
(397,132,o),
(336,132,cs),
(272,132,o),
(215,169,o),
(189,228,c),
(45,166,l),
(70,74,o),
(176,-13,o),
(336,-13,cs)
);
}
);
userData = {
com.hugojourdan.ColorFlow = {
"0" = 0;
"1" = 0;
"10" = 0;
"11" = 0;
"2" = 0;
"3" = 0;
"4" = 0;
"5" = 0;
"6" = 0;
"7" = 0;
"8" = 0;
"9" = 0;
};
};
width = 660;
}
);
unicode = 83;
},
{
glyphname = Saltillo;
lastChange = "2023-08-12 05:10:53 +0000";
layers = (
{
layerId = m01;
shapes = (
{
closed = 1;
nodes = (
(120,733,l),
(80,733,l),
(80,494,l),
(88,204,l),
(112,204,l),
(120,494,l)
);
}
);
userData = {
com.hugojourdan.ColorFlow = {
"0" = 0;
"1" = 0;
"10" = 0;
"11" = 0;
"2" = 0;
"3" = 0;
"4" = 0;
"5" = 0;
"6" = 0;
"7" = 0;
"8" = 0;
"9" = 0;
};
};
width = 200;
},
{
layerId = m002;
shapes = (
{
closed = 1;
nodes = (
(165,733,l),
(85,733,l),
(85,494,l),
(95,204,l),
(155,204,l),
(165,494,l)
);
}
);
userData = {
com.hugojourdan.ColorFlow = {
"0" = 0;
"1" = 0;
"10" = 0;
"11" = 0;
"2" = 0;
"3" = 0;
"4" = 0;
"5" = 0;
"6" = 0;
"7" = 0;
"8" = 0;
"9" = 0;
};
};
width = 250;
},
{
layerId = m003;
shapes = (
{
closed = 1;
nodes = (
(250,733,l),
(70,733,l),
(70,494,l),
(90,204,l),
(230,204,l),
(250,494,l)
);
}
);
userData = {
com.hugojourdan.ColorFlow = {
"0" = 0;
"1" = 0;
"10" = 0;
"11" = 0;
"2" = 0;
"3" = 0;
"4" = 0;
"5" = 0;
"6" = 0;
"7" = 0;
"8" = 0;
"9" = 0;
};
};
width = 320;
}
);
unicode = 42891;
},
{
color = 6;
glyphname = Germandbls;
kernLeft = I;
kernRight = B;
lastChange = "2023-06-30 16:12:48 +0000";
layers = (
{
layerId = m01;
shapes = (
{
closed = 1;
nodes = (
(449,-19,o),
(523,60,o),
(523,189,cs),
(523,286,o),
(463,355,o),
(361,387,c),
(452,412,o),
(497,484,o),
(497,560,cs),
(497,666,o),
(411,734,o),
(285,741,cs),
(233,744,o),
(134,740,o),
(70,733,c),
(70,0,l),
(103,0,l),
(103,701,l),
(147,707,o),
(245,710,o),
(285,707,cs),
(394,700,o),
(462,639,o),
(462,560,cs),
(462,474,o),
(399,415,o),
(297,410,cs),
(287,409,o),
(276,408,o),
(266,408,c),
(266,368,l),
(276,367,o),
(287,367,o),
(297,366,cs),
(393,360,o),
(489,296,o),
(489,194,cs),
(489,71,o),
(432,15,o),
(338,15,cs),
(297,15,o),
(252,33,o),
(214,57,c),
(199,23,l),
(241,-4,o),
(283,-17,o),
(341,-18,cs)
);
}
);
userData = {
com.hugojourdan.ColorFlow = {
"0" = 0;
"1" = 0;
"10" = 0;
"11" = 0;
"2" = 0;
"3" = 0;
"4" = 0;
"5" = 0;
"6" = 0;
"7" = 0;
"8" = 0;
"9" = 0;
};
};
width = 590;
},
{
layerId = m002;
shapes = (
{
closed = 1;
nodes = (
(474,-18,o),
(555,69,o),
(555,199,cs),
(555,283,o),
(512,350,o),
(448,388,c),
(500,425,o),
(530,484,o),
(530,549,cs),
(530,658,o),
(437,743,o),
(310,743,cs),
(236,743,o),
(142,742,o),
(68,733,c),
(68,0,l),
(141,0,l),
(141,663,l),
(191,667,o),
(260,667,o),
(310,667,cs),
(393,667,o),
(455,612,o),
(455,549,cs),
(455,479,o),
(407,432,o),
(320,427,cs),
(304,426,o),
(288,425,o),
(272,425,c),
(272,348,l),
(288,348,o),
(304,347,o),
(320,346,cs),
(403,341,o),
(480,290,o),
(480,203,cs),
(480,109,o),
(437,59,o),
(360,59,cs),
(318,59,o),
(270,75,o),
(235,104,c),
(204,35,l),
(251,1,o),
(298,-16,o),
(363,-17,cs)
);
}
);
userData = {
com.hugojourdan.ColorFlow = {
"0" = 0;
"1" = 0;
"10" = 0;
"11" = 0;
"2" = 0;
"3" = 0;
"4" = 0;
"5" = 0;
"6" = 0;
"7" = 0;
"8" = 0;
"9" = 0;
};
};
width = 620;
},
{
layerId = m003;
shapes = (
{
closed = 1;
nodes = (
(578,-19,o),
(685,52,o),
(685,209,cs),
(685,296,o),
(629,357,o),
(555,387,c),
(618,398,o),
(660,459,o),
(660,529,cs),
(660,650,o),
(552,743,o),
(390,743,cs),
(299,743,o),
(140,738,o),
(68,726,c),
(68,0,l),
(233,0,l),
(233,603,l),
(273,608,o),
(351,609,o),
(390,607,cs),
(441,604,o),
(485,573,o),
(485,534,cs),
(485,488,o),
(453,460,o),
(397,457,cs),
(381,456,o),
(365,455,o),
(352,455,c),
(352,318,l),
(365,318,o),
(381,317,o),
(397,316,cs),
(453,313,o),
(510,275,o),
(510,213,cs),
(510,155,o),
(479,129,o),
(440,129,cs),
(401,129,o),
(370,136,o),
(325,160,c),
(273,25,l),
(314,-4,o),
(378,-16,o),
(442,-17,cs)
);
}
);
userData = {
com.hugojourdan.ColorFlow = {
"0" = 0;
"1" = 0;
"10" = 0;
"11" = 0;
"2" = 0;
"3" = 0;
"4" = 0;
"5" = 0;
"6" = 0;
"7" = 0;
"8" = 0;
"9" = 0;
};
};
width = 750;
}
);
unicode = 7838;
},
{
color = 6;
glyphname = T;
kernLeft = T;
kernRight = T;
lastChange = "2023-07-01 16:05:24 +0000";
layers = (
{
anchors = (
{
name = bottom;
pos = (297,0);
},
{
name = center;
pos = (295,367);
},
{
name = top;
pos = (295,733);
}
);
layerId = m01;
shapes = (
{
closed = 1;
nodes = (
(32,733,l),
(32,696,l),
(277,696,l),
(277,0,l),
(313,0,l),
(313,696,l),
(558,696,l),
(558,733,l)
);
}
);
userData = {
com.hugojourdan.ColorFlow = {
"0" = 0;
"1" = 0;
"10" = 0;
"11" = 0;
"2" = 0;
"3" = 0;
"4" = 0;
"5" = 0;
"6" = 0;
"7" = 0;
"8" = 0;
"9" = 0;
};
};
width = 590;
},
{
anchors = (
{
name = bottom;
pos = (300,0);
},
{
name = center;
pos = (300,367);
},
{
name = top;
pos = (300,733);
}
);
layerId = m002;
shapes = (
{
closed = 1;
nodes = (
(31,733,l),
(31,649,l),
(258,649,l),
(258,0,l),
(342,0,l),
(342,649,l),
(569,649,l),
(569,733,l)
);
}
);
userData = {
com.hugojourdan.ColorFlow = {
"0" = 0;
"1" = 0;
"10" = 0;
"11" = 0;
"2" = 0;
"3" = 0;
"4" = 0;
"5" = 0;
"6" = 0;
"7" = 0;
"8" = 0;
"9" = 0;
};
};
width = 600;
},
{
anchors = (
{
name = bottom;
pos = (330,0);
},
{
name = center;
pos = (330,367);
},
{
name = top;
pos = (330,733);
}
);
layerId = m003;
shapes = (
{
closed = 1;
nodes = (
(31,733,l),
(31,579,l),
(238,579,l),
(238,0,l),
(422,0,l),
(422,579,l),
(629,579,l),
(629,733,l)
);
}
);
userData = {
com.hugojourdan.ColorFlow = {
"0" = 0;
"1" = 0;
"10" = 0;
"11" = 0;
"2" = 0;
"3" = 0;
"4" = 0;
"5" = 0;
"6" = 0;
"7" = 0;
"8" = 0;
"9" = 0;
};
};
width = 660;
}
);
unicode = 84;
},
{
color = 6;
glyphname = U;
kernLeft = U;
kernRight = U;
lastChange = "2023-07-01 17:24:45 +0000";
layers = (
{
anchors = (
{
name = bottom;
pos = (335,0);
},
{
name = ogonek;
pos = (416,10);
},
{
name = top;
pos = (335,733);
},
{
name = topright;
pos = (630,733);
}
);
layerId = m01;
shapes = (
{
closed = 1;
nodes = (
(70,535,o),
(70,495,o),
(71,297,cs),
(72,76,o),
(166,-16,o),
(335,-16,cs),
(504,-16,o),
(598,76,o),
(599,297,cs),
(600,495,o),
(600,535,o),
(599,733,c),
(563,733,l),
(564,535,o),
(564,495,o),
(563,296,cs),
(562,113,o),
(496,21,o),
(335,21,cs),
(174,21,o),
(108,113,o),
(107,296,cs),
(106,495,o),
(106,535,o),
(107,733,c),
(71,733,l)
);
}
);
userData = {
com.hugojourdan.ColorFlow = {
"0" = 0;
"1" = 0;
"10" = 0;
"11" = 0;
"2" = 0;
"3" = 0;
"4" = 0;
"5" = 0;
"6" = 0;
"7" = 0;
"8" = 0;
"9" = 0;
};
};
width = 660;
},
{
anchors = (
{
name = bottom;
pos = (345,0);
},
{
name = ogonek;
pos = (451,10);
},
{
name = top;
pos = (345,733);
},
{
name = topright;
pos = (645,733);
}
);
layerId = m002;
shapes = (
{
closed = 1;
nodes = (
(73,529,o),
(73,494,o),
(74,300,cs),
(75,82,o),
(172,-15,o),
(345,-15,cs),
(518,-15,o),
(615,82,o),
(616,300,cs),
(617,494,o),
(617,529,o),
(616,733,c),
(536,733,l),
(537,529,o),
(537,494,o),
(536,300,cs),
(535,145,o),
(475,64,o),
(345,64,cs),
(215,64,o),
(155,145,o),
(154,300,cs),
(153,494,o),
(153,529,o),
(154,733,c),
(74,733,l)
);
}
);
userData = {
com.hugojourdan.ColorFlow = {
"0" = 0;
"1" = 0;
"10" = 0;
"11" = 0;
"2" = 0;
"3" = 0;
"4" = 0;
"5" = 0;
"6" = 0;
"7" = 0;
"8" = 0;
"9" = 0;
};
};
width = 690;
},
{
anchors = (
{
name = bottom;
pos = (395,0);
},
{
name = ogonek;
pos = (501,10);
},
{
name = top;
pos = (395,733);
},
{
name = topright;
pos = (695,733);
}
);
layerId = m003;
shapes = (
{
closed = 1;
nodes = (
(73,529,o),
(73,494,o),
(74,300,cs),
(75,95,o),
(182,-15,o),
(390,-15,cs),
(598,-15,o),
(705,95,o),
(706,300,cs),
(707,494,o),
(707,529,o),
(706,733,c),
(526,733,l),
(527,529,o),
(528,494,o),
(526,300,cs),
(525,192,o),
(470,144,o),
(390,144,cs),
(310,144,o),
(255,192,o),
(254,300,cs),
(252,494,o),
(253,529,o),
(254,733,c),
(74,733,l)
);
}
);
userData = {
com.hugojourdan.ColorFlow = {
"0" = 0;
"1" = 0;
"10" = 0;
"11" = 0;
"2" = 0;
"3" = 0;
"4" = 0;
"5" = 0;
"6" = 0;
"7" = 0;
"8" = 0;
"9" = 0;
};
};
width = 780;
}
);
unicode = 85;
},
{
color = 6;
glyphname = V;
kernLeft = V;
kernRight = V;
lastChange = "2023-06-30 16:12:48 +0000";
layers = (
{
layerId = m01;
shapes = (
{
closed = 1;
nodes = (
(298,0,l),
(332,0,l),
(597,733,l),
(561,733,l),
(346,135,l),
(308,14,l),
(322,14,l),
(284,135,l),
(69,733,l),
(33,733,l)
);
}
);
userData = {
com.hugojourdan.ColorFlow = {
"0" = 0;
"1" = 0;
"10" = 0;
"11" = 0;
"2" = 0;
"3" = 0;
"4" = 0;
"5" = 0;
"6" = 0;
"7" = 0;
"8" = 0;
"9" = 0;
};
};
width = 630;
},
{
layerId = m002;
shapes = (
{
closed = 1;
nodes = (
(288,0,l),
(392,0,l),
(646,733,l),
(556,733,l),
(365,154,l),
(334,59,l),
(346,59,l),
(315,154,l),
(124,733,l),
(34,733,l)
);
}
);
userData = {
com.hugojourdan.ColorFlow = {
"0" = 0;
"1" = 0;
"10" = 0;
"11" = 0;
"2" = 0;
"3" = 0;
"4" = 0;
"5" = 0;
"6" = 0;
"7" = 0;
"8" = 0;
"9" = 0;
};
};
width = 680;
},
{
layerId = m003;
shapes = (
{
closed = 1;
nodes = (
(281,0,l),
(499,0,l),
(747,733,l),
(563,733,l),
(417,254,l),
(366,59,l),
(414,59,l),
(363,254,l),
(217,733,l),
(33,733,l)
);
}
);
userData = {
com.hugojourdan.ColorFlow = {
"0" = 0;
"1" = 0;
"10" = 0;
"11" = 0;
"2" = 0;
"3" = 0;
"4" = 0;
"5" = 0;
"6" = 0;
"7" = 0;
"8" = 0;
"9" = 0;
};
};
width = 780;
}
);
unicode = 86;
},
{
color = 6;
glyphname = W;
kernLeft = W;
kernRight = W;
lastChange = "2023-06-30 16:12:48 +0000";
layers = (
{
anchors = (
{
name = bottom;
pos = (430,0);
},
{
name = top;
pos = (430,733);
}
);
layerId = m01;
shapes = (
{
closed = 1;
nodes = (
(230,0,l),
(273,0,l),
(412,556,l),
(437,682,l),
(430,682,l),
(456,556,l),
(587,0,l),
(630,0,l),
(832,733,l),
(793,733,l),
(628,123,l),
(606,35,l),
(612,35,l),
(593,124,l),
(453,733,l),
(416,733,l),
(269,123,l),
(247,33,l),
(253,33,l),
(232,124,l),
(67,733,l),
(28,733,l)
);
}
);
userData = {
com.hugojourdan.ColorFlow = {
"0" = 0;
"1" = 0;
"10" = 0;
"11" = 0;
"2" = 0;
"3" = 0;
"4" = 0;
"5" = 0;
"6" = 0;
"7" = 0;
"8" = 0;
"9" = 0;
};
};
width = 860;
},
{
anchors = (
{
name = bottom;
pos = (470,0);
},
{
name = top;
pos = (470,733);
}
);
layerId = m002;
shapes = (
{
closed = 1;
nodes = (
(222,0,l),
(324,0,l),
(461,541,l),
(483,639,l),
(464,639,l),
(486,541,l),
(616,0,l),
(718,0,l),
(910,733,l),
(819,733,l),
(679,141,l),
(659,45,l),
(676,45,l),
(658,141,l),
(520,733,l),
(429,733,l),
(284,141,l),
(264,44,l),
(279,44,l),
(261,141,l),
(121,733,l),
(30,733,l)
);
}
);
userData = {
com.hugojourdan.ColorFlow = {
"0" = 0;
"1" = 0;
"10" = 0;
"11" = 0;
"2" = 0;
"3" = 0;
"4" = 0;
"5" = 0;
"6" = 0;
"7" = 0;
"8" = 0;
"9" = 0;
};
};
width = 940;
},
{
anchors = (
{
name = bottom;
pos = (520,0);
},
{
name = top;
pos = (520,733);
}
);
layerId = m003;
shapes = (
{
closed = 1;
nodes = (
(214,0,l),
(422,0,l),
(500,341,l),
(542,599,l),
(505,599,l),
(547,341,l),
(617,0,l),
(826,0,l),
(1010,733,l),
(822,733,l),
(744,341,l),
(702,95,l),
(728,95,l),
(694,341,l),
(619,733,l),
(430,733,l),
(348,341,l),
(312,94,l),
(338,94,l),
(296,341,l),
(198,733,l),
(30,733,l)
);
}
);
userData = {
com.hugojourdan.ColorFlow = {
"0" = 0;
"1" = 0;
"10" = 0;
"11" = 0;
"2" = 0;
"3" = 0;
"4" = 0;
"5" = 0;
"6" = 0;
"7" = 0;
"8" = 0;
"9" = 0;
};
};
width = 1040;
}
);
unicode = 87;
},
{
color = 6;
glyphname = X;
kernLeft = X;
kernRight = X;
lastChange = "2023-06-30 16:12:48 +0000";
layers = (
{
layerId = m01;
shapes = (
{
closed = 1;
nodes = (
(266,367,l),
(34,0,l),
(74,0,l),
(290,341,l),
(506,0,l),
(546,0,l),
(314,367,l),
(533,733,l),
(495,733,l),
(290,391,l),
(85,733,l),
(47,733,l)
);
}
);
userData = {
com.hugojourdan.ColorFlow = {
"0" = 0;
"1" = 0;
"10" = 0;
"11" = 0;
"2" = 0;
"3" = 0;
"4" = 0;
"5" = 0;
"6" = 0;
"7" = 0;
"8" = 0;
"9" = 0;
};
};
width = 580;
},
{
layerId = m002;
shapes = (
{
closed = 1;
nodes = (
(251,368,l),
(27,0,l),
(119,0,l),
(300,308,l),
(481,0,l),
(573,0,l),
(349,368,l),
(565,733,l),
(477,733,l),
(300,421,l),
(123,733,l),
(35,733,l)
);
}
);
userData = {
com.hugojourdan.ColorFlow = {
"0" = 0;
"1" = 0;
"10" = 0;
"11" = 0;
"2" = 0;
"3" = 0;
"4" = 0;
"5" = 0;
"6" = 0;
"7" = 0;
"8" = 0;
"9" = 0;
};
};
width = 600;
},
{
layerId = m003;
shapes = (
{
closed = 1;
nodes = (
(251,368,l),
(27,0,l),
(222,0,l),
(360,235,l),
(498,0,l),
(693,0,l),
(469,368,l),
(685,733,l),
(494,733,l),
(360,498,l),
(226,733,l),
(35,733,l)
);
}
);
userData = {
com.hugojourdan.ColorFlow = {
"0" = 0;
"1" = 0;
"10" = 0;
"11" = 0;
"2" = 0;
"3" = 0;
"4" = 0;
"5" = 0;
"6" = 0;
"7" = 0;
"8" = 0;
"9" = 0;
};
};
width = 720;
}
);
unicode = 88;
},
{
color = 6;
glyphname = Y;
kernLeft = Y;
kernRight = Y;
lastChange = "2023-06-30 16:12:48 +0000";
layers = (
{
anchors = (
{
name = bottom;
pos = (275,0);
},
{
name = top;
pos = (275,733);
},
{
name = topleft;
pos = (20,733);
}
);
layerId = m01;
shapes = (
{
closed = 1;
nodes = (
(259,270,l),
(259,0,l),
(291,0,l),
(291,270,l),
(522,733,l),
(486,733,l),
(324,410,l),
(268,288,l),
(282,288,l),
(226,410,l),
(64,733,l),
(28,733,l)
);
}
);
userData = {
com.hugojourdan.ColorFlow = {
"0" = 0;
"1" = 0;
"10" = 0;
"11" = 0;
"2" = 0;
"3" = 0;
"4" = 0;
"5" = 0;
"6" = 0;
"7" = 0;
"8" = 0;
"9" = 0;
};
};
width = 550;
},
{
anchors = (
{
name = bottom;
pos = (295,0);
},
{
name = top;
pos = (295,733);
},
{
name = topleft;
pos = (20,733);
}
);
layerId = m002;
shapes = (
{
closed = 1;
nodes = (
(255,295,l),
(255,0,l),
(335,0,l),
(335,295,l),
(560,733,l),
(474,733,l),
(317,416,l),
(277,324,l),
(313,324,l),
(273,416,l),
(116,733,l),
(30,733,l)
);
}
);
userData = {
com.hugojourdan.ColorFlow = {
"0" = 0;
"1" = 0;
"10" = 0;
"11" = 0;
"2" = 0;
"3" = 0;
"4" = 0;
"5" = 0;
"6" = 0;
"7" = 0;
"8" = 0;
"9" = 0;
};
};
width = 590;
},
{
anchors = (
{
name = bottom;
pos = (355,0);
},
{
name = top;
pos = (355,733);
},
{
name = topleft;
pos = (80,733);
}
);
layerId = m003;
shapes = (
{
closed = 1;
nodes = (
(270,256,l),
(270,0,l),
(440,0,l),
(440,256,l),
(680,733,l),
(505,733,l),
(394,489,l),
(321,334,l),
(389,334,l),
(326,489,l),
(205,733,l),
(30,733,l)
);
}
);
userData = {
com.hugojourdan.ColorFlow = {
"0" = 0;
"1" = 0;
"10" = 0;
"11" = 0;
"2" = 0;
"3" = 0;
"4" = 0;
"5" = 0;
"6" = 0;
"7" = 0;
"8" = 0;
"9" = 0;
};
};
width = 710;
}
);
unicode = 89;
},
{
color = 6;
glyphname = Z;
kernLeft = I;
kernRight = I;
lastChange = "2023-07-01 16:06:17 +0000";
layers = (
{
anchors = (
{
name = bottom;
pos = (285,0);
},
{
name = center;
pos = (285,367);
},
{
name = top;
pos = (285,733);
}
);
layerId = m01;
shapes = (
{
closed = 1;
nodes = (
(68,697,l),
(464,697,l),
(68,39,l),
(68,0,l),
(502,0,l),
(502,36,l),
(106,36,l),
(502,695,l),
(502,733,l),
(68,733,l)
);
}
);
userData = {
com.hugojourdan.ColorFlow = {
"0" = 0;
"1" = 0;
"10" = 0;
"11" = 0;
"2" = 0;
"3" = 0;
"4" = 0;
"5" = 0;
"6" = 0;
"7" = 0;
"8" = 0;
"9" = 0;
};
};
width = 570;
},
{
anchors = (
{
name = bottom;
pos = (295,0);
},
{
name = center;
pos = (295,367);
},
{
name = top;
pos = (295,733);
}
);
layerId = m002;
shapes = (
{
closed = 1;
nodes = (
(70,653,l),
(424,653,l),
(70,82,l),
(70,0,l),
(520,0,l),
(520,82,l),
(159,82,l),
(520,653,l),
(520,733,l),
(70,733,l)
);
}
);
userData = {
com.hugojourdan.ColorFlow = {
"0" = 0;
"1" = 0;
"10" = 0;
"11" = 0;
"2" = 0;
"3" = 0;
"4" = 0;
"5" = 0;
"6" = 0;
"7" = 0;
"8" = 0;
"9" = 0;
};
};
width = 590;
},
{
anchors = (
{
name = bottom;
pos = (325,0);
},
{
name = center;
pos = (325,367);
},
{
name = top;
pos = (325,733);
}
);
layerId = m003;
shapes = (
{
closed = 1;
nodes = (
(70,587,l),
(388,587,l),
(70,140,l),
(70,0,l),
(580,0,l),
(580,152,l),
(263,152,l),
(580,605,l),
(580,733,l),
(70,733,l)
);
}
);
userData = {
com.hugojourdan.ColorFlow = {
"0" = 0;
"1" = 0;
"10" = 0;
"11" = 0;
"2" = 0;
"3" = 0;
"4" = 0;
"5" = 0;
"6" = 0;
"7" = 0;
"8" = 0;
"9" = 0;
};
};
width = 650;
}
);
unicode = 90;
},
{
color = 7;
glyphname = K.ss02;
kernLeft = I;
kernRight = K;
lastChange = "2023-08-12 05:16:31 +0000";
layers = (
{
anchors = (
{
name = bottom;
pos = (275,0);
},
{
name = top;
pos = (275,733);
}
);
layerId = m01;
shapes = (
{
closed = 1;
nodes = (
(60,0,l),
(95,0,l),
(95,733,l),
(60,733,l)
);
},
{
closed = 1;
nodes = (
(88,297,l),
(497,733,l),
(447,733,l),
(65,324,l)
);
},
{
closed = 1;
nodes = (
(141,389,l),
(474,0,l),
(517,0,l),
(168,413,l)
);
}
);
userData = {
com.hugojourdan.ColorFlow = {
"0" = 0;
"1" = 0;
"10" = 0;
"11" = 0;
"2" = 0;
"3" = 0;
"4" = 0;
"5" = 0;
"6" = 0;
"7" = 0;
"8" = 0;
"9" = 0;
};
};
width = 550;
},
{
anchors = (
{
name = bottom;
pos = (300,0);
},
{
name = top;
pos = (300,733);
}
);
layerId = m002;
shapes = (
{
closed = 1;
nodes = (
(68,0,l),
(146,0,l),
(146,733,l),
(68,733,l)
);
},
{
closed = 1;
nodes = (
(130,254,l),
(543,733,l),
(445,733,l),
(92,324,l)
);
},
{
closed = 1;
nodes = (
(164,379,l),
(469,0,l),
(564,0,l),
(233,418,l)
);
}
);
userData = {
com.hugojourdan.ColorFlow = {
"0" = 0;
"1" = 0;
"10" = 0;
"11" = 0;
"2" = 0;
"3" = 0;
"4" = 0;
"5" = 0;
"6" = 0;
"7" = 0;
"8" = 0;
"9" = 0;
};
};
width = 600;
},
{
anchors = (
{
name = bottom;
pos = (360,0);
},
{
name = top;
pos = (360,733);
}
);
layerId = m003;
shapes = (
{
closed = 1;
nodes = (
(68,0,l),
(228,0,l),
(228,733,l),
(68,733,l)
);
},
{
closed = 1;
nodes = (
(213,209,l),
(661,733,l),
(459,733,l),
(103,309,l)
);
},
{
closed = 1;
nodes = (
(186,379,l),
(492,0,l),
(685,0,l),
(350,418,l)
);
}
);
userData = {
com.hugojourdan.ColorFlow = {
"0" = 0;
"1" = 0;
"10" = 0;
"11" = 0;
"2" = 0;
"3" = 0;
"4" = 0;
"5" = 0;
"6" = 0;
"7" = 0;
"8" = 0;
"9" = 0;
};
};
width = 720;
}
);
},
{
color = 7;
glyphname = P.ss02;
kernLeft = I;
kernRight = P;
lastChange = "2023-08-12 06:02:06 +0000";
layers = (
{
layerId = m01;
shapes = (
{
closed = 1;
nodes = (
(100,697,l),
(161,698,o),
(219,698,o),
(280,697,cs),
(426,694,o),
(496,612,o),
(496,512,cs),
(496,405,o),
(419,331,o),
(325,330,cs),
(245,329,o),
(176,329,o),
(96,330,c),
(95,293,l),
(176,292,o),
(248,293,o),
(329,294,cs),
(456,295,o),
(530,400,o),
(530,512,cs),
(530,637,o),
(433,731,o),
(284,733,cs),
(206,734,o),
(143,734,o),
(65,733,c),
(65,0,l),
(100,0,l)
);
}
);
userData = {
com.hugojourdan.ColorFlow = {
"0" = 0;
"1" = 0;
"10" = 0;
"11" = 0;
"2" = 0;
"3" = 0;
"4" = 0;
"5" = 0;
"6" = 0;
"7" = 0;
"8" = 0;
"9" = 0;
};
};
width = 560;
},
{
layerId = m002;
shapes = (
{
closed = 1;
nodes = (
(147,650,l),
(198,651,o),
(248,651,o),
(299,650,cs),
(406,648,o),
(462,587,o),
(462,504,cs),
(462,408,o),
(408,361,o),
(313,359,cs),
(251,358,o),
(190,358,o),
(128,359,c),
(132,277,l),
(191,276,o),
(249,276,o),
(308,277,cs),
(475,280,o),
(546,379,o),
(546,504,cs),
(546,641,o),
(441,731,o),
(308,733,cs),
(228,734,o),
(147,734,o),
(67,733,c),
(67,0,l),
(147,0,l)
);
}
);
userData = {
com.hugojourdan.ColorFlow = {
"0" = 0;
"1" = 0;
"10" = 0;
"11" = 0;
"2" = 0;
"3" = 0;
"4" = 0;
"5" = 0;
"6" = 0;
"7" = 0;
"8" = 0;
"9" = 0;
};
};
width = 580;
},
{
layerId = m003;
shapes = (
{
closed = 1;
nodes = (
(232,591,l),
(266,591,o),
(314,591,o),
(348,590,cs),
(422,589,o),
(462,549,o),
(462,489,cs),
(462,428,o),
(427,380,o),
(361,379,cs),
(311,378,o),
(261,378,o),
(211,379,c),
(216,227,l),
(263,226,o),
(311,226,o),
(358,227,cs),
(575,232,o),
(646,349,o),
(646,489,cs),
(646,631,o),
(523,731,o),
(359,733,cs),
(262,734,o),
(162,734,o),
(67,733,c),
(67,0,l),
(232,0,l)
);
}
);
userData = {
com.hugojourdan.ColorFlow = {
"0" = 0;
"1" = 0;
"10" = 0;
"11" = 0;
"2" = 0;
"3" = 0;
"4" = 0;
"5" = 0;
"6" = 0;
"7" = 0;
"8" = 0;
"9" = 0;
};
};
width = 680;
}
);
},
{
color = 7;
glyphname = Thorn.ss02;
kernLeft = I;
kernRight = D;
lastChange = "2023-08-12 06:01:19 +0000";
layers = (
{
layerId = m01;
shapes = (
{
closed = 1;
nodes = (
(101,541,l),
(162,542,o),
(228,542,o),
(289,542,cs),
(413,542,o),
(489,469,o),
(489,369,cs),
(489,254,o),
(414,203,o),
(304,198,cs),
(231,195,o),
(168,197,o),
(85,198,c),
(97,155,l),
(162,154,o),
(233,154,o),
(298,155,cs),
(464,158,o),
(529,244,o),
(529,369,cs),
(529,504,o),
(431,581,o),
(298,585,cs),
(235,587,o),
(165,587,o),
(101,586,c),
(101,733,l),
(64,733,l),
(64,0,l),
(101,0,l)
);
}
);
userData = {
com.hugojourdan.ColorFlow = {
"0" = 0;
"1" = 0;
"10" = 0;
"11" = 0;
"2" = 0;
"3" = 0;
"4" = 0;
"5" = 0;
"6" = 0;
"7" = 0;
"8" = 0;
"9" = 0;
};
};
width = 570;
},
{
layerId = m002;
shapes = (
{
closed = 1;
nodes = (
(142,512,l),
(193,513,o),
(243,513,o),
(294,512,cs),
(401,510,o),
(463,452,o),
(463,369,cs),
(463,273,o),
(403,230,o),
(308,227,cs),
(236,225,o),
(195,226,o),
(123,227,c),
(127,147,l),
(186,146,o),
(244,146,o),
(303,147,cs),
(470,150,o),
(541,244,o),
(541,369,cs),
(541,506,o),
(436,591,o),
(303,593,cs),
(250,594,o),
(196,594,o),
(142,594,c),
(142,733,l),
(62,733,l),
(62,0,l),
(142,0,l)
);
}
);
userData = {
com.hugojourdan.ColorFlow = {
"0" = 0;
"1" = 0;
"10" = 0;
"11" = 0;
"2" = 0;
"3" = 0;
"4" = 0;
"5" = 0;
"6" = 0;
"7" = 0;
"8" = 0;
"9" = 0;
};
};
width = 580;
},
{
layerId = m003;
shapes = (
{
closed = 1;
nodes = (
(227,481,l),
(261,481,o),
(309,481,o),
(343,480,cs),
(407,479,o),
(447,430,o),
(447,370,cs),
(447,309,o),
(412,261,o),
(356,260,cs),
(296,259,o),
(266,259,o),
(206,260,c),
(211,108,l),
(258,107,o),
(306,107,o),
(353,108,cs),
(555,112,o),
(621,230,o),
(621,370,cs),
(621,512,o),
(508,630,o),
(354,633,cs),
(307,634,o),
(282,634,o),
(227,633,c),
(227,733,l),
(62,733,l),
(62,0,l),
(227,0,l)
);
}
);
userData = {
com.hugojourdan.ColorFlow = {
"0" = 0;
"1" = 0;
"10" = 0;
"11" = 0;
"2" = 0;
"3" = 0;
"4" = 0;
"5" = 0;
"6" = 0;
"7" = 0;
"8" = 0;
"9" = 0;
};
};
width = 660;
}
);
},
{
color = 7;
glyphname = Q.ss02;
kernLeft = O;
kernRight = O;
lastChange = "2023-08-12 05:16:31 +0000";
layers = (
{
layerId = m01;
shapes = (
{
locked = 1;
ref = O;
},
{
closed = 1;
nodes = (
(723,-14,l),
(773,-14,l),
(523,278,l),
(473,278,l)
);
}
);
userData = {
com.hugojourdan.ColorFlow = {
"0" = 0;
"1" = 0;
"10" = 0;
"11" = 0;
"2" = 0;
"3" = 0;
"4" = 0;
"5" = 0;
"6" = 0;
"7" = 0;
"8" = 0;
"9" = 0;
};
};
width = 850;
},
{
layerId = m002;
shapes = (
{
locked = 1;
ref = O;
},
{
closed = 1;
nodes = (
(663,-14,l),
(773,-14,l),
(493,308,l),
(383,308,l)
);
}
);
userData = {
com.hugojourdan.ColorFlow = {
"0" = 0;
"1" = 0;
"10" = 0;
"11" = 0;
"2" = 0;
"3" = 0;
"4" = 0;
"5" = 0;
"6" = 0;
"7" = 0;
"8" = 0;
"9" = 0;
};
};
width = 850;
},
{
layerId = m003;
shapes = (
{
locked = 1;
ref = O;
},
{
closed = 1;
nodes = (
(612,-14,l),
(822,-14,l),
(532,318,l),
(322,318,l)
);
}
);
userData = {
com.hugojourdan.ColorFlow = {
"0" = 0;
"1" = 0;
"10" = 0;
"11" = 0;
"2" = 0;
"3" = 0;
"4" = 0;
"5" = 0;
"6" = 0;
"7" = 0;
"8" = 0;
"9" = 0;
};
};
width = 870;
}
);
},
{
color = 7;
glyphname = R.ss02;
kernLeft = I;
kernRight = R;
lastChange = "2023-08-12 05:16:31 +0000";
layers = (
{
anchors = (
{
name = bottom;
pos = (287,0);
},
{
name = top;
pos = (277,733);
}
);
layerId = m01;
shapes = (
{
closed = 1;
nodes = (
(109,329,l),
(169,328,o),
(228,328,o),
(288,329,c),
(498,0,l),
(542,0,l),
(324,330,l),
(465,331,o),
(539,415,o),
(539,519,cs),
(539,657,o),
(425,731,o),
(309,733,cs),
(230,734,o),
(152,734,o),
(73,733,c),
(73,0,l),
(109,0,l)
);
},
{
closed = 1;
nodes = (
(109,698,l),
(168,699,o),
(239,699,o),
(300,699,cs),
(418,699,o),
(504,623,o),
(504,519,cs),
(504,423,o),
(433,366,o),
(315,364,cs),
(246,363,o),
(178,363,o),
(109,364,c)
);
}
);
userData = {
com.hugojourdan.ColorFlow = {
"0" = 0;
"1" = 0;
"10" = 0;
"11" = 0;
"2" = 0;
"3" = 0;
"4" = 0;
"5" = 0;
"6" = 0;
"7" = 0;
"8" = 0;
"9" = 0;
};
};
width = 593;
},
{
anchors = (
{
name = bottom;
pos = (302,0);
},
{
name = top;
pos = (282,733);
}
);
layerId = m002;
shapes = (
{
closed = 1;
nodes = (
(152,306,l),
(195,305,o),
(237,305,o),
(280,306,c),
(474,0,l),
(571,0,l),
(373,309,l),
(495,327,o),
(551,405,o),
(551,511,cs),
(551,648,o),
(446,731,o),
(314,733,cs),
(233,734,o),
(153,734,o),
(72,733,c),
(72,0,l),
(152,0,l)
);
},
{
closed = 1;
nodes = (
(152,650,l),
(202,651,o),
(254,651,o),
(305,650,cs),
(402,648,o),
(467,594,o),
(467,511,cs),
(467,418,o),
(414,386,o),
(319,384,cs),
(263,383,o),
(208,383,o),
(152,384,c)
);
}
);
userData = {
com.hugojourdan.ColorFlow = {
"0" = 0;
"1" = 0;
"10" = 0;
"11" = 0;
"2" = 0;
"3" = 0;
"4" = 0;
"5" = 0;
"6" = 0;
"7" = 0;
"8" = 0;
"9" = 0;
};
};
width = 600;
},
{
anchors = (
{
name = bottom;
pos = (367,0);
},
{
name = top;
pos = (347,733);
}
);
layerId = m003;
shapes = (
{
closed = 1;
nodes = (
(237,270,l),
(275,269,o),
(312,269,o),
(350,270,c),
(512,0,l),
(701,0,l),
(512,285,l),
(592,304,o),
(651,384,o),
(651,495,cs),
(651,627,o),
(527,731,o),
(365,733,cs),
(267,734,o),
(169,734,o),
(72,733,c),
(72,0,l),
(237,0,l)
);
},
{
closed = 1;
nodes = (
(237,591,l),
(271,591,o),
(320,591,o),
(354,590,cs),
(419,589,o),
(467,543,o),
(467,495,cs),
(467,438,o),
(427,395,o),
(367,394,cs),
(324,393,o),
(280,393,o),
(237,394,c)
);
}
);
userData = {
com.hugojourdan.ColorFlow = {
"0" = 0;
"1" = 0;
"10" = 0;
"11" = 0;
"2" = 0;
"3" = 0;
"4" = 0;
"5" = 0;
"6" = 0;
"7" = 0;
"8" = 0;
"9" = 0;
};
};
width = 730;
}
);
},
{
color = 7;
glyphname = I.ss03;
kernLeft = I;
kernRight = I;
lastChange = "2023-08-12 05:16:31 +0000";
layers = (
{
anchors = (
{
name = bottom;
pos = (115,0);
},
{
name = ogonek;
pos = (177,10);
},
{
name = top;
pos = (115,733);
},
{
name = topleft;
pos = (20,733);
}
);
layerId = m01;
shapes = (
{
ref = I;
},
{
closed = 1;
nodes = (
(30,699,l),
(200,699,l),
(200,733,l),
(30,733,l)
);
},
{
closed = 1;
nodes = (
(30,0,l),
(200,0,l),
(200,34,l),
(30,34,l)
);
}
);
userData = {
com.hugojourdan.ColorFlow = {
"0" = 0;
"1" = 0;
"10" = 0;
"11" = 0;
"2" = 0;
"3" = 0;
"4" = 0;
"5" = 0;
"6" = 0;
"7" = 0;
"8" = 0;
"9" = 0;
};
};
width = 230;
},
{
anchors = (
{
name = bottom;
pos = (140,0);
},
{
name = ogonek;
pos = (192,10);
},
{
name = top;
pos = (140,733);
},
{
name = topleft;
pos = (20,733);
}
);
layerId = m002;
shapes = (
{
ref = I;
},
{
closed = 1;
nodes = (
(45,659,l),
(235,659,l),
(235,733,l),
(45,733,l)
);
},
{
closed = 1;
nodes = (
(45,0,l),
(235,0,l),
(235,74,l),
(45,74,l)
);
}
);
userData = {
com.hugojourdan.ColorFlow = {
"0" = 0;
"1" = 0;
"10" = 0;
"11" = 0;
"2" = 0;
"3" = 0;
"4" = 0;
"5" = 0;
"6" = 0;
"7" = 0;
"8" = 0;
"9" = 0;
};
};
width = 280;
},
{
anchors = (
{
name = bottom;
pos = (185,0);
},
{
name = ogonek;
pos = (252,10);
},
{
name = top;
pos = (185,733);
},
{
name = topleft;
pos = (20,733);
}
);
layerId = m003;
shapes = (
{
ref = I;
},
{
closed = 1;
nodes = (
(40,609,l),
(330,609,l),
(330,733,l),
(40,733,l)
);
},
{
closed = 1;
nodes = (
(40,0,l),
(330,0,l),
(330,124,l),
(40,124,l)
);
}
);
userData = {
com.hugojourdan.ColorFlow = {
"0" = 0;
"1" = 0;
"10" = 0;
"11" = 0;
"2" = 0;
"3" = 0;
"4" = 0;
"5" = 0;
"6" = 0;
"7" = 0;
"8" = 0;
"9" = 0;
};
};
width = 370;
}
);
},
{
color = 7;
glyphname = J.ss03;
kernLeft = J;
kernRight = I;
lastChange = "2023-08-12 05:16:31 +0000";
layers = (
{
anchors = (
{
name = bottom;
pos = (165,0);
},
{
name = top;
pos = (235,733);
}
);
layerId = m01;
shapes = (
{
ref = J;
},
{
closed = 1;
nodes = (
(150,699,l),
(320,699,l),
(320,733,l),
(150,733,l)
);
}
);
userData = {
com.hugojourdan.ColorFlow = {
"0" = 0;
"1" = 0;
"10" = 0;
"11" = 0;
"2" = 0;
"3" = 0;
"4" = 0;
"5" = 0;
"6" = 0;
"7" = 0;
"8" = 0;
"9" = 0;
};
};
width = 330;
},
{
anchors = (
{
name = bottom;
pos = (170,0);
},
{
name = top;
pos = (240,733);
}
);
layerId = m002;
shapes = (
{
ref = J;
},
{
closed = 1;
nodes = (
(140,659,l),
(330,659,l),
(330,733,l),
(140,733,l)
);
}
);
userData = {
com.hugojourdan.ColorFlow = {
"0" = 0;
"1" = 0;
"10" = 0;
"11" = 0;
"2" = 0;
"3" = 0;
"4" = 0;
"5" = 0;
"6" = 0;
"7" = 0;
"8" = 0;
"9" = 0;
};
};
width = 340;
},
{
anchors = (
{
name = bottom;
pos = (225,0);
},
{
name = top;
pos = (295,733);
}
);
layerId = m003;
shapes = (
{
ref = J;
},
{
closed = 1;
nodes = (
(150,609,l),
(440,609,l),
(440,733,l),
(150,733,l)
);
}
);
userData = {
com.hugojourdan.ColorFlow = {
"0" = 0;
"1" = 0;
"10" = 0;
"11" = 0;
"2" = 0;
"3" = 0;
"4" = 0;
"5" = 0;
"6" = 0;
"7" = 0;
"8" = 0;
"9" = 0;
};
};
width = 450;
}
);
},
{
color = 6;
glyphname = a;
kernLeft = so;
kernRight = si;
lastChange = "2023-08-12 05:51:17 +0000";
layers = (
{
anchors = (
{
name = bottom;
pos = (285,0);
},
{
name = ogonek;
pos = (498,10);
},
{
name = top;
pos = (285,480);
}
);
layerId = m01;
shapes = (
{
closed = 1;
nodes = (
(161,23,o),
(78,108,o),
(78,235,cs),
(78,362,o),
(161,446,o),
(278,446,cs),
(390,446,o),
(484,356,o),
(484,235,cs),
(484,112,o),
(390,23,o),
(278,23,cs)
);
},
{
closed = 1;
nodes = (
(152,482,o),
(42,388,o),
(42,235,cs),
(42,97,o),
(134,-13,o),
(280,-13,cs),
(389,-13,o),
(456,53,o),
(478,110,c),
(476,8,l),
(476,0,l),
(514,0,l),
(514,470,l),
(476,470,l),
(476,458,l),
(478,356,l),
(455,421,o),
(391,482,o),
(280,482,cs)
);
}
);
userData = {
com.hugojourdan.ColorFlow = {
"0" = 0;
"1" = 0;
"10" = 0;
"11" = 0;
"2" = 0;
"3" = 0;
"4" = 0;
"5" = 0;
"6" = 0;
"7" = 0;
"8" = 0;
"9" = 0;
};
};
width = 570;
},
{
anchors = (
{
name = bottom;
pos = (285,0);
},
{
name = ogonek;
pos = (473,10);
},
{
name = top;
pos = (285,480);
}
);
layerId = m002;
shapes = (
{
closed = 1;
nodes = (
(183,65,o),
(120,140,o),
(120,235,cs),
(120,329,o),
(183,404,o),
(278,404,cs),
(376,404,o),
(442,326,o),
(442,235,cs),
(442,143,o),
(376,65,o),
(278,65,cs)
);
},
{
closed = 1;
nodes = (
(138,482,o),
(42,382,o),
(42,235,cs),
(42,103,o),
(139,-13,o),
(280,-13,cs),
(345,-13,o),
(422,15,o),
(442,60,c),
(440,8,l),
(440,0,l),
(514,0,l),
(514,470,l),
(436,470,l),
(436,458,l),
(438,406,l),
(418,447,o),
(351,482,o),
(280,482,cs)
);
}
);
userData = {
com.hugojourdan.ColorFlow = {
"0" = 0;
"1" = 0;
"10" = 0;
"11" = 0;
"2" = 0;
"3" = 0;
"4" = 0;
"5" = 0;
"6" = 0;
"7" = 0;
"8" = 0;
"9" = 0;
};
};
width = 570;
},
{
anchors = (
{
name = bottom;
pos = (305,0);
},
{
name = ogonek;
pos = (483,10);
},
{
name = top;
pos = (305,480);
}
);
layerId = m003;
shapes = (
{
closed = 1;
nodes = (
(256,125,o),
(200,156,o),
(200,235,cs),
(200,313,o),
(256,344,o),
(303,344,cs),
(353,344,o),
(402,310,o),
(402,235,cs),
(402,159,o),
(353,125,o),
(303,125,cs)
);
},
{
closed = 1;
nodes = (
(149,482,o),
(42,390,o),
(42,235,cs),
(42,91,o),
(136,-13,o),
(290,-13,cs),
(335,-13,o),
(381,0,o),
(403,22,c),
(400,4,l),
(400,0,l),
(554,0,l),
(554,470,l),
(396,470,l),
(396,462,l),
(399,446,l),
(378,467,o),
(323,482,o),
(290,482,cs)
);
}
);
userData = {
com.hugojourdan.ColorFlow = {
"0" = 0;
"1" = 0;
"10" = 0;
"11" = 0;
"2" = 0;
"3" = 0;
"4" = 0;
"5" = 0;
"6" = 0;
"7" = 0;
"8" = 0;
"9" = 0;
};
};
width = 610;
}
);
unicode = 97;
},
{
color = 6;
glyphname = ae;
kernLeft = so;
kernRight = so;
lastChange = "2023-08-12 05:51:17 +0000";
layers = (
{
anchors = (
{
name = bottom;
pos = (268,0);
},
{
name = ogonek;
pos = (453,10);
},
{
name = top;
pos = (278,480);
}
);
layerId = m01;
shapes = (
{
closed = 1;
nodes = (
(426,246,l),
(363,268,o),
(301,280,o),
(240,280,cs),
(124,280,o),
(49,221,o),
(49,137,cs),
(49,45,o),
(126,-13,o),
(240,-13,cs),
(346,-13,o),
(423,42,o),
(452,144,c),
(491,42,o),
(580,-17,o),
(676,-17,cs),
(744,-17,o),
(822,8,o),
(869,69,c),
(842,92,l),
(801,44,o),
(745,19,o),
(676,19,cs),
(575,19,o),
(474,85,o),
(469,223,c),
(907,223,l),
(908,231,o),
(908,244,o),
(908,253,cs),
(903,387,o),
(796,482,o),
(671,482,cs),
(576,482,o),
(489,427,o),
(452,334,c),
(431,430,o),
(363,482,o),
(268,482,cs),
(198,482,o),
(121,457,o),
(75,396,c),
(100,370,l),
(137,417,o),
(197,450,o),
(268,450,cs),
(372,450,o),
(426,376,o),
(426,273,cs)
);
},
{
closed = 1;
nodes = (
(82,199,o),
(133,247,o),
(240,247,cs),
(321,247,o),
(382,237,o),
(427,222,c),
(427,113,o),
(379,22,o),
(240,22,cs),
(144,22,o),
(82,63,o),
(82,137,cs)
);
},
{
closed = 1;
nodes = (
(479,365,o),
(560,447,o),
(671,447,cs),
(782,447,o),
(865,365,o),
(873,255,c),
(471,255,l)
);
}
);
userData = {
com.hugojourdan.ColorFlow = {
"0" = 0;
"1" = 0;
"10" = 0;
"11" = 0;
"2" = 0;
"3" = 0;
"4" = 0;
"5" = 0;
"6" = 0;
"7" = 0;
"8" = 0;
"9" = 0;
};
};
width = 950;
},
{
anchors = (
{
name = bottom;
pos = (810,0);
},
{
name = ogonek;
pos = (924,10);
},
{
name = top;
pos = (810,480);
}
);
layerId = m002;
shapes = (
{
closed = 1;
nodes = (
(406,261,l),
(373,277,o),
(323,291,o),
(260,291,cs),
(159,291,o),
(57,241,o),
(57,137,cs),
(57,25,o),
(146,-13,o),
(250,-13,cs),
(346,-13,o),
(418,14,o),
(458,87,c),
(498,14,o),
(568,-17,o),
(665,-17,cs),
(740,-17,o),
(815,13,o),
(858,68,c),
(805,123,l),
(775,86,o),
(715,59,o),
(665,59,cs),
(577,59,o),
(511,113,o),
(501,205,c),
(895,205,l),
(896,214,o),
(896,224,o),
(896,233,cs),
(896,381,o),
(797,482,o),
(660,482,cs),
(571,482,o),
(498,439,o),
(458,369,c),
(423,442,o),
(350,482,o),
(268,482,cs),
(188,482,o),
(128,456,o),
(77,398,c),
(129,343,l),
(171,390,o),
(217,410,o),
(268,410,cs),
(352,410,o),
(406,366,o),
(406,273,cs)
);
},
{
closed = 1;
nodes = (
(136,187,o),
(188,219,o),
(260,219,cs),
(305,219,o),
(367,210,o),
(407,197,c),
(403,105,o),
(355,62,o),
(260,62,cs),
(184,62,o),
(136,83,o),
(136,137,cs)
);
},
{
closed = 1;
nodes = (
(517,354,o),
(581,406,o),
(660,406,cs),
(739,406,o),
(803,354,o),
(816,276,c),
(504,276,l)
);
}
);
userData = {
com.hugojourdan.ColorFlow = {
"0" = 0;
"1" = 0;
"10" = 0;
"11" = 0;
"2" = 0;
"3" = 0;
"4" = 0;
"5" = 0;
"6" = 0;
"7" = 0;
"8" = 0;
"9" = 0;
};
};
width = 950;
},
{
anchors = (
{
name = bottom;
pos = (288,0);
},
{
name = ogonek;
pos = (480,10);
},
{
name = top;
pos = (308,480);
}
);
layerId = m003;
shapes = (
{
closed = 1;
nodes = (
(396,263,l),
(368,278,o),
(325,291,o),
(280,291,cs),
(119,291,o),
(47,217,o),
(47,133,cs),
(47,31,o),
(136,-17,o),
(290,-17,cs),
(386,-17,o),
(456,15,o),
(483,66,c),
(510,15,o),
(580,-17,o),
(665,-17,cs),
(737,-17,o),
(827,11,o),
(862,56,c),
(777,155,l),
(750,127,o),
(713,116,o),
(665,116,cs),
(609,116,o),
(576,144,o),
(570,187,c),
(905,187,l),
(906,204,o),
(906,214,o),
(906,233,cs),
(906,375,o),
(823,482,o),
(660,482,cs),
(583,482,o),
(524,458,o),
(483,418,c),
(430,464,o),
(353,482,o),
(288,482,cs),
(208,482,o),
(128,456,o),
(77,418,c),
(156,306,l),
(198,341,o),
(237,350,o),
(288,350,cs),
(372,350,o),
(396,306,o),
(396,273,cs)
);
},
{
closed = 1;
nodes = (
(216,158,o),
(244,169,o),
(300,169,cs),
(339,169,o),
(364,162,o),
(389,152,c),
(378,127,o),
(353,108,o),
(300,108,cs),
(244,108,o),
(216,118,o),
(216,138,cs)
);
},
{
closed = 1;
nodes = (
(573,321,o),
(611,349,o),
(660,349,cs),
(709,349,o),
(744,321,o),
(746,281,c),
(572,281,l)
);
}
);
userData = {
com.hugojourdan.ColorFlow = {
"0" = 0;
"1" = 0;
"10" = 0;
"11" = 0;
"2" = 0;
"3" = 0;
"4" = 0;
"5" = 0;
"6" = 0;
"7" = 0;
"8" = 0;
"9" = 0;
};
};
width = 950;
}
);
unicode = 230;
},
{
color = 6;
glyphname = b;
kernLeft = sb;
kernRight = so;
lastChange = "2023-08-12 05:51:17 +0000";
layers = (
{
layerId = m01;
shapes = (
{
closed = 1;
nodes = (
(409,446,o),
(492,362,o),
(492,235,cs),
(492,108,o),
(409,23,o),
(292,23,cs),
(180,23,o),
(86,112,o),
(86,235,cs),
(86,356,o),
(180,446,o),
(292,446,cs)
);
},
{
closed = 1;
nodes = (
(436,-13,o),
(528,97,o),
(528,235,cs),
(528,388,o),
(418,482,o),
(290,482,cs),
(179,482,o),
(115,421,o),
(92,356,c),
(94,458,l),
(94,733,l),
(56,733,l),
(56,0,l),
(94,0,l),
(94,8,l),
(92,110,l),
(114,53,o),
(181,-13,o),
(290,-13,cs)
);
}
);
userData = {
com.hugojourdan.ColorFlow = {
"0" = 0;
"1" = 0;
"10" = 0;
"11" = 0;
"2" = 0;
"3" = 0;
"4" = 0;
"5" = 0;
"6" = 0;
"7" = 0;
"8" = 0;
"9" = 0;
};
};
width = 570;
},
{
layerId = m002;
shapes = (
{
closed = 1;
nodes = (
(387,404,o),
(450,329,o),
(450,234,cs),
(450,140,o),
(387,65,o),
(292,65,cs),
(194,65,o),
(128,143,o),
(128,234,cs),
(128,326,o),
(194,404,o),
(292,404,cs)
);
},
{
closed = 1;
nodes = (
(432,-13,o),
(528,87,o),
(528,234,cs),
(528,366,o),
(431,482,o),
(290,482,cs),
(225,482,o),
(148,454,o),
(128,409,c),
(130,461,l),
(130,733,l),
(56,733,l),
(56,0,l),
(134,0,l),
(134,11,l),
(132,63,l),
(152,22,o),
(219,-13,o),
(290,-13,cs)
);
}
);
userData = {
com.hugojourdan.ColorFlow = {
"0" = 0;
"1" = 0;
"10" = 0;
"11" = 0;
"2" = 0;
"3" = 0;
"4" = 0;
"5" = 0;
"6" = 0;
"7" = 0;
"8" = 0;
"9" = 0;
};
};
width = 570;
},
{
layerId = m003;
shapes = (
{
closed = 1;
nodes = (
(369,344,o),
(410,303,o),
(410,234,cs),
(410,166,o),
(369,125,o),
(312,125,cs),
(252,125,o),
(208,169,o),
(208,234,cs),
(208,300,o),
(252,344,o),
(312,344,cs)
);
},
{
closed = 1;
nodes = (
(482,-13,o),
(568,83,o),
(568,234,cs),
(568,368,o),
(485,482,o),
(320,482,cs),
(287,482,o),
(229,472,o),
(208,453,c),
(210,478,l),
(210,733,l),
(56,733,l),
(56,0,l),
(214,0,l),
(214,6,l),
(213,21,l),
(240,-4,o),
(298,-13,o),
(320,-13,cs)
);
}
);
userData = {
com.hugojourdan.ColorFlow = {
"0" = 0;
"1" = 0;
"10" = 0;
"11" = 0;
"2" = 0;
"3" = 0;
"4" = 0;
"5" = 0;
"6" = 0;
"7" = 0;
"8" = 0;
"9" = 0;
};
};
width = 610;
}
);
unicode = 98;
},
{
color = 6;
glyphname = c;
kernLeft = so;
kernRight = sc;
lastChange = "2023-08-12 05:51:17 +0000";
layers = (
{
anchors = (
{
name = bottom;
pos = (260,0);
},
{
name = top;
pos = (260,470);
}
);
layerId = m01;
shapes = (
{
closed = 1;
nodes = (
(421,57,o),
(364,17,o),
(285,17,cs),
(183,17,o),
(77,108,o),
(77,233,cs),
(77,356,o),
(181,448,o),
(285,448,cs),
(366,448,o),
(421,407,o),
(453,370,c),
(478,396,l),
(430,457,o),
(355,482,o),
(285,482,cs),
(162,482,o),
(44,387,o),
(44,233,cs),
(44,82,o),
(158,-17,o),
(285,-17,cs),
(353,-17,o),
(431,8,o),
(478,69,c),
(453,93,l)
);
}
);
userData = {
com.hugojourdan.ColorFlow = {
"0" = 0;
"1" = 0;
"10" = 0;
"11" = 0;
"2" = 0;
"3" = 0;
"4" = 0;
"5" = 0;
"6" = 0;
"7" = 0;
"8" = 0;
"9" = 0;
};
};
width = 520;
},
{
anchors = (
{
name = bottom;
pos = (260,0);
},
{
name = top;
pos = (260,470);
}
);
layerId = m002;
shapes = (
{
closed = 1;
nodes = (
(395,84,o),
(335,59,o),
(285,59,cs),
(188,59,o),
(119,124,o),
(119,233,cs),
(119,335,o),
(192,406,o),
(285,406,cs),
(338,406,o),
(395,383,o),
(425,344,c),
(478,397,l),
(434,452,o),
(362,482,o),
(285,482,cs),
(148,482,o),
(44,381,o),
(44,233,cs),
(44,88,o),
(144,-17,o),
(285,-17,cs),
(360,-17,o),
(435,13,o),
(478,68,c),
(425,121,l)
);
}
);
userData = {
com.hugojourdan.ColorFlow = {
"0" = 0;
"1" = 0;
"10" = 0;
"11" = 0;
"2" = 0;
"3" = 0;
"4" = 0;
"5" = 0;
"6" = 0;
"7" = 0;
"8" = 0;
"9" = 0;
};
};
width = 520;
},
{
anchors = (
{
name = bottom;
pos = (270,0);
},
{
name = top;
pos = (270,470);
}
);
layerId = m003;
shapes = (
{
closed = 1;
nodes = (
(384,131,o),
(343,119,o),
(305,119,cs),
(246,119,o),
(200,159,o),
(200,233,cs),
(200,300,o),
(251,346,o),
(305,346,cs),
(348,346,o),
(373,336,o),
(406,304,c),
(498,401,l),
(453,453,o),
(380,482,o),
(305,482,cs),
(138,482,o),
(44,380,o),
(44,233,cs),
(44,84,o),
(138,-17,o),
(305,-17,cs),
(387,-17,o),
(450,9,o),
(494,61,c),
(409,162,l)
);
}
);
userData = {
com.hugojourdan.ColorFlow = {
"0" = 0;
"1" = 0;
"10" = 0;
"11" = 0;
"2" = 0;
"3" = 0;
"4" = 0;
"5" = 0;
"6" = 0;
"7" = 0;
"8" = 0;
"9" = 0;
};
};
width = 540;
}
);
unicode = 99;
},
{
color = 6;
glyphname = d;
kernLeft = so;
kernRight = sg;
lastChange = "2023-08-12 05:51:17 +0000";
layers = (
{
anchors = (
{
name = bottom;
pos = (285,0);
},
{
name = center;
pos = (285,235);
},
{
name = top;
pos = (285,880);
},
{
name = topright;
pos = (540,880);
}
);
layerId = m01;
shapes = (
{
closed = 1;
nodes = (
(390,446,o),
(484,356,o),
(484,235,cs),
(484,112,o),
(390,23,o),
(278,23,cs),
(161,23,o),
(78,108,o),
(78,235,cs),
(78,362,o),
(161,446,o),
(278,446,cs)
);
},
{
closed = 1;
nodes = (
(389,-13,o),
(456,53,o),
(478,110,c),
(476,8,l),
(476,0,l),
(514,0,l),
(514,733,l),
(476,733,l),
(476,458,l),
(478,356,l),
(455,421,o),
(391,482,o),
(280,482,cs),
(152,482,o),
(42,388,o),
(42,235,cs),
(42,97,o),
(134,-13,o),
(280,-13,cs)
);
}
);
userData = {
com.hugojourdan.ColorFlow = {
"0" = 0;
"1" = 0;
"10" = 0;
"11" = 0;
"2" = 0;
"3" = 0;
"4" = 0;
"5" = 0;
"6" = 0;
"7" = 0;
"8" = 0;
"9" = 0;
};
};
width = 570;
},
{
anchors = (
{
name = bottom;
pos = (285,0);
},
{
name = center;
pos = (285,235);
},
{
name = top;
pos = (285,880);
},
{
name = topright;
pos = (540,880);
}
);
layerId = m002;
shapes = (
{
closed = 1;
nodes = (
(376,404,o),
(442,326,o),
(442,234,cs),
(442,143,o),
(376,65,o),
(278,65,cs),
(183,65,o),
(120,140,o),
(120,234,cs),
(120,329,o),
(183,404,o),
(278,404,cs)
);
},
{
closed = 1;
nodes = (
(351,-13,o),
(418,22,o),
(438,63,c),
(436,11,l),
(436,0,l),
(514,0,l),
(514,733,l),
(440,733,l),
(440,461,l),
(442,409,l),
(422,454,o),
(345,482,o),
(280,482,cs),
(139,482,o),
(42,366,o),
(42,234,cs),
(42,87,o),
(138,-13,o),
(280,-13,cs)
);
}
);
userData = {
com.hugojourdan.ColorFlow = {
"0" = 0;
"1" = 0;
"10" = 0;
"11" = 0;
"2" = 0;
"3" = 0;
"4" = 0;
"5" = 0;
"6" = 0;
"7" = 0;
"8" = 0;
"9" = 0;
};
};
width = 570;
},
{
anchors = (
{
name = bottom;
pos = (305,0);
},
{
name = center;
pos = (305,235);
},
{
name = top;
pos = (305,880);
},
{
name = topright;
pos = (580,880);
}
);
layerId = m003;
shapes = (
{
closed = 1;
nodes = (
(358,344,o),
(402,300,o),
(402,234,cs),
(402,169,o),
(358,125,o),
(298,125,cs),
(241,125,o),
(200,166,o),
(200,234,cs),
(200,303,o),
(241,344,o),
(298,344,cs)
);
},
{
closed = 1;
nodes = (
(312,-13,o),
(370,-4,o),
(397,21,c),
(396,6,l),
(396,0,l),
(554,0,l),
(554,733,l),
(400,733,l),
(400,478,l),
(402,453,l),
(381,472,o),
(323,482,o),
(290,482,cs),
(125,482,o),
(42,368,o),
(42,234,cs),
(42,83,o),
(128,-13,o),
(290,-13,cs)
);
}
);
userData = {
com.hugojourdan.ColorFlow = {
"0" = 0;
"1" = 0;
"10" = 0;
"11" = 0;
"2" = 0;
"3" = 0;
"4" = 0;
"5" = 0;
"6" = 0;
"7" = 0;
"8" = 0;
"9" = 0;
};
};
width = 610;
}
);
unicode = 100;
},
{
color = 6;
glyphname = eth;
kernLeft = set;
kernRight = set;
lastChange = "2023-08-12 06:16:24 +0000";
layers = (
{
layerId = m01;
shapes = (
{
closed = 1;
nodes = (
(380,388,o),
(472,304,o),
(472,200,cs),
(472,97,o),
(384,18,o),
(282,18,cs),
(180,18,o),
(92,97,o),
(92,200,cs),
(92,314,o),
(184,388,o),
(282,388,cs)
);
},
{
closed = 1;
nodes = (
(56,81,o),
(142,-18,o),
(282,-18,cs),
(422,-18,o),
(509,81,o),
(509,200,cs),
(509,237,o),
(502,272,o),
(479,317,cs),
(417,438,o),
(370,526,o),
(320,617,c),
(473,689,l),
(473,727,l),
(303,647,l),
(254,733,l),
(214,733,l),
(271,630,l),
(118,564,l),
(118,526,l),
(289,600,l),
(342,502,l),
(413,375,l),
(372,414,o),
(321,426,o),
(282,426,cs),
(161,426,o),
(56,332,o),
(56,200,cs)
);
}
);
userData = {
com.hugojourdan.ColorFlow = {
"0" = 0;
"1" = 0;
"10" = 0;
"11" = 0;
"2" = 0;
"3" = 0;
"4" = 0;
"5" = 0;
"6" = 0;
"7" = 0;
"8" = 0;
"9" = 0;
};
};
width = 570;
},
{
layerId = m002;
shapes = (
{
closed = 1;
nodes = (
(365,366,o),
(442,300,o),
(442,213,cs),
(442,119,o),
(369,59,o),
(282,59,cs),
(195,59,o),
(122,119,o),
(122,213,cs),
(122,300,o),
(199,366,o),
(282,366,cs)
);
},
{
closed = 1;
nodes = (
(47,79,o),
(141,-17,o),
(282,-17,cs),
(423,-17,o),
(517,79,o),
(517,209,cs),
(517,245,o),
(510,283,o),
(487,328,cs),
(433,434,o),
(390,514,o),
(346,593,c),
(483,653,l),
(483,733,l),
(310,657,l),
(267,733,l),
(177,733,l),
(237,625,l),
(107,568,l),
(107,488,l),
(273,561,l),
(315,484,l),
(348,430,l),
(325,440,o),
(301,442,o),
(282,442,cs),
(155,442,o),
(47,342,o),
(47,209,cs)
);
}
);
userData = {
com.hugojourdan.ColorFlow = {
"0" = 0;
"1" = 0;
"10" = 0;
"11" = 0;
"2" = 0;
"3" = 0;
"4" = 0;
"5" = 0;
"6" = 0;
"7" = 0;
"8" = 0;
"9" = 0;
};
};
width = 570;
},
{
layerId = m003;
shapes = (
{
closed = 1;
nodes = (
(332,306,o),
(377,271,o),
(377,219,cs),
(377,160,o),
(337,129,o),
(282,129,cs),
(227,129,o),
(187,160,o),
(187,219,cs),
(187,271,o),
(232,306,o),
(282,306,cs)
);
},
{
closed = 1;
nodes = (
(27,86,o),
(114,-17,o),
(282,-17,cs),
(450,-17,o),
(537,86,o),
(537,209,cs),
(537,241,o),
(523,291,o),
(507,328,cs),
(472,409,o),
(426,485,o),
(386,548,c),
(533,595,l),
(533,733,l),
(315,657,l),
(271,733,l),
(133,733,l),
(196,620,l),
(57,575,l),
(57,437,l),
(258,505,l),
(279,476,l),
(308,438,l),
(302,440,o),
(287,442,o),
(282,442,cs),
(129,442,o),
(27,335,o),
(27,209,cs)
);
}
);
userData = {
com.hugojourdan.ColorFlow = {
"0" = 0;
"1" = 0;
"10" = 0;
"11" = 0;
"2" = 0;
"3" = 0;
"4" = 0;
"5" = 0;
"6" = 0;
"7" = 0;
"8" = 0;
"9" = 0;
};
};
width = 570;
}
);
unicode = 240;
},
{
glyphname = dcroat;
kernLeft = so;
kernRight = sg;
lastChange = "2023-07-01 17:00:56 +0000";
layers = (
{
layerId = m01;
shapes = (
{
ref = d;
},
{
closed = 1;
nodes = (
(243,584,l),
(557,584,l),
(557,620,l),
(252,620,l)
);
}
);
userData = {
com.hugojourdan.ColorFlow = {
"0" = 0;
"1" = 0;
"10" = 0;
"11" = 0;
"2" = 0;
"3" = 0;
"4" = 0;
"5" = 0;
"6" = 0;
"7" = 0;
"8" = 0;
"9" = 0;
};
};
width = 570;
},
{
layerId = m002;
shapes = (
{
ref = d;
},
{
closed = 1;
nodes = (
(202,565,l),
(562,565,l),
(562,639,l),
(222,639,l)
);
}
);
userData = {
com.hugojourdan.ColorFlow = {
"0" = 0;
"1" = 0;
"10" = 0;
"11" = 0;
"2" = 0;
"3" = 0;
"4" = 0;
"5" = 0;
"6" = 0;
"7" = 0;
"8" = 0;
"9" = 0;
};
};
width = 570;
},
{
layerId = m003;
shapes = (
{
ref = d;
},
{
closed = 1;
nodes = (
(212,545,l),
(602,545,l),
(602,659,l),
(249,659,l)
);
}
);
userData = {
com.hugojourdan.ColorFlow = {
"0" = 0;
"1" = 0;
"10" = 0;
"11" = 0;
"2" = 0;
"3" = 0;
"4" = 0;
"5" = 0;
"6" = 0;
"7" = 0;
"8" = 0;
"9" = 0;
};
};
width = 610;
}
);
unicode = 273;
},
{
color = 6;
glyphname = e;
kernLeft = so;
kernRight = so;
lastChange = "2023-08-12 05:51:17 +0000";
layers = (
{
anchors = (
{
name = bottom;
pos = (280,0);
},
{
name = ogonek;
pos = (404,10);
},
{
name = top;
pos = (280,480);
}
);
layerId = m01;
shapes = (
{
closed = 1;
nodes = (
(411,44,o),
(355,19,o),
(286,19,cs),
(185,19,o),
(84,85,o),
(79,223,c),
(517,223,l),
(518,231,o),
(518,244,o),
(518,253,cs),
(513,387,o),
(406,482,o),
(281,482,cs),
(156,482,o),
(44,387,o),
(44,233,cs),
(44,82,o),
(149,-17,o),
(286,-17,cs),
(354,-17,o),
(432,8,o),
(479,69,c),
(452,92,l)
);
},
{
closed = 1;
nodes = (
(89,365,o),
(170,447,o),
(281,447,cs),
(392,447,o),
(475,365,o),
(483,255,c),
(81,255,l)
);
}
);
userData = {
com.hugojourdan.ColorFlow = {
"0" = 0;
"1" = 0;
"10" = 0;
"11" = 0;
"2" = 0;
"3" = 0;
"4" = 0;
"5" = 0;
"6" = 0;
"7" = 0;
"8" = 0;
"9" = 0;
};
};
width = 560;
},
{
anchors = (
{
name = bottom;
pos = (280,0);
},
{
name = ogonek;
pos = (394,10);
},
{
name = top;
pos = (280,480);
}
);
layerId = m002;
shapes = (
{
closed = 1;
nodes = (
(395,86,o),
(335,59,o),
(285,59,cs),
(197,59,o),
(131,113,o),
(121,205,c),
(515,205,l),
(516,214,o),
(516,224,o),
(516,233,cs),
(516,381,o),
(417,482,o),
(280,482,cs),
(143,482,o),
(44,381,o),
(44,233,cs),
(44,88,o),
(144,-17,o),
(285,-17,cs),
(360,-17,o),
(435,13,o),
(478,68,c),
(425,123,l)
);
},
{
closed = 1;
nodes = (
(137,354,o),
(201,406,o),
(280,406,cs),
(359,406,o),
(423,354,o),
(436,276,c),
(124,276,l)
);
}
);
userData = {
com.hugojourdan.ColorFlow = {
"0" = 0;
"1" = 0;
"10" = 0;
"11" = 0;
"2" = 0;
"3" = 0;
"4" = 0;
"5" = 0;
"6" = 0;
"7" = 0;
"8" = 0;
"9" = 0;
};
};
width = 560;
},
{
anchors = (
{
name = bottom;
pos = (290,0);
},
{
name = ogonek;
pos = (394,10);
},
{
name = top;
pos = (290,480);
}
);
layerId = m003;
shapes = (
{
closed = 1;
nodes = (
(380,127,o),
(343,116,o),
(295,116,cs),
(239,116,o),
(206,144,o),
(200,187,c),
(535,187,l),
(536,204,o),
(536,214,o),
(536,233,cs),
(536,375,o),
(453,482,o),
(290,482,cs),
(127,482,o),
(44,375,o),
(44,233,cs),
(44,94,o),
(128,-17,o),
(295,-17,cs),
(367,-17,o),
(457,11,o),
(492,56,c),
(407,155,l)
);
},
{
closed = 1;
nodes = (
(203,321,o),
(241,349,o),
(290,349,cs),
(339,349,o),
(374,321,o),
(376,281,c),
(202,281,l)
);
}
);
userData = {
com.hugojourdan.ColorFlow = {
"0" = 0;
"1" = 0;
"10" = 0;
"11" = 0;
"2" = 0;
"3" = 0;
"4" = 0;
"5" = 0;
"6" = 0;
"7" = 0;
"8" = 0;
"9" = 0;
};
};
width = 580;
}
);
unicode = 101;
},
{
color = 6;
glyphname = f;
kernLeft = sf;
kernRight = sf;
lastChange = "2023-08-12 05:51:17 +0000";
layers = (
{
layerId = m01;
shapes = (
{
closed = 1;
nodes = (
(164,749,o),
(123,683,o),
(123,615,cs),
(123,590,o),
(122,494,o),
(121,470,c),
(34,470,l),
(28,438,l),
(121,438,l),
(121,0,l),
(158,0,l),
(158,438,l),
(262,438,l),
(262,470,l),
(159,470,l),
(159,505,o),
(159,569,o),
(159,604,cs),
(159,677,o),
(195,717,o),
(253,712,cs),
(257,712,o),
(263,711,o),
(269,710,c),
(279,744,l),
(266,746,o),
(259,747,o),
(252,747,cs)
);
}
);
userData = {
com.hugojourdan.ColorFlow = {
"0" = 0;
"1" = 0;
"10" = 0;
"11" = 0;
"2" = 0;
"3" = 0;
"4" = 0;
"5" = 0;
"6" = 0;
"7" = 0;
"8" = 0;
"9" = 0;
};
};
width = 300;
},
{
layerId = m002;
shapes = (
{
closed = 1;
nodes = (
(158,749,o),
(105,710,o),
(105,615,cs),
(104,562,o),
(104,515,o),
(103,470,c),
(34,470,l),
(18,398,l),
(103,398,l),
(103,0,l),
(178,0,l),
(178,398,l),
(262,398,l),
(262,470,l),
(179,470,l),
(179,505,o),
(179,539,o),
(179,574,cs),
(179,626,o),
(181,670,o),
(233,670,cs),
(240,670,o),
(248,669,o),
(264,666,c),
(278,741,l),
(258,745,o),
(245,747,o),
(232,747,cs)
);
}
);
userData = {
com.hugojourdan.ColorFlow = {
"0" = 0;
"1" = 0;
"10" = 0;
"11" = 0;
"2" = 0;
"3" = 0;
"4" = 0;
"5" = 0;
"6" = 0;
"7" = 0;
"8" = 0;
"9" = 0;
};
};
width = 300;
},
{
layerId = m003;
shapes = (
{
closed = 1;
nodes = (
(180,747,o),
(104,695,o),
(104,575,cs),
(104,549,o),
(103,493,o),
(102,470,c),
(44,470,l),
(18,338,l),
(102,338,l),
(102,0,l),
(257,0,l),
(257,338,l),
(361,338,l),
(361,470,l),
(258,470,l),
(258,495,o),
(258,519,o),
(258,544,cs),
(258,587,o),
(269,610,o),
(302,610,cs),
(326,610,o),
(337,609,o),
(352,603,c),
(388,732,l),
(348,743,o),
(318,747,o),
(281,747,cs)
);
}
);
userData = {
com.hugojourdan.ColorFlow = {
"0" = 0;
"1" = 0;
"10" = 0;
"11" = 0;
"2" = 0;
"3" = 0;
"4" = 0;
"5" = 0;
"6" = 0;
"7" = 0;
"8" = 0;
"9" = 0;
};
};
width = 410;
}
);
unicode = 102;
},
{
color = 6;
glyphname = g;
kernLeft = so;
kernRight = sg;
lastChange = "2023-08-12 05:51:17 +0000";
layers = (
{
anchors = (
{
name = bottom;
pos = (285,-220);
},
{
name = top;
pos = (285,470);
}
);
layerId = m01;
shapes = (
{
closed = 1;
nodes = (
(181,23,o),
(78,98,o),
(78,235,cs),
(78,372,o),
(181,446,o),
(278,446,cs),
(390,446,o),
(484,366,o),
(484,235,cs),
(484,102,o),
(390,23,o),
(278,23,cs)
);
},
{
closed = 1;
nodes = (
(42,97,o),
(144,-13,o),
(280,-13,cs),
(369,-13,o),
(458,33,o),
(482,110,c),
(480,8,l),
(480,5,o),
(480,3,o),
(480,0,cs),
(480,-121,o),
(387,-199,o),
(275,-199,cs),
(204,-199,o),
(149,-174,o),
(103,-136,c),
(83,-167,l),
(137,-211,o),
(207,-233,o),
(276,-233,cs),
(403,-233,o),
(513,-144,o),
(514,0,cs),
(515,197,o),
(515,273,o),
(514,470,c),
(476,470,l),
(476,458,l),
(478,356,l),
(453,431,o),
(371,482,o),
(280,482,cs),
(152,482,o),
(42,388,o),
(42,235,cs)
);
}
);
userData = {
com.hugojourdan.ColorFlow = {
"0" = 0;
"1" = 0;
"10" = 0;
"11" = 0;
"2" = 0;
"3" = 0;
"4" = 0;
"5" = 0;
"6" = 0;
"7" = 0;
"8" = 0;
"9" = 0;
};
};
width = 570;
},
{
anchors = (
{
name = bottom;
pos = (285,-220);
},
{
name = top;
pos = (285,470);
}
);
layerId = m002;
shapes = (
{
closed = 1;
nodes = (
(183,65,o),
(120,140,o),
(120,235,cs),
(120,329,o),
(183,404,o),
(278,404,cs),
(376,404,o),
(442,326,o),
(442,235,cs),
(442,143,o),
(376,65,o),
(278,65,cs)
);
},
{
closed = 1;
nodes = (
(42,103,o),
(139,-13,o),
(280,-13,cs),
(345,-13,o),
(422,15,o),
(442,60,c),
(440,8,l),
(440,5,o),
(440,3,o),
(440,0,cs),
(440,-92,o),
(374,-155,o),
(276,-155,cs),
(209,-155,o),
(156,-131,o),
(117,-99,c),
(82,-164,l),
(131,-205,o),
(199,-233,o),
(276,-233,cs),
(417,-233,o),
(513,-133,o),
(514,0,cs),
(515,197,o),
(515,273,o),
(514,470,c),
(436,470,l),
(436,458,l),
(438,406,l),
(418,447,o),
(351,482,o),
(280,482,cs),
(138,482,o),
(42,382,o),
(42,235,cs)
);
}
);
userData = {
com.hugojourdan.ColorFlow = {
"0" = 0;
"1" = 0;
"10" = 0;
"11" = 0;
"2" = 0;
"3" = 0;
"4" = 0;
"5" = 0;
"6" = 0;
"7" = 0;
"8" = 0;
"9" = 0;
};
};
width = 570;
},
{
anchors = (
{
name = bottom;
pos = (315,-220);
},
{
name = top;
pos = (315,470);
}
);
layerId = m003;
shapes = (
{
closed = 1;
nodes = (
(251,125,o),
(200,166,o),
(200,235,cs),
(200,303,o),
(251,344,o),
(308,344,cs),
(368,344,o),
(416,300,o),
(416,235,cs),
(416,169,o),
(368,125,o),
(308,125,cs)
);
},
{
closed = 1;
nodes = (
(42,101,o),
(140,-13,o),
(310,-13,cs),
(322,-13,o),
(380,-5,o),
(401,19,c),
(400,8,ls),
(400,5,o),
(400,3,o),
(400,0,cs),
(400,-57,o),
(369,-95,o),
(306,-95,cs),
(235,-95,o),
(193,-76,o),
(156,-44,c),
(82,-157,l),
(120,-197,o),
(202,-233,o),
(306,-233,cs),
(479,-233,o),
(573,-131,o),
(574,0,cs),
(575,197,o),
(575,273,o),
(574,470,c),
(396,470,l),
(396,463,l),
(398,453,l),
(368,473,o),
(330,482,o),
(310,482,cs),
(143,482,o),
(42,386,o),
(42,235,cs)
);
}
);
userData = {
com.hugojourdan.ColorFlow = {
"0" = 0;
"1" = 0;
"10" = 0;
"11" = 0;
"2" = 0;
"3" = 0;
"4" = 0;
"5" = 0;
"6" = 0;
"7" = 0;
"8" = 0;
"9" = 0;
};
};
width = 630;
}
);
unicode = 103;
},
{
color = 6;
glyphname = h;
kernLeft = sb;
kernRight = sn;
lastChange = "2023-08-12 05:51:17 +0000";
layers = (
{
anchors = (
{
name = bottom;
pos = (250,0);
},
{
name = center;
pos = (250,440);
},
{
name = top;
pos = (74,700);
}
);
layerId = m01;
shapes = (
{
closed = 1;
nodes = (
(91,380,l),
(134,426,o),
(187,445,o),
(240,445,cs),
(343,445,o),
(404,373,o),
(405,260,cs),
(406,175,o),
(406,85,o),
(405,0,c),
(441,0,l),
(442,95,o),
(442,176,o),
(441,271,cs),
(440,402,o),
(356,483,o),
(240,483,cs),
(182,483,o),
(123,461,o),
(91,427,c),
(91,733,l),
(57,733,l),
(57,0,l),
(91,0,l)
);
}
);
userData = {
com.hugojourdan.ColorFlow = {
"0" = 0;
"1" = 0;
"10" = 0;
"11" = 0;
"2" = 0;
"3" = 0;
"4" = 0;
"5" = 0;
"6" = 0;
"7" = 0;
"8" = 0;
"9" = 0;
};
};
width = 500;
},
{
anchors = (
{
name = bottom;
pos = (265,0);
},
{
name = center;
pos = (265,440);
},
{
name = top;
pos = (93,700);
}
);
layerId = m002;
shapes = (
{
closed = 1;
nodes = (
(131,380,l),
(149,393,o),
(191,402,o),
(240,402,cs),
(341,402,o),
(394,365,o),
(395,250,cs),
(396,165,o),
(396,85,o),
(395,0,c),
(471,0,l),
(472,95,o),
(472,176,o),
(471,271,cs),
(470,392,o),
(399,483,o),
(227,483,cs),
(185,483,o),
(159,475,o),
(131,461,c),
(131,733,l),
(55,733,l),
(55,0,l),
(131,0,l)
);
}
);
userData = {
com.hugojourdan.ColorFlow = {
"0" = 0;
"1" = 0;
"10" = 0;
"11" = 0;
"2" = 0;
"3" = 0;
"4" = 0;
"5" = 0;
"6" = 0;
"7" = 0;
"8" = 0;
"9" = 0;
};
};
width = 530;
},
{
anchors = (
{
name = bottom;
pos = (305,0);
},
{
name = center;
pos = (305,440);
},
{
name = top;
pos = (133,700);
}
);
layerId = m003;
shapes = (
{
closed = 1;
nodes = (
(211,330,l),
(226,338,o),
(259,342,o),
(290,342,cs),
(362,342,o),
(394,320,o),
(395,250,cs),
(396,165,o),
(396,85,o),
(395,0,c),
(551,0,l),
(552,95,o),
(552,176,o),
(551,271,cs),
(550,384,o),
(489,483,o),
(277,483,cs),
(256,483,o),
(225,480,o),
(211,476,c),
(211,733,l),
(55,733,l),
(55,0,l),
(211,0,l)
);
}
);
userData = {
com.hugojourdan.ColorFlow = {
"0" = 0;
"1" = 0;
"10" = 0;
"11" = 0;
"2" = 0;
"3" = 0;
"4" = 0;
"5" = 0;
"6" = 0;
"7" = 0;
"8" = 0;
"9" = 0;
};
};
width = 610;
}
);
unicode = 104;
},
{
glyphname = hbar;
kernLeft = sb;
kernRight = sn;
lastChange = "2023-07-01 18:23:07 +0000";
layers = (
{
layerId = m01;
shapes = (
{
pos = (30,0);
ref = h;
},
{
closed = 1;
nodes = (
(13,584,l),
(307,584,l),
(307,620,l),
(22,620,l)
);
}
);
userData = {
com.hugojourdan.ColorFlow = {
"0" = 0;
"1" = 0;
"10" = 0;
"11" = 0;
"2" = 0;
"3" = 0;
"4" = 0;
"5" = 0;
"6" = 0;
"7" = 0;
"8" = 0;
"9" = 0;
};
};
width = 530;
},
{
layerId = m002;
shapes = (
{
pos = (30,0);
ref = h;
},
{
closed = 1;
nodes = (
(12,565,l),
(352,565,l),
(352,639,l),
(32,639,l)
);
}
);
userData = {
com.hugojourdan.ColorFlow = {
"0" = 0;
"1" = 0;
"10" = 0;
"11" = 0;
"2" = 0;
"3" = 0;
"4" = 0;
"5" = 0;
"6" = 0;
"7" = 0;
"8" = 0;
"9" = 0;
};
};
width = 560;
},
{
layerId = m003;
shapes = (
{
pos = (30,0);
ref = h;
},
{
closed = 1;
nodes = (
(12,545,l),
(382,545,l),
(382,659,l),
(49,659,l)
);
}
);
userData = {
com.hugojourdan.ColorFlow = {
"0" = 0;
"1" = 0;
"10" = 0;
"11" = 0;
"2" = 0;
"3" = 0;
"4" = 0;
"5" = 0;
"6" = 0;
"7" = 0;
"8" = 0;
"9" = 0;
};
};
width = 640;
}
);
unicode = 295;
},
{
color = 6;
glyphname = i;
kernLeft = si;
kernRight = si;
lastChange = "2023-08-12 05:51:08 +0000";
layers = (
{
anchors = (
{
name = bottom;
pos = (90,0);
}
);
layerId = m01;
shapes = (
{
closed = 1;
nodes = (
(62,574,l),
(118,574,l),
(118,630,l),
(62,630,l)
);
},
{
closed = 1;
nodes = (
(72,470,l),
(72,0,l),
(108,0,l),
(108,470,l)
);
}
);
userData = {
com.hugojourdan.ColorFlow = {
"0" = 0;
"1" = 0;
"10" = 0;
"11" = 0;
"2" = 0;
"3" = 0;
"4" = 0;
"5" = 0;
"6" = 0;
"7" = 0;
"8" = 0;
"9" = 0;
};
};
width = 180;
},
{
anchors = (
{
name = bottom;
pos = (110,0);
}
);
layerId = m002;
shapes = (
{
closed = 1;
nodes = (
(64,557,l),
(156,557,l),
(156,648,l),
(64,648,l)
);
},
{
closed = 1;
nodes = (
(74,470,l),
(74,0,l),
(146,0,l),
(146,470,l)
);
}
);
userData = {
com.hugojourdan.ColorFlow = {
"0" = 0;
"1" = 0;
"10" = 0;
"11" = 0;
"2" = 0;
"3" = 0;
"4" = 0;
"5" = 0;
"6" = 0;
"7" = 0;
"8" = 0;
"9" = 0;
};
};
width = 220;
},
{
anchors = (
{
name = bottom;
pos = (160,0);
}
);
layerId = m003;
shapes = (
{
closed = 1;
nodes = (
(74,547,l),
(246,547,l),
(246,708,l),
(74,708,l)
);
},
{
closed = 1;
nodes = (
(84,470,l),
(84,0,l),
(236,0,l),
(236,470,l)
);
}
);
userData = {
com.hugojourdan.ColorFlow = {
"0" = 0;
"1" = 0;
"10" = 0;
"11" = 0;
"2" = 0;
"3" = 0;
"4" = 0;
"5" = 0;
"6" = 0;
"7" = 0;
"8" = 0;
"9" = 0;
};
};
width = 320;
}
);
unicode = 105;
},
{
glyphname = idotless;
kernLeft = si;
kernRight = si;
lastChange = "2023-08-12 05:51:05 +0000";
layers = (
{
anchors = (
{
name = bottom;
pos = (90,0);
},
{
name = ogonek;
pos = (90,0);
},
{
name = top;
pos = (90,470);
}
);
layerId = m01;
shapes = (
{
closed = 1;
nodes = (
(72,470,l),
(72,0,l),
(108,0,l),
(108,470,l)
);
}
);
userData = {
com.hugojourdan.ColorFlow = {
"0" = 0;
"1" = 0;
"10" = 0;
"11" = 0;
"2" = 0;
"3" = 0;
"4" = 0;
"5" = 0;
"6" = 0;
"7" = 0;
"8" = 0;
"9" = 0;
};
};
width = 180;
},
{
anchors = (
{
name = bottom;
pos = (110,0);
},
{
name = ogonek;
pos = (110,0);
},
{
name = top;
pos = (110,470);
}
);
layerId = m002;
shapes = (
{
closed = 1;
nodes = (
(74,470,l),
(74,0,l),
(146,0,l),
(146,470,l)
);
}
);
userData = {
com.hugojourdan.ColorFlow = {
"0" = 0;
"1" = 0;
"10" = 0;
"11" = 0;
"2" = 0;
"3" = 0;
"4" = 0;
"5" = 0;
"6" = 0;
"7" = 0;
"8" = 0;
"9" = 0;
};
};
width = 220;
},
{
anchors = (
{
name = bottom;
pos = (160,0);
},
{
name = ogonek;
pos = (160,0);
},
{
name = top;
pos = (160,470);
}
);
layerId = m003;
shapes = (
{
closed = 1;
nodes = (
(84,470,l),
(84,0,l),
(236,0,l),
(236,470,l)
);
}
);
userData = {
com.hugojourdan.ColorFlow = {
"0" = 0;
"1" = 0;
"10" = 0;
"11" = 0;
"2" = 0;
"3" = 0;
"4" = 0;
"5" = 0;
"6" = 0;
"7" = 0;
"8" = 0;
"9" = 0;
};
};
width = 320;
}
);
unicode = 305;
},
{
color = 6;
glyphname = j;
kernLeft = sj;
kernRight = sg;
lastChange = "2023-08-12 05:55:50 +0000";
layers = (
{
layerId = m01;
shapes = (
{
closed = 1;
nodes = (
(103,575,l),
(159,575,l),
(159,630,l),
(103,630,l)
);
},
{
closed = 1;
nodes = (
(113,470,l),
(114,-60,ls),
(114,-128,o),
(101,-198,o),
(34,-198,cs),
(30,-198,o),
(26,-198,o),
(21,-197,c),
(8,-230,l),
(20,-232,o),
(28,-233,o),
(35,-233,cs),
(114,-233,o),
(148,-167,o),
(148,-81,cs),
(149,470,l)
);
}
);
userData = {
com.hugojourdan.ColorFlow = {
"0" = 0;
"1" = 0;
"10" = 0;
"11" = 0;
"2" = 0;
"3" = 0;
"4" = 0;
"5" = 0;
"6" = 0;
"7" = 0;
"8" = 0;
"9" = 0;
};
};
width = 210;
},
{
layerId = m002;
shapes = (
{
closed = 1;
nodes = (
(92,557,l),
(184,557,l),
(184,648,l),
(92,648,l)
);
},
{
closed = 1;
nodes = (
(102,470,l),
(103,-60,ls),
(103,-114,o),
(90,-158,o),
(39,-158,cs),
(32,-158,o),
(24,-157,o),
(7,-153,c),
(-6,-227,l),
(13,-231,o),
(27,-233,o),
(40,-233,cs),
(128,-233,o),
(173,-180,o),
(173,-101,cs),
(174,470,l)
);
}
);
userData = {
com.hugojourdan.ColorFlow = {
"0" = 0;
"1" = 0;
"10" = 0;
"11" = 0;
"2" = 0;
"3" = 0;
"4" = 0;
"5" = 0;
"6" = 0;
"7" = 0;
"8" = 0;
"9" = 0;
};
};
width = 240;
},
{
layerId = m003;
shapes = (
{
closed = 1;
nodes = (
(122,547,l),
(294,547,l),
(294,708,l),
(122,708,l)
);
},
{
closed = 1;
nodes = (
(132,470,l),
(133,0,ls),
(133,-55,o),
(123,-83,o),
(89,-83,cs),
(67,-83,o),
(52,-81,o),
(30,-73,c),
(-4,-217,l),
(30,-228,o),
(63,-233,o),
(110,-233,cs),
(246,-233,o),
(283,-115,o),
(283,-51,cs),
(284,470,l)
);
}
);
userData = {
com.hugojourdan.ColorFlow = {
"0" = 0;
"1" = 0;
"10" = 0;
"11" = 0;
"2" = 0;
"3" = 0;
"4" = 0;
"5" = 0;
"6" = 0;
"7" = 0;
"8" = 0;
"9" = 0;
};
};
width = 350;
}
);
unicode = 106;
},
{
glyphname = jdotless;
kernLeft = sj;
kernRight = sg;
lastChange = "2023-08-12 05:56:00 +0000";
layers = (
{
anchors = (
{
name = bottom;
pos = (100,-220);
},
{
name = top;
pos = (131,470);
}
);
layerId = m01;
shapes = (
{
closed = 1;
nodes = (
(113,470,l),
(114,-60,ls),
(114,-128,o),
(101,-198,o),
(34,-198,cs),
(30,-198,o),
(26,-198,o),
(21,-197,c),
(8,-230,l),
(20,-232,o),
(28,-233,o),
(35,-233,cs),
(114,-233,o),
(148,-167,o),
(148,-81,cs),
(149,470,l)
);
}
);
userData = {
com.hugojourdan.ColorFlow = {
"0" = 0;
"1" = 0;
"10" = 0;
"11" = 0;
"2" = 0;
"3" = 0;
"4" = 0;
"5" = 0;
"6" = 0;
"7" = 0;
"8" = 0;
"9" = 0;
};
};
width = 200;
},
{
anchors = (
{
name = bottom;
pos = (115,-220);
},
{
name = top;
pos = (138,470);
}
);
layerId = m002;
shapes = (
{
closed = 1;
nodes = (
(102,470,l),
(103,-60,ls),
(103,-114,o),
(90,-158,o),
(39,-158,cs),
(32,-158,o),
(24,-157,o),
(7,-153,c),
(-6,-227,l),
(13,-231,o),
(27,-233,o),
(40,-233,cs),
(128,-233,o),
(173,-180,o),
(173,-101,cs),
(174,470,l)
);
}
);
userData = {
com.hugojourdan.ColorFlow = {
"0" = 0;
"1" = 0;
"10" = 0;
"11" = 0;
"2" = 0;
"3" = 0;
"4" = 0;
"5" = 0;
"6" = 0;
"7" = 0;
"8" = 0;
"9" = 0;
};
};
width = 230;
},
{
anchors = (
{
name = bottom;
pos = (170,-220);
},
{
name = top;
pos = (208,470);
}
);
layerId = m003;
shapes = (
{
closed = 1;
nodes = (
(132,470,l),
(133,0,ls),
(133,-55,o),
(123,-83,o),
(89,-83,cs),
(67,-83,o),
(52,-81,o),
(30,-73,c),
(-4,-217,l),
(30,-228,o),
(63,-233,o),
(110,-233,cs),
(246,-233,o),
(283,-115,o),
(283,-51,cs),
(284,470,l)
);
}
);
userData = {
com.hugojourdan.ColorFlow = {
"0" = 0;
"1" = 0;
"10" = 0;
"11" = 0;
"2" = 0;
"3" = 0;
"4" = 0;
"5" = 0;
"6" = 0;
"7" = 0;
"8" = 0;
"9" = 0;
};
};
width = 340;
}
);
unicode = 567;
},
{
color = 6;
glyphname = k;
kernLeft = sb;
kernRight = sk;
lastChange = "2023-08-12 06:19:11 +0000";
layers = (
{
anchors = (
{
name = bottom;
pos = (220,0);
},
{
name = top;
pos = (220,880);
}
);
layerId = m01;
shapes = (
{
closed = 1;
nodes = (
(65,0,l),
(97,0,l),
(97,733,l),
(65,733,l)
);
},
{
closed = 1;
nodes = (
(363,0,l),
(408,0,l),
(189,246,l),
(396,470,l),
(350,470,l),
(148,246,l)
);
}
);
userData = {
com.hugojourdan.ColorFlow = {
"0" = 0;
"1" = 0;
"10" = 0;
"11" = 0;
"2" = 0;
"3" = 0;
"4" = 0;
"5" = 0;
"6" = 0;
"7" = 0;
"8" = 0;
"9" = 0;
};
};
width = 440;
},
{
anchors = (
{
name = bottom;
pos = (240,0);
},
{
name = top;
pos = (240,880);
}
);
layerId = m002;
shapes = (
{
closed = 1;
nodes = (
(65,0,l),
(137,0,l),
(137,733,l),
(65,733,l)
);
},
{
closed = 1;
nodes = (
(367,0,l),
(460,0,l),
(260,246,l),
(447,470,l),
(354,470,l),
(173,246,l)
);
}
);
userData = {
com.hugojourdan.ColorFlow = {
"0" = 0;
"1" = 0;
"10" = 0;
"11" = 0;
"2" = 0;
"3" = 0;
"4" = 0;
"5" = 0;
"6" = 0;
"7" = 0;
"8" = 0;
"9" = 0;
};
};
width = 480;
},
{
anchors = (
{
name = bottom;
pos = (295,0);
},
{
name = top;
pos = (295,880);
}
);
layerId = m003;
shapes = (
{
closed = 1;
nodes = (
(65,0,l),
(213,0,l),
(213,733,l),
(65,733,l)
);
},
{
closed = 1;
nodes = (
(395,0,l),
(570,0,l),
(410,246,l),
(556,470,l),
(382,470,l),
(245,246,l)
);
}
);
userData = {
com.hugojourdan.ColorFlow = {
"0" = 0;
"1" = 0;
"10" = 0;
"11" = 0;
"2" = 0;
"3" = 0;
"4" = 0;
"5" = 0;
"6" = 0;
"7" = 0;
"8" = 0;
"9" = 0;
};
};
width = 590;
}
);
unicode = 107;
},
{
color = 6;
glyphname = l;
kernLeft = sl;
kernRight = sl;
lastChange = "2023-08-12 06:19:11 +0000";
layers = (
{
anchors = (
{
name = bottom;
pos = (160,0);
},
{
name = center;
pos = (130,440);
},
{
name = top;
pos = (110,733);
},
{
name = topright;
pos = (180,880);
}
);
layerId = m01;
shapes = (
{
closed = 1;
nodes = (
(209,-14,o),
(216,-13,o),
(229,-11,c),
(220,24,l),
(216,23,o),
(207,23,o),
(203,23,cs),
(131,23,o),
(128,87,o),
(128,159,cs),
(127,390,o),
(127,542,o),
(128,733,c),
(93,733,l),
(92,603,o),
(93,245,o),
(93,148,cs),
(93,58,o),
(112,-14,o),
(202,-14,cs)
);
}
);
userData = {
com.hugojourdan.ColorFlow = {
"0" = 0;
"1" = 0;
"10" = 0;
"11" = 0;
"2" = 0;
"3" = 0;
"4" = 0;
"5" = 0;
"6" = 0;
"7" = 0;
"8" = 0;
"9" = 0;
};
};
width = 260;
},
{
anchors = (
{
name = bottom;
pos = (160,0);
},
{
name = center;
pos = (130,440);
},
{
name = top;
pos = (110,733);
},
{
name = topright;
pos = (180,880);
}
);
layerId = m002;
shapes = (
{
closed = 1;
nodes = (
(215,-14,o),
(228,-12,o),
(248,-8,c),
(234,67,l),
(218,64,o),
(210,63,o),
(203,63,cs),
(154,63,o),
(149,111,o),
(149,159,cs),
(148,390,o),
(148,542,o),
(149,733,c),
(75,733,l),
(74,528,o),
(75,403,o),
(75,138,cs),
(75,44,o),
(110,-14,o),
(202,-14,cs)
);
}
);
userData = {
com.hugojourdan.ColorFlow = {
"0" = 0;
"1" = 0;
"10" = 0;
"11" = 0;
"2" = 0;
"3" = 0;
"4" = 0;
"5" = 0;
"6" = 0;
"7" = 0;
"8" = 0;
"9" = 0;
};
};
width = 260;
},
{
anchors = (
{
name = bottom;
pos = (205,0);
},
{
name = center;
pos = (175,440);
},
{
name = top;
pos = (153,733);
},
{
name = topright;
pos = (270,880);
}
);
layerId = m003;
shapes = (
{
closed = 1;
nodes = (
(276,-14,o),
(316,-10,o),
(338,1,c),
(314,131,l),
(301,126,o),
(288,125,o),
(274,125,cs),
(247,125,o),
(231,147,o),
(230,189,c),
(230,315,o),
(230,607,o),
(230,733,c),
(75,733,l),
(75,610,o),
(75,331,o),
(76,168,cs),
(77,76,o),
(130,-14,o),
(240,-14,cs)
);
}
);
userData = {
com.hugojourdan.ColorFlow = {
"0" = 0;
"1" = 0;
"10" = 0;
"11" = 0;
"2" = 0;
"3" = 0;
"4" = 0;
"5" = 0;
"6" = 0;
"7" = 0;
"8" = 0;
"9" = 0;
};
};
width = 350;
}
);
unicode = 108;
},
{
glyphname = lslash;
kernLeft = sl;
kernRight = sl;
lastChange = "2023-07-01 17:54:39 +0000";
layers = (
{
layerId = m01;
shapes = (
{
ref = l;
},
{
closed = 1;
nodes = (
(22,280,l),
(242,430,l),
(242,472,l),
(22,322,l)
);
}
);
userData = {
com.hugojourdan.ColorFlow = {
"0" = 0;
"1" = 0;
"10" = 0;
"11" = 0;
"2" = 0;
"3" = 0;
"4" = 0;
"5" = 0;
"6" = 0;
"7" = 0;
"8" = 0;
"9" = 0;
};
};
width = 260;
},
{
layerId = m002;
shapes = (
{
pos = (30,0);
ref = l;
},
{
closed = 1;
nodes = (
(22,247,l),
(272,417,l),
(272,507,l),
(22,337,l)
);
}
);
userData = {
com.hugojourdan.ColorFlow = {
"0" = 0;
"1" = 0;
"10" = 0;
"11" = 0;
"2" = 0;
"3" = 0;
"4" = 0;
"5" = 0;
"6" = 0;
"7" = 0;
"8" = 0;
"9" = 0;
};
};
width = 290;
},
{
layerId = m003;
shapes = (
{
locked = 1;
pos = (10,0);
ref = l;
},
{
closed = 1;
nodes = (
(22,195,l),
(312,395,l),
(312,559,l),
(22,359,l)
);
}
);
userData = {
com.hugojourdan.ColorFlow = {
"0" = 0;
"1" = 0;
"10" = 0;
"11" = 0;
"2" = 0;
"3" = 0;
"4" = 0;
"5" = 0;
"6" = 0;
"7" = 0;
"8" = 0;
"9" = 0;
};
};
width = 360;
}
);
unicode = 322;
},
{
color = 6;
glyphname = m;
kernLeft = sm;
kernRight = sm;
lastChange = "2023-08-12 06:19:11 +0000";
layers = (
{
layerId = m01;
shapes = (
{
closed = 1;
nodes = (
(88,425,l),
(118,441,o),
(150,447,o),
(193,447,cs),
(281,447,o),
(332,403,o),
(333,260,cs),
(334,175,o),
(334,85,o),
(333,0,c),
(369,0,l),
(370,95,o),
(370,176,o),
(369,271,cs),
(368,397,o),
(315,483,o),
(190,483,cs),
(140,483,o),
(102,474,o),
(55,450,c),
(55,0,l),
(88,0,l)
);
},
{
closed = 1;
nodes = (
(415,426,l),
(436,433,o),
(462,444,o),
(497,444,cs),
(565,444,o),
(623,403,o),
(624,260,cs),
(625,175,o),
(625,85,o),
(624,0,c),
(657,0,l),
(658,95,o),
(658,176,o),
(657,271,cs),
(656,397,o),
(601,478,o),
(496,478,cs),
(467,478,o),
(434,474,o),
(400,461,c)
);
}
);
userData = {
com.hugojourdan.ColorFlow = {
"0" = 0;
"1" = 0;
"10" = 0;
"11" = 0;
"2" = 0;
"3" = 0;
"4" = 0;
"5" = 0;
"6" = 0;
"7" = 0;
"8" = 0;
"9" = 0;
};
};
width = 710;
},
{
layerId = m002;
shapes = (
{
closed = 1;
nodes = (
(131,380,l),
(149,393,o),
(189,402,o),
(228,402,cs),
(299,402,o),
(332,365,o),
(333,250,cs),
(334,165,o),
(334,85,o),
(333,0,c),
(409,0,l),
(410,95,o),
(410,176,o),
(409,271,cs),
(408,392,o),
(357,483,o),
(215,483,cs),
(156,483,o),
(113,469,o),
(55,439,c),
(55,0,l),
(131,0,l)
);
},
{
closed = 1;
nodes = (
(425,382,l),
(445,392,o),
(481,402,o),
(516,402,cs),
(587,402,o),
(620,365,o),
(621,250,cs),
(622,165,o),
(622,85,o),
(621,0,c),
(697,0,l),
(698,95,o),
(698,176,o),
(697,271,cs),
(696,392,o),
(645,483,o),
(503,483,cs),
(463,483,o),
(427,476,o),
(401,462,c)
);
}
);
userData = {
com.hugojourdan.ColorFlow = {
"0" = 0;
"1" = 0;
"10" = 0;
"11" = 0;
"2" = 0;
"3" = 0;
"4" = 0;
"5" = 0;
"6" = 0;
"7" = 0;
"8" = 0;
"9" = 0;
};
};
width = 750;
},
{
layerId = m003;
shapes = (
{
closed = 1;
nodes = (
(210,332,l),
(223,339,o),
(233,342,o),
(257,342,cs),
(291,342,o),
(311,319,o),
(312,250,cs),
(313,165,o),
(313,85,o),
(312,0,c),
(468,0,l),
(469,95,o),
(469,166,o),
(468,261,cs),
(467,379,o),
(404,483,o),
(244,483,cs),
(152,483,o),
(106,475,o),
(55,444,c),
(55,0,l),
(210,0,l)
);
},
{
closed = 1;
nodes = (
(490,334,l),
(509,340,o),
(523,342,o),
(546,342,cs),
(581,342,o),
(600,309,o),
(601,250,cs),
(602,165,o),
(602,85,o),
(601,0,c),
(757,0,l),
(758,95,o),
(758,166,o),
(757,261,cs),
(756,379,o),
(719,483,o),
(543,483,cs),
(513,483,o),
(480,481,o),
(453,472,c)
);
}
);
userData = {
com.hugojourdan.ColorFlow = {
"0" = 0;
"1" = 0;
"10" = 0;
"11" = 0;
"2" = 0;
"3" = 0;
"4" = 0;
"5" = 0;
"6" = 0;
"7" = 0;
"8" = 0;
"9" = 0;
};
};
width = 810;
}
);
unicode = 109;
},
{
color = 6;
glyphname = n;
kernLeft = sm;
kernRight = sm;
lastChange = "2023-08-12 06:19:11 +0000";
layers = (
{
anchors = (
{
name = bottom;
pos = (235,0);
},
{
name = top;
pos = (225,480);
}
);
layerId = m01;
shapes = (
{
closed = 1;
nodes = (
(90,423,l),
(113,439,o),
(155,450,o),
(208,450,cs),
(322,450,o),
(384,398,o),
(385,260,cs),
(386,175,o),
(386,85,o),
(385,0,c),
(420,0,l),
(421,95,o),
(421,176,o),
(420,271,cs),
(419,398,o),
(361,483,o),
(205,483,cs),
(145,483,o),
(111,473,o),
(54,445,c),
(54,0,l),
(90,0,l)
);
}
);
userData = {
com.hugojourdan.ColorFlow = {
"0" = 0;
"1" = 0;
"10" = 0;
"11" = 0;
"2" = 0;
"3" = 0;
"4" = 0;
"5" = 0;
"6" = 0;
"7" = 0;
"8" = 0;
"9" = 0;
};
};
width = 470;
},
{
anchors = (
{
name = bottom;
pos = (255,0);
},
{
name = top;
pos = (245,480);
}
);
layerId = m002;
shapes = (
{
closed = 1;
nodes = (
(131,380,l),
(149,393,o),
(189,402,o),
(238,402,cs),
(339,402,o),
(382,365,o),
(383,250,cs),
(384,165,o),
(384,85,o),
(383,0,c),
(460,0,l),
(461,95,o),
(461,176,o),
(460,271,cs),
(459,392,o),
(397,483,o),
(225,483,cs),
(156,483,o),
(112,469,o),
(54,439,c),
(54,0,l),
(131,0,l)
);
}
);
userData = {
com.hugojourdan.ColorFlow = {
"0" = 0;
"1" = 0;
"10" = 0;
"11" = 0;
"2" = 0;
"3" = 0;
"4" = 0;
"5" = 0;
"6" = 0;
"7" = 0;
"8" = 0;
"9" = 0;
};
};
width = 510;
},
{
anchors = (
{
name = bottom;
pos = (300,0);
},
{
name = top;
pos = (290,480);
}
);
layerId = m003;
shapes = (
{
closed = 1;
nodes = (
(209,330,l),
(223,337,o),
(257,342,o),
(288,342,cs),
(356,342,o),
(392,310,o),
(393,250,cs),
(394,165,o),
(394,85,o),
(393,0,c),
(550,0,l),
(551,95,o),
(551,176,o),
(550,271,cs),
(549,379,o),
(488,483,o),
(275,483,cs),
(222,483,o),
(103,474,o),
(54,444,c),
(54,0,l),
(209,0,l)
);
}
);
userData = {
com.hugojourdan.ColorFlow = {
"0" = 0;
"1" = 0;
"10" = 0;
"11" = 0;
"2" = 0;
"3" = 0;
"4" = 0;
"5" = 0;
"6" = 0;
"7" = 0;
"8" = 0;
"9" = 0;
};
};
width = 600;
}
);
unicode = 110;
},
{
color = 6;
glyphname = eng;
kernLeft = sm;
kernRight = sm;
lastChange = "2023-08-12 06:19:11 +0000";
layers = (
{
anchors = (
{
name = bottom;
pos = (235,0);
},
{
name = top;
pos = (225,480);
}
);
layerId = m01;
shapes = (
{
closed = 1;
nodes = (
(90,423,l),
(113,439,o),
(155,450,o),
(208,450,cs),
(322,450,o),
(384,398,o),
(385,260,cs),
(386,153,o),
(386,47,o),
(385,-60,cs),
(384,-128,o),
(373,-198,o),
(306,-198,cs),
(302,-198,o),
(298,-198,o),
(293,-197,c),
(280,-230,l),
(292,-232,o),
(300,-233,o),
(307,-233,cs),
(386,-233,o),
(419,-167,o),
(420,-81,cs),
(421,36,o),
(421,154,o),
(420,271,cs),
(419,398,o),
(361,483,o),
(205,483,cs),
(145,483,o),
(111,473,o),
(54,445,c),
(54,0,l),
(90,0,l)
);
}
);
userData = {
com.hugojourdan.ColorFlow = {
"0" = 0;
"1" = 0;
"10" = 0;
"11" = 0;
"2" = 0;
"3" = 0;
"4" = 0;
"5" = 0;
"6" = 0;
"7" = 0;
"8" = 0;
"9" = 0;
};
};
width = 470;
},
{
anchors = (
{
name = bottom;
pos = (255,0);
},
{
name = top;
pos = (245,480);
}
);
layerId = m002;
shapes = (
{
closed = 1;
nodes = (
(131,380,l),
(149,393,o),
(189,402,o),
(238,402,cs),
(339,402,o),
(383,365,o),
(384,250,cs),
(385,147,o),
(385,43,o),
(384,-60,cs),
(383,-114,o),
(370,-158,o),
(319,-158,cs),
(312,-158,o),
(304,-157,o),
(287,-153,c),
(274,-227,l),
(293,-231,o),
(307,-233,o),
(320,-233,cs),
(408,-233,o),
(459,-180,o),
(460,-101,cs),
(461,23,o),
(461,147,o),
(460,271,cs),
(459,392,o),
(397,483,o),
(225,483,cs),
(156,483,o),
(112,469,o),
(54,439,c),
(54,0,l),
(130,0,l)
);
}
);
userData = {
com.hugojourdan.ColorFlow = {
"0" = 0;
"1" = 0;
"10" = 0;
"11" = 0;
"2" = 0;
"3" = 0;
"4" = 0;
"5" = 0;
"6" = 0;
"7" = 0;
"8" = 0;
"9" = 0;
};
};
width = 510;
},
{
anchors = (
{
name = bottom;
pos = (300,0);
},
{
name = top;
pos = (290,480);
}
);
layerId = m003;
shapes = (
{
closed = 1;
nodes = (
(209,330,l),
(223,337,o),
(257,342,o),
(288,342,cs),
(356,342,o),
(393,310,o),
(394,250,cs),
(395,167,o),
(395,83,o),
(394,0,cs),
(393,-55,o),
(378,-83,o),
(349,-83,cs),
(327,-83,o),
(319,-81,o),
(297,-73,c),
(263,-217,l),
(297,-228,o),
(330,-233,o),
(377,-233,cs),
(513,-233,o),
(549,-115,o),
(550,-51,cs),
(551,56,o),
(551,164,o),
(550,271,cs),
(549,379,o),
(488,483,o),
(275,483,cs),
(222,483,o),
(103,474,o),
(54,444,c),
(54,0,l),
(209,0,l)
);
}
);
userData = {
com.hugojourdan.ColorFlow = {
"0" = 0;
"1" = 0;
"10" = 0;
"11" = 0;
"2" = 0;
"3" = 0;
"4" = 0;
"5" = 0;
"6" = 0;
"7" = 0;
"8" = 0;
"9" = 0;
};
};
width = 600;
}
);
unicode = 331;
},
{
color = 6;
glyphname = o;
kernLeft = so;
kernRight = so;
lastChange = "2023-08-12 06:19:11 +0000";
layers = (
{
anchors = (
{
name = bottom;
pos = (280,1);
},
{
name = center;
pos = (280,235);
},
{
name = ogonek;
pos = (508,10);
},
{
name = top;
pos = (280,480);
},
{
name = topright;
pos = (545,470);
}
);
layerId = m01;
shapes = (
{
closed = 1;
nodes = (
(387,446,o),
(487,365,o),
(487,233,cs),
(487,87,o),
(388,19,o),
(280,19,cs),
(172,19,o),
(73,87,o),
(73,233,cs),
(73,365,o),
(173,446,o),
(280,446,cs)
);
},
{
closed = 1;
nodes = (
(412,-17,o),
(521,82,o),
(521,233,cs),
(521,387,o),
(403,482,o),
(280,482,cs),
(157,482,o),
(39,387,o),
(39,233,cs),
(39,82,o),
(148,-17,o),
(280,-17,cs)
);
}
);
userData = {
com.hugojourdan.ColorFlow = {
"0" = 0;
"1" = 0;
"10" = 0;
"11" = 0;
"2" = 0;
"3" = 0;
"4" = 0;
"5" = 0;
"6" = 0;
"7" = 0;
"8" = 0;
"9" = 0;
};
};
width = 560;
},
{
anchors = (
{
name = bottom;
pos = (280,0);
},
{
name = center;
pos = (280,235);
},
{
name = ogonek;
pos = (508,10);
},
{
name = top;
pos = (280,480);
},
{
name = topright;
pos = (545,470);
}
);
layerId = m002;
shapes = (
{
closed = 1;
nodes = (
(373,407,o),
(447,335,o),
(447,233,cs),
(447,124,o),
(377,59,o),
(280,59,cs),
(183,59,o),
(113,124,o),
(113,233,cs),
(113,335,o),
(187,407,o),
(280,407,cs)
);
},
{
closed = 1;
nodes = (
(421,-17,o),
(521,88,o),
(521,233,cs),
(521,381,o),
(417,482,o),
(280,482,cs),
(143,482,o),
(39,381,o),
(39,233,cs),
(39,88,o),
(139,-17,o),
(280,-17,cs)
);
}
);
userData = {
com.hugojourdan.ColorFlow = {
"0" = 0;
"1" = 0;
"10" = 0;
"11" = 0;
"2" = 0;
"3" = 0;
"4" = 0;
"5" = 0;
"6" = 0;
"7" = 0;
"8" = 0;
"9" = 0;
};
};
width = 560;
},
{
anchors = (
{
name = bottom;
pos = (300,0);
},
{
name = center;
pos = (300,235);
},
{
name = ogonek;
pos = (528,10);
},
{
name = top;
pos = (300,480);
},
{
name = topright;
pos = (565,470);
}
);
layerId = m003;
shapes = (
{
closed = 1;
nodes = (
(348,345,o),
(407,316,o),
(407,233,cs),
(407,154,o),
(353,121,o),
(300,121,cs),
(247,121,o),
(193,154,o),
(193,233,cs),
(193,316,o),
(252,345,o),
(300,345,cs)
);
},
{
closed = 1;
nodes = (
(467,-17,o),
(561,84,o),
(561,233,cs),
(561,380,o),
(467,482,o),
(300,482,cs),
(133,482,o),
(39,380,o),
(39,233,cs),
(39,84,o),
(133,-17,o),
(300,-17,cs)
);
}
);
userData = {
com.hugojourdan.ColorFlow = {
"0" = 0;
"1" = 0;
"10" = 0;
"11" = 0;
"2" = 0;
"3" = 0;
"4" = 0;
"5" = 0;
"6" = 0;
"7" = 0;
"8" = 0;
"9" = 0;
};
};
width = 600;
}
);
unicode = 111;
},
{
glyphname = oslash;
kernLeft = so;
kernRight = so;
lastChange = "2023-06-30 16:12:48 +0000";
layers = (
{
layerId = m01;
shapes = (
{
ref = o;
},
{
closed = 1;
nodes = (
(44,54,l),
(69,28,l),
(526,419,l),
(501,445,l)
);
}
);
userData = {
com.hugojourdan.ColorFlow = {
"0" = 0;
"1" = 0;
"10" = 0;
"11" = 0;
"2" = 0;
"3" = 0;
"4" = 0;
"5" = 0;
"6" = 0;
"7" = 0;
"8" = 0;
"9" = 0;
};
};
width = 570;
},
{
layerId = m002;
shapes = (
{
ref = o;
},
{
closed = 1;
nodes = (
(22,50,l),
(67,0,l),
(548,423,l),
(503,473,l)
);
}
);
userData = {
com.hugojourdan.ColorFlow = {
"0" = 0;
"1" = 0;
"10" = 0;
"11" = 0;
"2" = 0;
"3" = 0;
"4" = 0;
"5" = 0;
"6" = 0;
"7" = 0;
"8" = 0;
"9" = 0;
};
};
width = 570;
},
{
layerId = m003;
shapes = (
{
ref = o;
},
{
closed = 1;
nodes = (
(2,70,l),
(77,-20,l),
(568,403,l),
(493,493,l)
);
}
);
userData = {
com.hugojourdan.ColorFlow = {
"0" = 0;
"1" = 0;
"10" = 0;
"11" = 0;
"2" = 0;
"3" = 0;
"4" = 0;
"5" = 0;
"6" = 0;
"7" = 0;
"8" = 0;
"9" = 0;
};
};
width = 570;
}
);
unicode = 248;
},
{
color = 11;
glyphname = oe;
kernLeft = so;
kernRight = so;
lastChange = "2023-06-30 16:12:48 +0000";
layers = (
{
layerId = m01;
shapes = (
{
closed = 1;
nodes = (
(392,449,o),
(494,365,o),
(494,233,cs),
(494,87,o),
(393,15,o),
(285,15,cs),
(177,15,o),
(76,87,o),
(76,233,cs),
(76,365,o),
(178,449,o),
(285,449,cs)
);
},
{
closed = 1;
nodes = (
(44,82,o),
(153,-17,o),
(285,-17,cs),
(391,-17,o),
(482,47,o),
(514,160,c),
(545,47,o),
(634,-17,o),
(744,-17,cs),
(812,-17,o),
(890,8,o),
(937,69,c),
(913,95,l),
(870,47,o),
(813,18,o),
(744,18,cs),
(643,18,o),
(540,87,o),
(535,225,c),
(975,225,l),
(976,233,o),
(976,244,o),
(976,253,cs),
(971,387,o),
(864,482,o),
(739,482,cs),
(638,482,o),
(546,420,o),
(514,305,c),
(480,420,o),
(384,482,o),
(285,482,cs),
(162,482,o),
(44,387,o),
(44,233,cs)
);
},
{
closed = 1;
nodes = (
(546,365,o),
(628,447,o),
(739,447,cs),
(850,447,o),
(934,365,o),
(942,255,c),
(538,255,l)
);
}
);
userData = {
com.hugojourdan.ColorFlow = {
"0" = 0;
"1" = 0;
"10" = 0;
"11" = 0;
"2" = 0;
"3" = 0;
"4" = 0;
"5" = 0;
"6" = 0;
"7" = 0;
"8" = 0;
"9" = 0;
};
};
width = 1020;
},
{
layerId = m002;
shapes = (
{
closed = 1;
nodes = (
(378,406,o),
(451,335,o),
(451,233,cs),
(451,124,o),
(382,59,o),
(285,59,cs),
(188,59,o),
(119,124,o),
(119,233,cs),
(119,335,o),
(192,406,o),
(285,406,cs)
);
},
{
closed = 1;
nodes = (
(44,88,o),
(144,-17,o),
(285,-17,cs),
(379,-17,o),
(455,35,o),
(495,109,c),
(535,35,o),
(611,-17,o),
(705,-17,cs),
(780,-17,o),
(855,13,o),
(898,68,c),
(845,123,l),
(815,86,o),
(755,59,o),
(705,59,cs),
(617,59,o),
(551,113,o),
(541,205,c),
(935,205,l),
(936,214,o),
(936,224,o),
(936,233,cs),
(936,381,o),
(837,482,o),
(700,482,cs),
(608,482,o),
(534,432,o),
(494,358,c),
(453,432,o),
(377,482,o),
(285,482,cs),
(148,482,o),
(44,381,o),
(44,233,cs)
);
},
{
closed = 1;
nodes = (
(557,354,o),
(621,406,o),
(700,406,cs),
(779,406,o),
(843,354,o),
(856,276,c),
(544,276,l)
);
}
);
userData = {
com.hugojourdan.ColorFlow = {
"0" = 0;
"1" = 0;
"10" = 0;
"11" = 0;
"2" = 0;
"3" = 0;
"4" = 0;
"5" = 0;
"6" = 0;
"7" = 0;
"8" = 0;
"9" = 0;
};
};
width = 980;
},
{
layerId = m003;
shapes = (
{
closed = 1;
nodes = (
(353,346,o),
(391,310,o),
(391,233,cs),
(391,149,o),
(348,119,o),
(295,119,cs),
(242,119,o),
(199,149,o),
(199,233,cs),
(199,310,o),
(247,346,o),
(295,346,cs)
);
},
{
closed = 1;
nodes = (
(44,84,o),
(128,-17,o),
(295,-17,cs),
(380,-17,o),
(442,14,o),
(471,66,c),
(500,14,o),
(580,-17,o),
(665,-17,cs),
(757,-17,o),
(823,7,o),
(866,56,c),
(781,155,l),
(757,131,o),
(713,119,o),
(665,119,cs),
(609,119,o),
(572,147,o),
(561,185,c),
(904,185,l),
(906,203,o),
(906,214,o),
(905,233,cs),
(897,385,o),
(823,482,o),
(660,482,cs),
(575,482,o),
(507,452,o),
(469,400,c),
(441,451,o),
(381,482,o),
(295,482,cs),
(128,482,o),
(44,380,o),
(44,233,cs)
);
},
{
closed = 1;
nodes = (
(567,314,o),
(601,346,o),
(660,346,cs),
(719,346,o),
(753,314,o),
(756,286,c),
(564,286,l)
);
}
);
userData = {
com.hugojourdan.ColorFlow = {
"0" = 0;
"1" = 0;
"10" = 0;
"11" = 0;
"2" = 0;
"3" = 0;
"4" = 0;
"5" = 0;
"6" = 0;
"7" = 0;
"8" = 0;
"9" = 0;
};
};
width = 950;
}
);
unicode = 339;
},
{
color = 6;
glyphname = p;
kernLeft = sp;
kernRight = so;
lastChange = "2023-08-12 06:19:29 +0000";
layers = (
{
layerId = m01;
shapes = (
{
closed = 1;
nodes = (
(180,24,o),
(86,114,o),
(86,235,cs),
(86,358,o),
(180,447,o),
(292,447,cs),
(409,447,o),
(492,362,o),
(492,235,cs),
(492,108,o),
(409,24,o),
(292,24,cs)
);
},
{
closed = 1;
nodes = (
(181,483,o),
(114,417,o),
(92,360,c),
(94,462,l),
(94,470,l),
(56,470,l),
(56,-220,l),
(94,-220,l),
(94,12,l),
(92,114,l),
(115,49,o),
(179,-12,o),
(290,-12,cs),
(418,-12,o),
(528,82,o),
(528,235,cs),
(528,373,o),
(436,483,o),
(290,483,cs)
);
}
);
userData = {
com.hugojourdan.ColorFlow = {
"0" = 0;
"1" = 0;
"10" = 0;
"11" = 0;
"2" = 0;
"3" = 0;
"4" = 0;
"5" = 0;
"6" = 0;
"7" = 0;
"8" = 0;
"9" = 0;
};
};
width = 570;
},
{
layerId = m002;
shapes = (
{
closed = 1;
nodes = (
(194,65,o),
(128,143,o),
(128,235,cs),
(128,326,o),
(194,404,o),
(292,404,cs),
(387,404,o),
(450,329,o),
(450,235,cs),
(450,140,o),
(387,65,o),
(292,65,cs)
);
},
{
closed = 1;
nodes = (
(219,482,o),
(152,447,o),
(132,406,c),
(134,458,l),
(134,470,l),
(56,470,l),
(56,-220,l),
(130,-220,l),
(130,8,l),
(128,60,l),
(148,15,o),
(225,-13,o),
(290,-13,cs),
(431,-13,o),
(528,103,o),
(528,235,cs),
(528,382,o),
(432,482,o),
(290,482,cs)
);
}
);
userData = {
com.hugojourdan.ColorFlow = {
"0" = 0;
"1" = 0;
"10" = 0;
"11" = 0;
"2" = 0;
"3" = 0;
"4" = 0;
"5" = 0;
"6" = 0;
"7" = 0;
"8" = 0;
"9" = 0;
};
};
width = 570;
},
{
layerId = m003;
shapes = (
{
closed = 1;
nodes = (
(252,126,o),
(208,170,o),
(208,236,cs),
(208,301,o),
(252,345,o),
(312,345,cs),
(369,345,o),
(410,304,o),
(410,236,cs),
(410,167,o),
(369,126,o),
(312,126,cs)
);
},
{
closed = 1;
nodes = (
(298,483,o),
(240,474,o),
(213,449,c),
(214,464,l),
(214,470,l),
(56,470,l),
(56,-220,l),
(210,-220,l),
(210,-8,l),
(208,17,l),
(229,-2,o),
(287,-12,o),
(320,-12,cs),
(485,-12,o),
(568,102,o),
(568,236,cs),
(568,387,o),
(482,483,o),
(320,483,cs)
);
}
);
userData = {
com.hugojourdan.ColorFlow = {
"0" = 0;
"1" = 0;
"10" = 0;
"11" = 0;
"2" = 0;
"3" = 0;
"4" = 0;
"5" = 0;
"6" = 0;
"7" = 0;
"8" = 0;
"9" = 0;
};
};
width = 610;
}
);
unicode = 112;
},
{
color = 6;
glyphname = thorn;
kernLeft = sl;
kernRight = so;
lastChange = "2023-08-12 06:19:29 +0000";
layers = (
{
layerId = m01;
shapes = (
{
closed = 1;
nodes = (
(181,26,o),
(88,115,o),
(88,235,cs),
(88,357,o),
(181,445,o),
(292,445,cs),
(408,445,o),
(490,361,o),
(490,235,cs),
(490,109,o),
(408,26,o),
(292,26,cs)
);
},
{
closed = 1;
nodes = (
(181,483,o),
(114,417,o),
(92,360,c),
(94,675,l),
(94,683,l),
(56,683,l),
(56,-220,l),
(94,-220,l),
(94,12,l),
(92,114,l),
(115,49,o),
(179,-12,o),
(290,-12,cs),
(418,-12,o),
(528,82,o),
(528,235,cs),
(528,373,o),
(436,483,o),
(290,483,cs)
);
}
);
userData = {
com.hugojourdan.ColorFlow = {
"0" = 0;
"1" = 0;
"10" = 0;
"11" = 0;
"2" = 0;
"3" = 0;
"4" = 0;
"5" = 0;
"6" = 0;
"7" = 0;
"8" = 0;
"9" = 0;
};
};
width = 570;
},
{
layerId = m002;
shapes = (
{
closed = 1;
nodes = (
(194,65,o),
(128,143,o),
(128,235,cs),
(128,326,o),
(194,404,o),
(292,404,cs),
(387,404,o),
(450,329,o),
(450,235,cs),
(450,140,o),
(387,65,o),
(292,65,cs)
);
},
{
closed = 1;
nodes = (
(219,482,o),
(152,447,o),
(132,406,c),
(134,458,l),
(134,683,l),
(56,683,l),
(56,-217,l),
(130,-217,l),
(130,8,l),
(128,60,l),
(148,15,o),
(225,-13,o),
(290,-13,cs),
(431,-13,o),
(528,103,o),
(528,235,cs),
(528,382,o),
(432,482,o),
(290,482,cs)
);
}
);
userData = {
com.hugojourdan.ColorFlow = {
"0" = 0;
"1" = 0;
"10" = 0;
"11" = 0;
"2" = 0;
"3" = 0;
"4" = 0;
"5" = 0;
"6" = 0;
"7" = 0;
"8" = 0;
"9" = 0;
};
};
width = 570;
},
{
layerId = m003;
shapes = (
{
closed = 1;
nodes = (
(252,126,o),
(208,170,o),
(208,236,cs),
(208,301,o),
(252,345,o),
(312,345,cs),
(369,345,o),
(410,304,o),
(410,236,cs),
(410,167,o),
(369,126,o),
(312,126,cs)
);
},
{
closed = 1;
nodes = (
(298,483,o),
(240,474,o),
(213,449,c),
(214,464,l),
(214,683,l),
(56,683,l),
(56,-220,l),
(210,-220,l),
(210,-8,l),
(208,17,l),
(229,-2,o),
(287,-12,o),
(320,-12,cs),
(485,-12,o),
(568,102,o),
(568,236,cs),
(568,387,o),
(482,483,o),
(320,483,cs)
);
}
);
userData = {
com.hugojourdan.ColorFlow = {
"0" = 0;
"1" = 0;
"10" = 0;
"11" = 0;
"2" = 0;
"3" = 0;
"4" = 0;
"5" = 0;
"6" = 0;
"7" = 0;
"8" = 0;
"9" = 0;
};
};
width = 610;
}
);
unicode = 254;
},
{
color = 6;
glyphname = q;
kernLeft = so;
kernRight = sg;
lastChange = "2023-08-12 06:19:29 +0000";
layers = (
{
layerId = m01;
shapes = (
{
closed = 1;
nodes = (
(161,24,o),
(78,108,o),
(78,235,cs),
(78,362,o),
(161,447,o),
(278,447,cs),
(390,447,o),
(484,358,o),
(484,235,cs),
(484,114,o),
(390,24,o),
(278,24,cs)
);
},
{
closed = 1;
nodes = (
(134,483,o),
(42,373,o),
(42,235,cs),
(42,82,o),
(152,-12,o),
(280,-12,cs),
(391,-12,o),
(455,49,o),
(478,114,c),
(476,12,l),
(476,-220,l),
(514,-220,l),
(514,470,l),
(476,470,l),
(476,462,l),
(478,360,l),
(456,417,o),
(389,483,o),
(280,483,cs)
);
}
);
userData = {
com.hugojourdan.ColorFlow = {
"0" = 0;
"1" = 0;
"10" = 0;
"11" = 0;
"2" = 0;
"3" = 0;
"4" = 0;
"5" = 0;
"6" = 0;
"7" = 0;
"8" = 0;
"9" = 0;
};
};
width = 570;
},
{
layerId = m002;
shapes = (
{
closed = 1;
nodes = (
(183,65,o),
(120,140,o),
(120,235,cs),
(120,329,o),
(183,404,o),
(278,404,cs),
(376,404,o),
(442,326,o),
(442,235,cs),
(442,143,o),
(376,65,o),
(278,65,cs)
);
},
{
closed = 1;
nodes = (
(138,482,o),
(42,382,o),
(42,235,cs),
(42,103,o),
(139,-13,o),
(280,-13,cs),
(345,-13,o),
(422,15,o),
(442,60,c),
(440,8,l),
(440,-220,l),
(514,-220,l),
(514,470,l),
(436,470,l),
(436,458,l),
(438,406,l),
(418,447,o),
(351,482,o),
(280,482,cs)
);
}
);
userData = {
com.hugojourdan.ColorFlow = {
"0" = 0;
"1" = 0;
"10" = 0;
"11" = 0;
"2" = 0;
"3" = 0;
"4" = 0;
"5" = 0;
"6" = 0;
"7" = 0;
"8" = 0;
"9" = 0;
};
};
width = 570;
},
{
layerId = m003;
shapes = (
{
closed = 1;
nodes = (
(255,126,o),
(214,167,o),
(214,236,cs),
(214,304,o),
(255,345,o),
(312,345,cs),
(372,345,o),
(416,301,o),
(416,236,cs),
(416,170,o),
(372,126,o),
(312,126,cs)
);
},
{
closed = 1;
nodes = (
(142,483,o),
(56,387,o),
(56,236,cs),
(56,102,o),
(139,-12,o),
(304,-12,cs),
(337,-12,o),
(395,-2,o),
(416,17,c),
(414,-8,l),
(414,-220,l),
(568,-220,l),
(568,470,l),
(410,470,l),
(410,464,l),
(411,449,l),
(384,474,o),
(326,483,o),
(304,483,cs)
);
}
);
userData = {
com.hugojourdan.ColorFlow = {
"0" = 0;
"1" = 0;
"10" = 0;
"11" = 0;
"2" = 0;
"3" = 0;
"4" = 0;
"5" = 0;
"6" = 0;
"7" = 0;
"8" = 0;
"9" = 0;
};
};
width = 610;
}
);
unicode = 113;
},
{
color = 6;
glyphname = r;
kernLeft = sm;
kernRight = sf;
lastChange = "2023-08-12 06:19:29 +0000";
layers = (
{
anchors = (
{
name = bottom;
pos = (90,0);
},
{
name = top;
pos = (150,470);
}
);
layerId = m01;
shapes = (
{
closed = 1;
nodes = (
(232,481,o),
(212,483,o),
(192,483,cs),
(149,483,o),
(119,472,o),
(74,452,c),
(74,0,l),
(109,0,l),
(109,427,l),
(130,439,o),
(168,447,o),
(197,447,cs),
(212,447,o),
(228,446,o),
(246,442,c),
(254,476,l)
);
}
);
userData = {
com.hugojourdan.ColorFlow = {
"0" = 0;
"1" = 0;
"10" = 0;
"11" = 0;
"2" = 0;
"3" = 0;
"4" = 0;
"5" = 0;
"6" = 0;
"7" = 0;
"8" = 0;
"9" = 0;
};
};
width = 300;
},
{
anchors = (
{
name = bottom;
pos = (90,0);
},
{
name = top;
pos = (150,470);
}
);
layerId = m002;
shapes = (
{
closed = 1;
nodes = (
(247,481,o),
(218,483,o),
(192,483,cs),
(143,483,o),
(102,476,o),
(54,454,c),
(54,0,l),
(130,0,l),
(130,394,l),
(153,402,o),
(175,404,o),
(197,404,cs),
(213,404,o),
(228,403,o),
(255,397,c),
(273,476,l)
);
}
);
userData = {
com.hugojourdan.ColorFlow = {
"0" = 0;
"1" = 0;
"10" = 0;
"11" = 0;
"2" = 0;
"3" = 0;
"4" = 0;
"5" = 0;
"6" = 0;
"7" = 0;
"8" = 0;
"9" = 0;
};
};
width = 300;
},
{
anchors = (
{
name = bottom;
pos = (130,0);
},
{
name = top;
pos = (195,470);
}
);
layerId = m003;
shapes = (
{
closed = 1;
nodes = (
(331,480,o),
(271,483,o),
(242,483,cs),
(168,483,o),
(89,466,o),
(54,446,c),
(54,0,l),
(209,0,l),
(209,339,l),
(219,343,o),
(230,344,o),
(247,344,cs),
(279,344,o),
(306,340,o),
(331,330,c),
(363,466,l)
);
}
);
userData = {
com.hugojourdan.ColorFlow = {
"0" = 0;
"1" = 0;
"10" = 0;
"11" = 0;
"2" = 0;
"3" = 0;
"4" = 0;
"5" = 0;
"6" = 0;
"7" = 0;
"8" = 0;
"9" = 0;
};
};
width = 390;
}
);
unicode = 114;
},
{
color = 6;
glyphname = s;
kernLeft = ss;
kernRight = ss;
lastChange = "2023-08-12 06:19:29 +0000";
layers = (
{
anchors = (
{
name = bottom;
pos = (240,0);
},
{
name = top;
pos = (240,470);
}
);
layerId = m01;
shapes = (
{
closed = 1;
nodes = (
(354,-20,o),
(438,15,o),
(438,122,cs),
(438,197,o),
(353,230,o),
(263,247,cs),
(226,254,ls),
(153,268,o),
(94,300,o),
(94,354,cs),
(94,424,o),
(169,450,o),
(241,450,cs),
(300,450,o),
(358,429,o),
(395,394,c),
(422,417,l),
(361,468,o),
(300,485,o),
(240,485,cs),
(149,485,o),
(60,438,o),
(60,350,cs),
(60,275,o),
(136,237,o),
(224,218,cs),
(262,210,ls),
(330,196,o),
(405,169,o),
(405,119,cs),
(405,34,o),
(336,14,o),
(244,14,cs),
(173,14,o),
(106,40,o),
(64,83,c),
(38,59,l),
(95,5,o),
(162,-20,o),
(243,-20,cs)
);
}
);
userData = {
com.hugojourdan.ColorFlow = {
"0" = 0;
"1" = 0;
"10" = 0;
"11" = 0;
"2" = 0;
"3" = 0;
"4" = 0;
"5" = 0;
"6" = 0;
"7" = 0;
"8" = 0;
"9" = 0;
};
};
width = 480;
},
{
anchors = (
{
name = bottom;
pos = (240,0);
},
{
name = top;
pos = (240,470);
}
);
layerId = m002;
shapes = (
{
closed = 1;
nodes = (
(357,-20,o),
(440,18,o),
(440,122,cs),
(440,211,o),
(368,251,o),
(269,270,cs),
(232,277,ls),
(174,288,o),
(138,305,o),
(138,352,cs),
(138,385,o),
(185,409,o),
(243,409,cs),
(294,409,o),
(336,397,o),
(378,355,c),
(428,407,l),
(361,469,o),
(308,485,o),
(242,485,cs),
(140,485,o),
(62,432,o),
(62,350,cs),
(62,261,o),
(119,226,o),
(222,204,cs),
(260,196,ls),
(320,183,o),
(365,165,o),
(365,121,cs),
(365,76,o),
(310,55,o),
(246,55,cs),
(175,55,o),
(128,81,o),
(85,123,c),
(35,69,l),
(93,6,o),
(157,-20,o),
(245,-20,cs)
);
}
);
userData = {
com.hugojourdan.ColorFlow = {
"0" = 0;
"1" = 0;
"10" = 0;
"11" = 0;
"2" = 0;
"3" = 0;
"4" = 0;
"5" = 0;
"6" = 0;
"7" = 0;
"8" = 0;
"9" = 0;
};
};
width = 480;
},
{
anchors = (
{
name = bottom;
pos = (275,0);
},
{
name = top;
pos = (275,470);
}
);
layerId = m003;
shapes = (
{
closed = 1;
nodes = (
(410,-20,o),
(510,15,o),
(510,122,cs),
(510,212,o),
(445,261,o),
(318,285,cs),
(281,292,ls),
(240,300,o),
(228,312,o),
(228,332,cs),
(228,346,o),
(246,359,o),
(283,359,cs),
(327,359,o),
(378,338,o),
(419,309,c),
(503,406,l),
(445,461,o),
(366,485,o),
(282,485,cs),
(160,485,o),
(72,433,o),
(72,350,cs),
(72,278,o),
(120,207,o),
(252,179,cs),
(290,171,ls),
(328,163,o),
(355,149,o),
(355,131,cs),
(355,115,o),
(326,105,o),
(286,105,cs),
(229,105,o),
(163,121,o),
(120,160,c),
(35,69,l),
(104,0,o),
(178,-20,o),
(285,-20,cs)
);
}
);
userData = {
com.hugojourdan.ColorFlow = {
"0" = 0;
"1" = 0;
"10" = 0;
"11" = 0;
"2" = 0;
"3" = 0;
"4" = 0;
"5" = 0;
"6" = 0;
"7" = 0;
"8" = 0;
"9" = 0;
};
};
width = 550;
}
);
unicode = 115;
},
{
glyphname = saltillo;
lastChange = "2023-08-12 05:10:53 +0000";
layers = (
{
layerId = m01;
shapes = (
{
closed = 1;
nodes = (
(120,733,l),
(80,733,l),
(80,594,l),
(88,404,l),
(112,404,l),
(120,594,l)
);
}
);
userData = {
com.hugojourdan.ColorFlow = {
"0" = 0;
"1" = 0;
"10" = 0;
"11" = 0;
"2" = 0;
"3" = 0;
"4" = 0;
"5" = 0;
"6" = 0;
"7" = 0;
"8" = 0;
"9" = 0;
};
};
width = 200;
},
{
layerId = m002;
shapes = (
{
closed = 1;
nodes = (
(165,733,l),
(85,733,l),
(85,594,l),
(95,404,l),
(155,404,l),
(165,594,l)
);
}
);
userData = {
com.hugojourdan.ColorFlow = {
"0" = 0;
"1" = 0;
"10" = 0;
"11" = 0;
"2" = 0;
"3" = 0;
"4" = 0;
"5" = 0;
"6" = 0;
"7" = 0;
"8" = 0;
"9" = 0;
};
};
width = 250;
},
{
layerId = m003;
shapes = (
{
closed = 1;
nodes = (
(250,733,l),
(70,733,l),
(70,594,l),
(90,404,l),
(230,404,l),
(250,594,l)
);
}
);
userData = {
com.hugojourdan.ColorFlow = {
"0" = 0;
"1" = 0;
"10" = 0;
"11" = 0;
"2" = 0;
"3" = 0;
"4" = 0;
"5" = 0;
"6" = 0;
"7" = 0;
"8" = 0;
"9" = 0;
};
};
width = 320;
}
);
unicode = 42892;
},
{
color = 6;
glyphname = germandbls;
kernLeft = sl;
kernRight = sgd;
lastChange = "2023-08-12 06:19:29 +0000";
layers = (
{
layerId = m01;
shapes = (
{
closed = 1;
nodes = (
(419,-18,o),
(515,63,o),
(515,199,cs),
(515,288,o),
(431,367,o),
(377,388,c),
(419,399,o),
(490,447,o),
(490,549,cs),
(490,664,o),
(413,746,o),
(280,746,cs),
(150,746,o),
(79,664,o),
(78,520,cs),
(77,354,o),
(78,166,o),
(78,0,c),
(111,0,l),
(110,240,o),
(110,290,o),
(111,510,cs),
(112,640,o),
(167,710,o),
(280,710,cs),
(397,710,o),
(455,638,o),
(455,549,cs),
(455,461,o),
(395,413,o),
(311,407,cs),
(302,406,o),
(262,406,o),
(252,405,c),
(252,368,l),
(262,367,o),
(302,367,o),
(311,366,cs),
(397,360,o),
(480,286,o),
(480,203,cs),
(480,99,o),
(401,19,o),
(320,19,cs),
(282,19,o),
(233,41,o),
(201,58,c),
(181,31,l),
(230,-4,o),
(266,-16,o),
(323,-17,cs)
);
}
);
userData = {
com.hugojourdan.ColorFlow = {
"0" = 0;
"1" = 0;
"10" = 0;
"11" = 0;
"2" = 0;
"3" = 0;
"4" = 0;
"5" = 0;
"6" = 0;
"7" = 0;
"8" = 0;
"9" = 0;
};
};
width = 580;
},
{
layerId = m002;
shapes = (
{
closed = 1;
nodes = (
(464,-18,o),
(545,69,o),
(545,199,cs),
(545,283,o),
(502,350,o),
(438,388,c),
(490,425,o),
(520,484,o),
(520,549,cs),
(520,658,o),
(427,746,o),
(300,746,cs),
(179,746,o),
(79,678,o),
(78,530,cs),
(77,273,o),
(78,217,o),
(78,0,c),
(151,0,l),
(150,240,o),
(150,290,o),
(151,510,cs),
(152,641,o),
(217,670,o),
(300,670,cs),
(383,670,o),
(445,612,o),
(445,549,cs),
(445,479,o),
(397,432,o),
(310,427,cs),
(294,426,o),
(278,425,o),
(262,425,c),
(262,348,l),
(278,348,o),
(294,347,o),
(310,346,cs),
(393,341,o),
(470,290,o),
(470,203,cs),
(470,109,o),
(427,59,o),
(350,59,cs),
(308,59,o),
(260,75,o),
(225,104,c),
(194,35,l),
(241,1,o),
(288,-16,o),
(353,-17,cs)
);
}
);
userData = {
com.hugojourdan.ColorFlow = {
"0" = 0;
"1" = 0;
"10" = 0;
"11" = 0;
"2" = 0;
"3" = 0;
"4" = 0;
"5" = 0;
"6" = 0;
"7" = 0;
"8" = 0;
"9" = 0;
};
};
width = 610;
},
{
layerId = m003;
shapes = (
{
closed = 1;
nodes = (
(528,-17,o),
(615,62,o),
(615,199,cs),
(615,306,o),
(569,377,o),
(485,397,c),
(558,418,o),
(590,469,o),
(590,549,cs),
(590,654,o),
(497,746,o),
(340,746,cs),
(187,746,o),
(79,661,o),
(78,530,cs),
(77,364,o),
(78,166,o),
(78,0,c),
(228,0,l),
(227,240,o),
(225,280,o),
(228,500,cs),
(229,584,o),
(277,610,o),
(340,610,cs),
(390,610,o),
(435,588,o),
(435,539,cs),
(435,493,o),
(403,470,o),
(337,467,cs),
(321,466,o),
(305,465,o),
(292,465,c),
(292,328,l),
(305,328,o),
(321,327,o),
(337,326,cs),
(393,323,o),
(460,290,o),
(460,218,cs),
(460,150,o),
(419,119,o),
(380,119,cs),
(352,119,o),
(321,130,o),
(300,140,c),
(253,21,l),
(281,1,o),
(328,-17,o),
(392,-17,cs)
);
}
);
userData = {
com.hugojourdan.ColorFlow = {
"0" = 0;
"1" = 0;
"10" = 0;
"11" = 0;
"2" = 0;
"3" = 0;
"4" = 0;
"5" = 0;
"6" = 0;
"7" = 0;
"8" = 0;
"9" = 0;
};
};
width = 680;
}
);
unicode = 223;
},
{
color = 6;
glyphname = t;
kernLeft = st;
kernRight = st;
lastChange = "2023-08-12 06:19:29 +0000";
layers = (
{
anchors = (
{
name = bottom;
pos = (240,0);
},
{
name = center;
pos = (160,235);
},
{
name = top;
pos = (160,470);
},
{
name = topright;
pos = (230,880);
}
);
layerId = m01;
shapes = (
{
closed = 1;
nodes = (
(257,-13,o),
(268,-11,o),
(283,-5,c),
(270,25,l),
(255,21,o),
(246,20,o),
(235,21,cs),
(169,27,o),
(159,83,o),
(159,149,cs),
(158,229,o),
(158,358,o),
(159,438,c),
(246,438,l),
(246,470,l),
(159,470,l),
(159,568,l),
(123,568,l),
(123,470,l),
(48,470,l),
(42,438,l),
(124,438,l),
(123,345,o),
(124,271,o),
(124,138,cs),
(124,37,o),
(158,-13,o),
(241,-13,cs)
);
}
);
userData = {
com.hugojourdan.ColorFlow = {
"0" = 0;
"1" = 0;
"10" = 0;
"11" = 0;
"2" = 0;
"3" = 0;
"4" = 0;
"5" = 0;
"6" = 0;
"7" = 0;
"8" = 0;
"9" = 0;
};
};
width = 320;
},
{
anchors = (
{
name = bottom;
pos = (230,0);
},
{
name = center;
pos = (160,235);
},
{
name = top;
pos = (160,470);
},
{
name = topright;
pos = (230,880);
}
);
layerId = m002;
shapes = (
{
closed = 1;
nodes = (
(244,-14,o),
(262,-13,o),
(280,-7,c),
(267,71,l),
(250,66,o),
(242,66,o),
(235,66,cs),
(189,66,o),
(181,111,o),
(181,159,cs),
(180,239,o),
(180,318,o),
(181,398,c),
(266,398,l),
(266,470,l),
(181,470,l),
(181,568,l),
(104,568,l),
(104,470,l),
(38,470,l),
(22,398,l),
(105,398,l),
(104,305,o),
(104,251,o),
(105,118,cs),
(105,31,o),
(168,-14,o),
(231,-14,cs)
);
}
);
userData = {
com.hugojourdan.ColorFlow = {
"0" = 0;
"1" = 0;
"10" = 0;
"11" = 0;
"2" = 0;
"3" = 0;
"4" = 0;
"5" = 0;
"6" = 0;
"7" = 0;
"8" = 0;
"9" = 0;
};
};
width = 320;
},
{
anchors = (
{
name = bottom;
pos = (280,0);
},
{
name = center;
pos = (210,235);
},
{
name = top;
pos = (210,470);
},
{
name = topright;
pos = (360,880);
}
);
layerId = m003;
shapes = (
{
closed = 1;
nodes = (
(316,-14,o),
(358,-10,o),
(380,1,c),
(356,131,l),
(343,126,o),
(328,125,o),
(314,125,cs),
(287,125,o),
(271,147,o),
(270,189,cs),
(269,229,o),
(269,258,o),
(270,338,c),
(365,338,l),
(365,470,l),
(270,470,l),
(270,568,l),
(113,568,l),
(113,470,l),
(48,470,l),
(22,338,l),
(114,338,l),
(113,255,o),
(113,221,o),
(114,158,cs),
(115,66,o),
(170,-14,o),
(280,-14,cs)
);
}
);
userData = {
com.hugojourdan.ColorFlow = {
"0" = 0;
"1" = 0;
"10" = 0;
"11" = 0;
"2" = 0;
"3" = 0;
"4" = 0;
"5" = 0;
"6" = 0;
"7" = 0;
"8" = 0;
"9" = 0;
};
};
width = 420;
}
);
unicode = 116;
},
{
color = 6;
glyphname = u;
kernLeft = su;
kernRight = sm;
lastChange = "2023-08-12 06:20:18 +0000";
layers = (
{
anchors = (
{
name = bottom;
pos = (250,0);
},
{
name = ogonek;
pos = (394,10);
},
{
name = top;
pos = (250,480);
},
{
name = topright;
pos = (485,470);
}
);
layerId = m01;
shapes = (
{
closed = 1;
nodes = (
(382,48,l),
(359,32,o),
(315,20,o),
(262,20,cs),
(148,20,o),
(85,73,o),
(84,210,cs),
(83,295,o),
(86,385,o),
(87,470,c),
(50,470,l),
(49,375,o),
(49,294,o),
(50,199,cs),
(51,72,o),
(109,-13,o),
(265,-13,cs),
(325,-13,o),
(359,-3,o),
(416,25,c),
(416,470,l),
(382,470,l)
);
}
);
userData = {
com.hugojourdan.ColorFlow = {
"0" = 0;
"1" = 0;
"10" = 0;
"11" = 0;
"2" = 0;
"3" = 0;
"4" = 0;
"5" = 0;
"6" = 0;
"7" = 0;
"8" = 0;
"9" = 0;
};
};
width = 470;
},
{
anchors = (
{
name = bottom;
pos = (250,0);
},
{
name = ogonek;
pos = (394,10);
},
{
name = top;
pos = (250,480);
},
{
name = topright;
pos = (485,470);
}
);
layerId = m002;
shapes = (
{
closed = 1;
nodes = (
(372,90,l),
(354,77,o),
(319,68,o),
(270,68,cs),
(169,68,o),
(128,105,o),
(127,220,cs),
(126,305,o),
(126,385,o),
(127,470,c),
(50,470,l),
(49,375,o),
(49,294,o),
(50,199,cs),
(51,78,o),
(111,-13,o),
(282,-13,cs),
(351,-13,o),
(391,1,o),
(449,31,c),
(449,470,l),
(372,470,l)
);
}
);
userData = {
com.hugojourdan.ColorFlow = {
"0" = 0;
"1" = 0;
"10" = 0;
"11" = 0;
"2" = 0;
"3" = 0;
"4" = 0;
"5" = 0;
"6" = 0;
"7" = 0;
"8" = 0;
"9" = 0;
};
};
width = 503;
},
{
anchors = (
{
name = bottom;
pos = (292,0);
},
{
name = ogonek;
pos = (484,10);
},
{
name = top;
pos = (292,480);
},
{
name = topright;
pos = (582,470);
}
);
layerId = m003;
shapes = (
{
closed = 1;
nodes = (
(391,140,l),
(377,133,o),
(343,128,o),
(312,128,cs),
(244,128,o),
(208,160,o),
(207,220,cs),
(206,305,o),
(206,385,o),
(207,470,c),
(50,470,l),
(49,375,o),
(49,294,o),
(50,199,cs),
(51,91,o),
(112,-13,o),
(325,-13,cs),
(378,-13,o),
(497,-4,o),
(546,26,c),
(546,470,l),
(391,470,l)
);
}
);
userData = {
com.hugojourdan.ColorFlow = {
"0" = 0;
"1" = 0;
"10" = 0;
"11" = 0;
"2" = 0;
"3" = 0;
"4" = 0;
"5" = 0;
"6" = 0;
"7" = 0;
"8" = 0;
"9" = 0;
};
};
width = 600;
}
);
unicode = 117;
},
{
color = 6;
glyphname = v;
kernLeft = sv;
kernRight = sv;
lastChange = "2023-08-12 06:20:18 +0000";
layers = (
{
layerId = m01;
shapes = (
{
closed = 1;
nodes = (
(455,470,l),
(300,99,l),
(263,10,l),
(267,10,l),
(230,99,l),
(75,470,l),
(37,470,l),
(240,0,l),
(290,0,l),
(493,470,l)
);
}
);
userData = {
com.hugojourdan.ColorFlow = {
"0" = 0;
"1" = 0;
"10" = 0;
"11" = 0;
"2" = 0;
"3" = 0;
"4" = 0;
"5" = 0;
"6" = 0;
"7" = 0;
"8" = 0;
"9" = 0;
};
};
width = 530;
},
{
layerId = m002;
shapes = (
{
closed = 1;
nodes = (
(421,470,l),
(293,149,l),
(254,43,l),
(276,43,l),
(237,149,l),
(109,470,l),
(28,470,l),
(224,0,l),
(306,0,l),
(502,470,l)
);
}
);
userData = {
com.hugojourdan.ColorFlow = {
"0" = 0;
"1" = 0;
"10" = 0;
"11" = 0;
"2" = 0;
"3" = 0;
"4" = 0;
"5" = 0;
"6" = 0;
"7" = 0;
"8" = 0;
"9" = 0;
};
};
width = 530;
},
{
layerId = m003;
shapes = (
{
closed = 1;
nodes = (
(429,470,l),
(346,249,l),
(277,43,l),
(353,43,l),
(284,249,l),
(201,470,l),
(28,470,l),
(228,0,l),
(402,0,l),
(602,470,l)
);
}
);
userData = {
com.hugojourdan.ColorFlow = {
"0" = 0;
"1" = 0;
"10" = 0;
"11" = 0;
"2" = 0;
"3" = 0;
"4" = 0;
"5" = 0;
"6" = 0;
"7" = 0;
"8" = 0;
"9" = 0;
};
};
width = 630;
}
);
unicode = 118;
},
{
color = 6;
glyphname = w;
kernLeft = sw;
kernRight = sw;
lastChange = "2023-08-12 06:20:18 +0000";
layers = (
{
anchors = (
{
name = bottom;
pos = (360,0);
},
{
name = top;
pos = (360,480);
}
);
layerId = m01;
shapes = (
{
closed = 1;
nodes = (
(342,470,l),
(230,89,l),
(209,15,l),
(214,15,l),
(192,89,l),
(70,470,l),
(33,470,l),
(187,0,l),
(237,0,l),
(346,383,l),
(364,452,l),
(356,452,l),
(374,383,l),
(483,0,l),
(533,0,l),
(687,470,l),
(650,470,l),
(528,89,l),
(505,15,l),
(510,15,l),
(490,89,l),
(378,470,l)
);
}
);
userData = {
com.hugojourdan.ColorFlow = {
"0" = 0;
"1" = 0;
"10" = 0;
"11" = 0;
"2" = 0;
"3" = 0;
"4" = 0;
"5" = 0;
"6" = 0;
"7" = 0;
"8" = 0;
"9" = 0;
};
};
width = 720;
},
{
anchors = (
{
name = bottom;
pos = (370,0);
},
{
name = top;
pos = (370,480);
}
);
layerId = m002;
shapes = (
{
closed = 1;
nodes = (
(328,470,l),
(248,149,l),
(220,41,l),
(230,41,l),
(203,149,l),
(109,470,l),
(29,470,l),
(180,0,l),
(267,0,l),
(351,293,l),
(379,404,l),
(361,404,l),
(389,293,l),
(473,0,l),
(560,0,l),
(711,470,l),
(631,470,l),
(537,149,l),
(510,41,l),
(520,41,l),
(492,149,l),
(412,470,l)
);
}
);
userData = {
com.hugojourdan.ColorFlow = {
"0" = 0;
"1" = 0;
"10" = 0;
"11" = 0;
"2" = 0;
"3" = 0;
"4" = 0;
"5" = 0;
"6" = 0;
"7" = 0;
"8" = 0;
"9" = 0;
};
};
width = 740;
},
{
anchors = (
{
name = bottom;
pos = (430,0);
},
{
name = top;
pos = (430,480);
}
);
layerId = m003;
shapes = (
{
closed = 1;
nodes = (
(339,470,l),
(300,249,l),
(270,41,l),
(309,41,l),
(261,249,l),
(205,470,l),
(29,470,l),
(192,0,l),
(375,0,l),
(399,93,l),
(447,364,l),
(413,364,l),
(461,93,l),
(485,0,l),
(668,0,l),
(831,470,l),
(655,470,l),
(599,249,l),
(551,41,l),
(590,41,l),
(560,249,l),
(521,470,l)
);
}
);
userData = {
com.hugojourdan.ColorFlow = {
"0" = 0;
"1" = 0;
"10" = 0;
"11" = 0;
"2" = 0;
"3" = 0;
"4" = 0;
"5" = 0;
"6" = 0;
"7" = 0;
"8" = 0;
"9" = 0;
};
};
width = 860;
}
);
unicode = 119;
},
{
color = 6;
glyphname = x;
kernLeft = sx;
kernRight = sx;
lastChange = "2023-08-12 06:20:18 +0000";
layers = (
{
layerId = m01;
shapes = (
{
closed = 1;
nodes = (
(82,0,l),
(240,214,l),
(398,0,l),
(441,0,l),
(264,234,l),
(438,470,l),
(394,470,l),
(240,258,l),
(86,470,l),
(42,470,l),
(216,234,l),
(39,0,l)
);
}
);
userData = {
com.hugojourdan.ColorFlow = {
"0" = 0;
"1" = 0;
"10" = 0;
"11" = 0;
"2" = 0;
"3" = 0;
"4" = 0;
"5" = 0;
"6" = 0;
"7" = 0;
"8" = 0;
"9" = 0;
};
};
width = 480;
},
{
layerId = m002;
shapes = (
{
closed = 1;
nodes = (
(131,0,l),
(260,176,l),
(389,0,l),
(477,0,l),
(300,236,l),
(474,470,l),
(388,470,l),
(260,296,l),
(132,470,l),
(46,470,l),
(220,236,l),
(43,0,l)
);
}
);
userData = {
com.hugojourdan.ColorFlow = {
"0" = 0;
"1" = 0;
"10" = 0;
"11" = 0;
"2" = 0;
"3" = 0;
"4" = 0;
"5" = 0;
"6" = 0;
"7" = 0;
"8" = 0;
"9" = 0;
};
};
width = 520;
},
{
layerId = m003;
shapes = (
{
closed = 1;
nodes = (
(221,0,l),
(310,131,l),
(399,0,l),
(577,0,l),
(405,238,l),
(576,470,l),
(400,470,l),
(310,331,l),
(220,470,l),
(44,470,l),
(216,238,l),
(43,0,l)
);
}
);
userData = {
com.hugojourdan.ColorFlow = {
"0" = 0;
"1" = 0;
"10" = 0;
"11" = 0;
"2" = 0;
"3" = 0;
"4" = 0;
"5" = 0;
"6" = 0;
"7" = 0;
"8" = 0;
"9" = 0;
};
};
width = 620;
}
);
unicode = 120;
},
{
color = 6;
glyphname = y;
kernLeft = sy;
kernRight = sy;
lastChange = "2023-08-12 06:20:18 +0000";
layers = (
{
anchors = (
{
name = bottom;
pos = (260,-220);
},
{
name = top;
pos = (260,480);
}
);
layerId = m01;
shapes = (
{
closed = 1;
nodes = (
(449,470,l),
(292,109,l),
(253,12,l),
(266,12,l),
(229,109,l),
(72,470,l),
(34,470,l),
(243,-5,l),
(151,-220,l),
(189,-220,l),
(487,470,l)
);
}
);
userData = {
com.hugojourdan.ColorFlow = {
"0" = 0;
"1" = 0;
"10" = 0;
"11" = 0;
"2" = 0;
"3" = 0;
"4" = 0;
"5" = 0;
"6" = 0;
"7" = 0;
"8" = 0;
"9" = 0;
};
};
width = 520;
},
{
anchors = (
{
name = bottom;
pos = (260,-220);
},
{
name = top;
pos = (260,480);
}
);
layerId = m002;
shapes = (
{
closed = 1;
nodes = (
(417,470,l),
(287,149,l),
(246,32,l),
(275,32,l),
(232,149,l),
(104,470,l),
(23,470,l),
(219,-5,l),
(128,-220,l),
(210,-220,l),
(498,470,l)
);
}
);
userData = {
com.hugojourdan.ColorFlow = {
"0" = 0;
"1" = 0;
"10" = 0;
"11" = 0;
"2" = 0;
"3" = 0;
"4" = 0;
"5" = 0;
"6" = 0;
"7" = 0;
"8" = 0;
"9" = 0;
};
};
width = 520;
},
{
anchors = (
{
name = bottom;
pos = (310,-220);
},
{
name = top;
pos = (310,480);
}
);
layerId = m003;
shapes = (
{
closed = 1;
nodes = (
(425,470,l),
(340,249,l),
(289,82,l),
(332,82,l),
(281,249,l),
(196,470,l),
(23,470,l),
(227,-5,l),
(132,-220,l),
(306,-220,l),
(598,470,l)
);
}
);
userData = {
com.hugojourdan.ColorFlow = {
"0" = 0;
"1" = 0;
"10" = 0;
"11" = 0;
"2" = 0;
"3" = 0;
"4" = 0;
"5" = 0;
"6" = 0;
"7" = 0;
"8" = 0;
"9" = 0;
};
};
width = 620;
}
);
unicode = 121;
},
{
color = 6;
glyphname = z;
kernLeft = sb;
kernRight = sg;
lastChange = "2023-08-12 06:20:18 +0000";
layers = (
{
anchors = (
{
name = bottom;
pos = (225,0);
},
{
name = center;
pos = (225,235);
},
{
name = top;
pos = (225,470);
}
);
layerId = m01;
shapes = (
{
closed = 1;
nodes = (
(413,0,l),
(413,37,l),
(132,37,l),
(64,34,l),
(73,27,l),
(404,444,l),
(404,470,l),
(46,470,l),
(46,435,l),
(314,435,l),
(372,438,l),
(364,445,l),
(37,38,l),
(37,0,l)
);
}
);
userData = {
com.hugojourdan.ColorFlow = {
"0" = 0;
"1" = 0;
"10" = 0;
"11" = 0;
"2" = 0;
"3" = 0;
"4" = 0;
"5" = 0;
"6" = 0;
"7" = 0;
"8" = 0;
"9" = 0;
};
};
width = 450;
},
{
anchors = (
{
name = bottom;
pos = (225,0);
},
{
name = center;
pos = (225,235);
},
{
name = top;
pos = (225,470);
}
);
layerId = m002;
shapes = (
{
closed = 1;
nodes = (
(413,0,l),
(413,76,l),
(172,76,l),
(87,73,l),
(104,41,l),
(404,410,l),
(404,470,l),
(46,470,l),
(46,396,l),
(275,396,l),
(350,400,l),
(334,431,l),
(37,72,l),
(37,0,l)
);
}
);
userData = {
com.hugojourdan.ColorFlow = {
"0" = 0;
"1" = 0;
"10" = 0;
"11" = 0;
"2" = 0;
"3" = 0;
"4" = 0;
"5" = 0;
"6" = 0;
"7" = 0;
"8" = 0;
"9" = 0;
};
};
width = 450;
},
{
anchors = (
{
name = bottom;
pos = (260,0);
},
{
name = center;
pos = (260,235);
},
{
name = top;
pos = (260,470);
}
);
layerId = m003;
shapes = (
{
closed = 1;
nodes = (
(483,0,l),
(483,142,l),
(303,142,l),
(162,132,l),
(157,42,l),
(474,374,l),
(474,470,l),
(46,470,l),
(46,330,l),
(200,330,l),
(335,340,l),
(352,430,l),
(37,108,l),
(37,0,l)
);
}
);
userData = {
com.hugojourdan.ColorFlow = {
"0" = 0;
"1" = 0;
"10" = 0;
"11" = 0;
"2" = 0;
"3" = 0;
"4" = 0;
"5" = 0;
"6" = 0;
"7" = 0;
"8" = 0;
"9" = 0;
};
};
width = 520;
}
);
unicode = 122;
},
{
color = 7;
glyphname = a.ss01;
kernLeft = so;
kernRight = si;
lastChange = "2023-08-12 06:20:42 +0000";
layers = (
{
anchors = (
{
name = bottom;
pos = (268,0);
},
{
name = ogonek;
pos = (453,10);
},
{
name = top;
pos = (278,480);
}
);
layerId = m01;
shapes = (
{
closed = 1;
nodes = (
(427,231,o),
(427,177,o),
(427,125,cs),
(427,45,o),
(335,22,o),
(240,22,cs),
(144,22,o),
(82,63,o),
(82,137,cs),
(82,199,o),
(133,247,o),
(240,247,cs),
(334,247,o),
(401,233,o),
(447,215,c),
(447,239,l),
(376,265,o),
(308,280,o),
(240,280,cs),
(124,280,o),
(49,221,o),
(49,137,cs),
(49,45,o),
(126,-13,o),
(240,-13,cs),
(346,-13,o),
(409,14,o),
(429,67,c),
(426,20,l),
(426,0,l),
(459,0,l),
(460,78,o),
(460,195,o),
(459,273,cs),
(457,407,o),
(381,482,o),
(268,482,cs),
(198,482,o),
(121,457,o),
(75,396,c),
(100,370,l),
(137,417,o),
(197,450,o),
(268,450,cs),
(372,450,o),
(424,376,o),
(426,273,cs)
);
}
);
userData = {
com.hugojourdan.ColorFlow = {
"0" = 0;
"1" = 0;
"10" = 0;
"11" = 0;
"2" = 0;
"3" = 0;
"4" = 0;
"5" = 0;
"6" = 0;
"7" = 0;
"8" = 0;
"9" = 0;
};
};
width = 510;
},
{
anchors = (
{
name = bottom;
pos = (258,0);
},
{
name = ogonek;
pos = (447,10);
},
{
name = top;
pos = (273,480);
}
);
layerId = m002;
shapes = (
{
closed = 1;
nodes = (
(397,231,o),
(397,187,o),
(397,155,cs),
(397,95,o),
(345,62,o),
(250,62,cs),
(174,62,o),
(126,83,o),
(126,137,cs),
(126,187,o),
(178,219,o),
(250,219,cs),
(304,219,o),
(381,206,o),
(417,190,c),
(417,249,l),
(386,270,o),
(328,291,o),
(250,291,cs),
(149,291,o),
(47,241,o),
(47,137,cs),
(47,25,o),
(136,-13,o),
(240,-13,cs),
(316,-13,o),
(369,4,o),
(399,57,c),
(396,20,l),
(396,0,l),
(469,0,l),
(470,78,o),
(470,195,o),
(469,273,cs),
(467,407,o),
(371,482,o),
(258,482,cs),
(178,482,o),
(118,456,o),
(67,398,c),
(119,343,l),
(161,390,o),
(207,410,o),
(258,410,cs),
(342,410,o),
(394,366,o),
(396,273,cs)
);
}
);
userData = {
com.hugojourdan.ColorFlow = {
"0" = 0;
"1" = 0;
"10" = 0;
"11" = 0;
"2" = 0;
"3" = 0;
"4" = 0;
"5" = 0;
"6" = 0;
"7" = 0;
"8" = 0;
"9" = 0;
};
};
width = 520;
},
{
anchors = (
{
name = bottom;
pos = (288,0);
},
{
name = ogonek;
pos = (480,10);
},
{
name = top;
pos = (308,480);
}
);
layerId = m003;
shapes = (
{
closed = 1;
nodes = (
(397,243,o),
(397,211,o),
(396,185,cs),
(394,145,o),
(375,108,o),
(300,108,cs),
(244,108,o),
(216,118,o),
(216,138,cs),
(216,158,o),
(244,169,o),
(300,169,cs),
(354,169,o),
(381,156,o),
(417,140,c),
(417,249,l),
(391,270,o),
(338,291,o),
(280,291,cs),
(119,291,o),
(47,227,o),
(47,133,cs),
(47,21,o),
(146,-17,o),
(270,-17,cs),
(346,-17,o),
(381,5,o),
(398,26,c),
(396,6,l),
(396,0,l),
(549,0,l),
(550,78,o),
(550,195,o),
(549,273,cs),
(547,427,o),
(401,482,o),
(288,482,cs),
(208,482,o),
(128,456,o),
(77,418,c),
(156,306,l),
(198,341,o),
(237,350,o),
(288,350,cs),
(372,350,o),
(395,306,o),
(396,273,cs)
);
}
);
userData = {
com.hugojourdan.ColorFlow = {
"0" = 0;
"1" = 0;
"10" = 0;
"11" = 0;
"2" = 0;
"3" = 0;
"4" = 0;
"5" = 0;
"6" = 0;
"7" = 0;
"8" = 0;
"9" = 0;
};
};
width = 600;
}
);
},
{
color = 7;
glyphname = h.ss02;
kernLeft = sb;
kernRight = sn;
lastChange = "2023-08-12 06:20:42 +0000";
layers = (
{
anchors = (
{
name = bottom;
pos = (250,0);
},
{
name = top;
pos = (74,700);
}
);
layerId = m01;
shapes = (
{
closed = 1;
nodes = (
(54,0,l),
(90,0,l),
(90,355,l),
(85,355,l),
(90,460,l),
(90,733,l),
(54,733,l)
);
},
{
closed = 1;
nodes = (
(90,270,l),
(90,397,o),
(170,450,o),
(254,450,cs),
(338,450,o),
(417,397,o),
(418,270,cs),
(419,185,o),
(419,85,o),
(418,0,c),
(453,0,l),
(454,95,o),
(454,176,o),
(453,271,cs),
(452,398,o),
(377,483,o),
(251,483,cs),
(125,483,o),
(55,398,o),
(55,271,c)
);
}
);
userData = {
com.hugojourdan.ColorFlow = {
"0" = 0;
"1" = 0;
"10" = 0;
"11" = 0;
"2" = 0;
"3" = 0;
"4" = 0;
"5" = 0;
"6" = 0;
"7" = 0;
"8" = 0;
"9" = 0;
};
};
width = 500;
},
{
anchors = (
{
name = bottom;
pos = (270,0);
},
{
name = top;
pos = (93,700);
}
);
layerId = m002;
shapes = (
{
closed = 1;
nodes = (
(54,0,l),
(131,0,l),
(131,355,l),
(124,355,l),
(129,460,l),
(129,733,l),
(54,733,l)
);
},
{
closed = 1;
nodes = (
(131,270,l),
(131,357,o),
(190,410,o),
(271,410,cs),
(355,410,o),
(413,357,o),
(414,270,cs),
(415,185,o),
(415,85,o),
(414,0,c),
(490,0,l),
(491,95,o),
(491,176,o),
(490,271,cs),
(489,398,o),
(404,483,o),
(268,483,cs),
(146,483,o),
(75,378,o),
(75,271,c)
);
}
);
userData = {
com.hugojourdan.ColorFlow = {
"0" = 0;
"1" = 0;
"10" = 0;
"11" = 0;
"2" = 0;
"3" = 0;
"4" = 0;
"5" = 0;
"6" = 0;
"7" = 0;
"8" = 0;
"9" = 0;
};
};
width = 540;
},
{
anchors = (
{
name = bottom;
pos = (310,0);
},
{
name = top;
pos = (133,700);
}
);
layerId = m003;
shapes = (
{
closed = 1;
nodes = (
(54,0,l),
(211,0,l),
(211,355,l),
(196,375,l),
(207,475,l),
(207,733,l),
(54,733,l)
);
},
{
closed = 1;
nodes = (
(211,230,l),
(211,297,o),
(238,340,o),
(302,340,cs),
(366,340,o),
(393,297,o),
(394,230,cs),
(395,145,o),
(395,85,o),
(394,0,c),
(570,0,l),
(571,95,o),
(571,136,o),
(570,231,cs),
(569,408,o),
(454,483,o),
(328,483,cs),
(201,483,o),
(75,358,o),
(105,211,c)
);
}
);
userData = {
com.hugojourdan.ColorFlow = {
"0" = 0;
"1" = 0;
"10" = 0;
"11" = 0;
"2" = 0;
"3" = 0;
"4" = 0;
"5" = 0;
"6" = 0;
"7" = 0;
"8" = 0;
"9" = 0;
};
};
width = 620;
}
);
},
{
glyphname = hbar.ss02;
kernLeft = sb;
kernRight = sn;
lastChange = "2023-08-12 05:20:44 +0000";
layers = (
{
layerId = m01;
shapes = (
{
pos = (20,0);
ref = h.ss02;
},
{
closed = 1;
nodes = (
(13,584,l),
(307,584,l),
(307,620,l),
(22,620,l)
);
}
);
userData = {
com.hugojourdan.ColorFlow = {
"0" = 0;
"1" = 0;
"10" = 0;
"11" = 0;
"2" = 0;
"3" = 0;
"4" = 0;
"5" = 0;
"6" = 0;
"7" = 0;
"8" = 0;
"9" = 0;
};
};
width = 520;
},
{
layerId = m002;
shapes = (
{
pos = (20,0);
ref = h.ss02;
},
{
closed = 1;
nodes = (
(12,565,l),
(352,565,l),
(352,639,l),
(32,639,l)
);
}
);
userData = {
com.hugojourdan.ColorFlow = {
"0" = 0;
"1" = 0;
"10" = 0;
"11" = 0;
"2" = 0;
"3" = 0;
"4" = 0;
"5" = 0;
"6" = 0;
"7" = 0;
"8" = 0;
"9" = 0;
};
};
width = 560;
},
{
layerId = m003;
shapes = (
{
pos = (20,0);
ref = h.ss02;
},
{
closed = 1;
nodes = (
(12,545,l),
(382,545,l),
(382,659,l),
(49,659,l)
);
}
);
userData = {
com.hugojourdan.ColorFlow = {
"0" = 0;
"1" = 0;
"10" = 0;
"11" = 0;
"2" = 0;
"3" = 0;
"4" = 0;
"5" = 0;
"6" = 0;
"7" = 0;
"8" = 0;
"9" = 0;
};
};
width = 640;
}
);
},
{
color = 7;
glyphname = k.ss02;
kernLeft = sb;
kernRight = sk;
lastChange = "2023-08-12 06:20:36 +0000";
layers = (
{
anchors = (
{
name = bottom;
pos = (240,0);
},
{
name = top;
pos = (240,880);
}
);
layerId = m01;
shapes = (
{
closed = 1;
nodes = (
(65,0,l),
(97,0,l),
(97,733,l),
(65,733,l)
);
},
{
closed = 1;
nodes = (
(74,168,l),
(408,470,l),
(360,470,l),
(87,221,l)
);
},
{
closed = 1;
nodes = (
(148,249,l),
(372,0,l),
(418,0,l),
(166,278,l)
);
}
);
userData = {
com.hugojourdan.ColorFlow = {
"0" = 0;
"1" = 0;
"10" = 0;
"11" = 0;
"2" = 0;
"3" = 0;
"4" = 0;
"5" = 0;
"6" = 0;
"7" = 0;
"8" = 0;
"9" = 0;
};
};
width = 450;
},
{
anchors = (
{
name = bottom;
pos = (260,0);
},
{
name = top;
pos = (260,880);
}
);
layerId = m002;
shapes = (
{
closed = 1;
nodes = (
(65,0,l),
(137,0,l),
(137,733,l),
(65,733,l)
);
},
{
closed = 1;
nodes = (
(124,168,l),
(458,470,l),
(351,470,l),
(78,221,l)
);
},
{
closed = 1;
nodes = (
(150,249,l),
(377,0,l),
(468,0,l),
(207,288,l)
);
}
);
userData = {
com.hugojourdan.ColorFlow = {
"0" = 0;
"1" = 0;
"10" = 0;
"11" = 0;
"2" = 0;
"3" = 0;
"4" = 0;
"5" = 0;
"6" = 0;
"7" = 0;
"8" = 0;
"9" = 0;
};
};
width = 490;
},
{
anchors = (
{
name = bottom;
pos = (310,0);
},
{
name = top;
pos = (310,880);
}
);
layerId = m003;
shapes = (
{
closed = 1;
nodes = (
(65,0,l),
(213,0,l),
(213,733,l),
(65,733,l)
);
},
{
closed = 1;
nodes = (
(195,122,l),
(558,470,l),
(351,470,l),
(98,226,l)
);
},
{
closed = 1;
nodes = (
(177,249,l),
(379,0,l),
(568,0,l),
(322,298,l)
);
}
);
userData = {
com.hugojourdan.ColorFlow = {
"0" = 0;
"1" = 0;
"10" = 0;
"11" = 0;
"2" = 0;
"3" = 0;
"4" = 0;
"5" = 0;
"6" = 0;
"7" = 0;
"8" = 0;
"9" = 0;
};
};
width = 590;
}
);
},
{
glyphname = m.ss02;
kernLeft = sm;
kernRight = sm;
lastChange = "2023-08-12 05:55:35 +0000";
layers = (
{
anchors = (
{
name = bottom;
pos = (375,0);
},
{
name = top;
pos = (375,470);
}
);
layerId = m01;
shapes = (
{
closed = 1;
nodes = (
(54,0,l),
(90,0,l),
(90,355,l),
(80,355,l),
(85,450,l),
(85,470,l),
(54,470,l)
);
},
{
closed = 1;
nodes = (
(90,290,l),
(90,417,o),
(170,450,o),
(224,450,cs),
(278,450,o),
(358,417,o),
(358,290,cs),
(358,0,l),
(393,0,l),
(393,291,l),
(392,418,o),
(317,483,o),
(221,483,cs),
(125,483,o),
(55,418,o),
(55,291,c)
);
},
{
closed = 1;
nodes = (
(393,290,l),
(393,417,o),
(473,450,o),
(527,450,cs),
(581,450,o),
(660,417,o),
(661,290,cs),
(662,205,o),
(662,85,o),
(661,0,c),
(696,0,l),
(697,95,o),
(697,196,o),
(696,291,cs),
(695,418,o),
(620,483,o),
(524,483,cs),
(428,483,o),
(363,418,o),
(363,291,c)
);
}
);
userData = {
com.hugojourdan.ColorFlow = {
"0" = 0;
"1" = 0;
"10" = 0;
"11" = 0;
"2" = 0;
"3" = 0;
"4" = 0;
"5" = 0;
"6" = 0;
"7" = 0;
"8" = 0;
"9" = 0;
};
};
width = 750;
},
{
anchors = (
{
name = bottom;
pos = (400,0);
},
{
name = top;
pos = (400,470);
}
);
layerId = m002;
shapes = (
{
closed = 1;
nodes = (
(49,0,l),
(125,0,l),
(125,355,l),
(120,355,l),
(125,450,l),
(125,470,l),
(49,470,l)
);
},
{
closed = 1;
nodes = (
(125,270,l),
(125,387,o),
(200,410,o),
(244,410,cs),
(288,410,o),
(363,387,o),
(363,270,cs),
(363,0,l),
(438,0,l),
(438,271,l),
(437,419,o),
(332,483,o),
(246,483,cs),
(160,483,o),
(60,418,o),
(60,271,c)
);
},
{
closed = 1;
nodes = (
(438,270,l),
(438,387,o),
(513,410,o),
(557,410,cs),
(601,410,o),
(675,387,o),
(676,270,cs),
(677,185,o),
(677,85,o),
(676,0,c),
(751,0,l),
(752,95,o),
(752,176,o),
(751,271,cs),
(750,428,o),
(635,483,o),
(549,483,cs),
(463,483,o),
(378,428,o),
(378,271,c)
);
}
);
userData = {
com.hugojourdan.ColorFlow = {
"0" = 0;
"1" = 0;
"10" = 0;
"11" = 0;
"2" = 0;
"3" = 0;
"4" = 0;
"5" = 0;
"6" = 0;
"7" = 0;
"8" = 0;
"9" = 0;
};
};
width = 800;
},
{
anchors = (
{
name = bottom;
pos = (435,0);
},
{
name = top;
pos = (435,470);
}
);
layerId = m003;
shapes = (
{
closed = 1;
nodes = (
(44,0,l),
(200,0,l),
(200,415,l),
(165,415,l),
(170,460,l),
(170,470,l),
(44,470,l)
);
},
{
closed = 1;
nodes = (
(200,240,l),
(200,307,o),
(235,340,o),
(279,340,cs),
(323,340,o),
(358,307,o),
(358,240,cs),
(358,0,l),
(513,0,l),
(513,241,l),
(512,409,o),
(377,483,o),
(281,483,cs),
(185,483,o),
(95,398,o),
(95,251,c)
);
},
{
closed = 1;
nodes = (
(513,250,l),
(513,317,o),
(548,340,o),
(592,340,cs),
(636,340,o),
(670,307,o),
(671,240,cs),
(672,155,o),
(672,85,o),
(671,0,c),
(826,0,l),
(827,95,o),
(827,156,o),
(826,251,cs),
(825,428,o),
(680,483,o),
(584,483,cs),
(488,483,o),
(383,408,o),
(383,251,c)
);
}
);
userData = {
com.hugojourdan.ColorFlow = {
"0" = 0;
"1" = 0;
"10" = 0;
"11" = 0;
"2" = 0;
"3" = 0;
"4" = 0;
"5" = 0;
"6" = 0;
"7" = 0;
"8" = 0;
"9" = 0;
};
};
width = 870;
}
);
},
{
color = 7;
glyphname = n.ss02;
kernLeft = sm;
kernRight = sm;
lastChange = "2023-08-12 06:20:42 +0000";
layers = (
{
anchors = (
{
name = bottom;
pos = (250,0);
},
{
name = top;
pos = (250,470);
}
);
layerId = m01;
shapes = (
{
closed = 1;
nodes = (
(54,0,l),
(90,0,l),
(90,355,l),
(80,355,l),
(85,450,l),
(85,470,l),
(54,470,l)
);
},
{
closed = 1;
nodes = (
(90,270,l),
(90,397,o),
(170,450,o),
(254,450,cs),
(338,450,o),
(417,397,o),
(418,270,cs),
(419,185,o),
(419,85,o),
(418,0,c),
(453,0,l),
(454,95,o),
(454,176,o),
(453,271,cs),
(452,398,o),
(377,483,o),
(251,483,cs),
(120,483,o),
(55,398,o),
(55,271,c)
);
}
);
userData = {
com.hugojourdan.ColorFlow = {
"0" = 0;
"1" = 0;
"10" = 0;
"11" = 0;
"2" = 0;
"3" = 0;
"4" = 0;
"5" = 0;
"6" = 0;
"7" = 0;
"8" = 0;
"9" = 0;
};
};
width = 500;
},
{
anchors = (
{
name = bottom;
pos = (270,0);
},
{
name = top;
pos = (270,470);
}
);
layerId = m002;
shapes = (
{
closed = 1;
nodes = (
(54,0,l),
(131,0,l),
(131,355,l),
(124,355,l),
(129,450,l),
(129,470,l),
(54,470,l)
);
},
{
closed = 1;
nodes = (
(131,270,l),
(131,357,o),
(190,410,o),
(271,410,cs),
(355,410,o),
(413,357,o),
(414,270,cs),
(415,185,o),
(415,85,o),
(414,0,c),
(490,0,l),
(491,95,o),
(491,176,o),
(490,271,cs),
(489,398,o),
(404,483,o),
(268,483,cs),
(146,483,o),
(75,378,o),
(75,271,c)
);
}
);
userData = {
com.hugojourdan.ColorFlow = {
"0" = 0;
"1" = 0;
"10" = 0;
"11" = 0;
"2" = 0;
"3" = 0;
"4" = 0;
"5" = 0;
"6" = 0;
"7" = 0;
"8" = 0;
"9" = 0;
};
};
width = 540;
},
{
anchors = (
{
name = bottom;
pos = (310,0);
},
{
name = top;
pos = (310,470);
}
);
layerId = m003;
shapes = (
{
closed = 1;
nodes = (
(54,0,l),
(211,0,l),
(211,355,l),
(196,355,l),
(207,455,l),
(207,470,l),
(54,470,l)
);
},
{
closed = 1;
nodes = (
(211,230,l),
(211,297,o),
(238,340,o),
(302,340,cs),
(366,340,o),
(393,297,o),
(394,230,cs),
(395,145,o),
(395,85,o),
(394,0,c),
(570,0,l),
(571,95,o),
(571,136,o),
(570,231,cs),
(569,408,o),
(454,483,o),
(328,483,cs),
(201,483,o),
(75,358,o),
(105,211,c)
);
}
);
userData = {
com.hugojourdan.ColorFlow = {
"0" = 0;
"1" = 0;
"10" = 0;
"11" = 0;
"2" = 0;
"3" = 0;
"4" = 0;
"5" = 0;
"6" = 0;
"7" = 0;
"8" = 0;
"9" = 0;
};
};
width = 620;
}
);
},
{
color = 7;
glyphname = eng.ss02;
kernLeft = sm;
kernRight = sm;
lastChange = "2023-08-12 06:20:42 +0000";
layers = (
{
anchors = (
{
name = bottom;
pos = (250,0);
},
{
name = top;
pos = (250,470);
}
);
layerId = m01;
shapes = (
{
closed = 1;
nodes = (
(54,0,l),
(90,0,l),
(90,355,l),
(80,355,l),
(85,450,l),
(85,470,l),
(54,470,l)
);
},
{
closed = 1;
nodes = (
(90,270,l),
(90,397,o),
(170,450,o),
(254,450,cs),
(338,450,o),
(417,397,o),
(418,270,cs),
(419,160,o),
(419,50,o),
(418,-60,cs),
(417,-128,o),
(406,-198,o),
(339,-198,cs),
(335,-198,o),
(331,-198,o),
(326,-197,c),
(313,-230,l),
(325,-232,o),
(333,-233,o),
(340,-233,cs),
(419,-233,o),
(452,-167,o),
(453,-81,cs),
(454,36,o),
(454,154,o),
(453,271,cs),
(452,398,o),
(377,483,o),
(251,483,cs),
(120,483,o),
(55,398,o),
(55,271,c)
);
}
);
userData = {
com.hugojourdan.ColorFlow = {
"0" = 0;
"1" = 0;
"10" = 0;
"11" = 0;
"2" = 0;
"3" = 0;
"4" = 0;
"5" = 0;
"6" = 0;
"7" = 0;
"8" = 0;
"9" = 0;
};
};
width = 500;
},
{
anchors = (
{
name = bottom;
pos = (270,0);
},
{
name = top;
pos = (270,470);
}
);
layerId = m002;
shapes = (
{
closed = 1;
nodes = (
(54,0,l),
(131,0,l),
(131,355,l),
(124,355,l),
(129,450,l),
(129,470,l),
(54,470,l)
);
},
{
closed = 1;
nodes = (
(131,270,l),
(131,357,o),
(190,410,o),
(271,410,cs),
(355,410,o),
(413,357,o),
(414,270,cs),
(415,125,o),
(415,75,o),
(414,-60,cs),
(414,-114,o),
(401,-158,o),
(356,-158,cs),
(349,-158,o),
(341,-157,o),
(324,-153,c),
(311,-227,l),
(330,-231,o),
(344,-233,o),
(357,-233,cs),
(445,-233,o),
(489,-180,o),
(490,-101,cs),
(491,44,o),
(491,116,o),
(490,271,cs),
(489,398,o),
(404,483,o),
(268,483,cs),
(146,483,o),
(75,378,o),
(75,271,c)
);
}
);
userData = {
com.hugojourdan.ColorFlow = {
"0" = 0;
"1" = 0;
"10" = 0;
"11" = 0;
"2" = 0;
"3" = 0;
"4" = 0;
"5" = 0;
"6" = 0;
"7" = 0;
"8" = 0;
"9" = 0;
};
};
width = 540;
},
{
anchors = (
{
name = bottom;
pos = (310,0);
},
{
name = top;
pos = (310,470);
}
);
layerId = m003;
shapes = (
{
closed = 1;
nodes = (
(54,0,l),
(211,0,l),
(211,355,l),
(196,355,l),
(207,455,l),
(207,470,l),
(54,470,l)
);
},
{
closed = 1;
nodes = (
(211,230,l),
(211,297,o),
(238,340,o),
(302,340,cs),
(366,340,o),
(393,297,o),
(394,230,cs),
(395,145,o),
(395,85,o),
(394,0,cs),
(394,-55,o),
(379,-83,o),
(354,-83,cs),
(335,-83,o),
(320,-80,o),
(300,-73,c),
(266,-217,l),
(300,-228,o),
(333,-233,o),
(380,-233,cs),
(516,-233,o),
(570,-135,o),
(570,-41,cs),
(571,54,o),
(571,136,o),
(570,231,cs),
(569,408,o),
(454,483,o),
(328,483,cs),
(201,483,o),
(75,358,o),
(105,211,c)
);
}
);
userData = {
com.hugojourdan.ColorFlow = {
"0" = 0;
"1" = 0;
"10" = 0;
"11" = 0;
"2" = 0;
"3" = 0;
"4" = 0;
"5" = 0;
"6" = 0;
"7" = 0;
"8" = 0;
"9" = 0;
};
};
width = 620;
}
);
},
{
color = 7;
glyphname = r.ss02;
kernLeft = sm;
kernRight = sf;
lastChange = "2023-08-12 06:20:42 +0000";
layers = (
{
anchors = (
{
name = bottom;
pos = (74,0);
},
{
name = top;
pos = (145,470);
}
);
layerId = m01;
shapes = (
{
closed = 1;
nodes = (
(54,0,l),
(90,0,l),
(90,355,l),
(80,355,l),
(85,450,l),
(85,470,l),
(54,470,l)
);
},
{
closed = 1;
nodes = (
(258,483,l),
(122,483,o),
(59,378,o),
(59,271,c),
(90,270,l),
(90,397,o),
(167,452,o),
(251,452,c)
);
}
);
userData = {
com.hugojourdan.ColorFlow = {
"0" = 0;
"1" = 0;
"10" = 0;
"11" = 0;
"2" = 0;
"3" = 0;
"4" = 0;
"5" = 0;
"6" = 0;
"7" = 0;
"8" = 0;
"9" = 0;
};
};
width = 290;
},
{
anchors = (
{
name = bottom;
pos = (95,0);
},
{
name = top;
pos = (155,470);
}
);
layerId = m002;
shapes = (
{
closed = 1;
nodes = (
(54,0,l),
(131,0,l),
(131,355,l),
(124,355,l),
(129,450,l),
(129,470,l),
(54,470,l)
);
},
{
closed = 1;
nodes = (
(278,483,l),
(156,483,o),
(75,398,o),
(75,271,c),
(131,260,l),
(131,347,o),
(190,410,o),
(271,410,c)
);
}
);
userData = {
com.hugojourdan.ColorFlow = {
"0" = 0;
"1" = 0;
"10" = 0;
"11" = 0;
"2" = 0;
"3" = 0;
"4" = 0;
"5" = 0;
"6" = 0;
"7" = 0;
"8" = 0;
"9" = 0;
};
};
width = 310;
},
{
anchors = (
{
name = bottom;
pos = (135,0);
},
{
name = top;
pos = (185,470);
}
);
layerId = m003;
shapes = (
{
closed = 1;
nodes = (
(54,0,l),
(211,0,l),
(211,355,l),
(186,355,l),
(207,460,l),
(207,470,l),
(54,470,l)
);
},
{
closed = 1;
nodes = (
(338,483,l),
(211,483,o),
(75,358,o),
(105,211,c),
(211,230,l),
(211,297,o),
(268,340,o),
(332,340,c)
);
}
);
userData = {
com.hugojourdan.ColorFlow = {
"0" = 0;
"1" = 0;
"10" = 0;
"11" = 0;
"2" = 0;
"3" = 0;
"4" = 0;
"5" = 0;
"6" = 0;
"7" = 0;
"8" = 0;
"9" = 0;
};
};
width = 370;
}
);
},
{
color = 7;
glyphname = i.ss04;
kernLeft = si;
kernRight = si;
lastChange = "2023-08-12 05:51:34 +0000";
layers = (
{
anchors = (
{
name = bottom;
pos = (96,0);
}
);
layerId = m01;
shapes = (
{
closed = 1;
nodes = (
(63,575,l),
(118,575,l),
(118,630,l),
(63,630,l)
);
},
{
closed = 1;
nodes = (
(43,470,l),
(37,438,l),
(78,438,l),
(78,0,l),
(114,0,l),
(114,470,l)
);
}
);
userData = {
com.hugojourdan.ColorFlow = {
"0" = 0;
"1" = 0;
"10" = 0;
"11" = 0;
"2" = 0;
"3" = 0;
"4" = 0;
"5" = 0;
"6" = 0;
"7" = 0;
"8" = 0;
"9" = 0;
};
};
width = 180;
},
{
anchors = (
{
name = bottom;
pos = (118,0);
}
);
layerId = m002;
shapes = (
{
closed = 1;
nodes = (
(65,557,l),
(156,557,l),
(156,648,l),
(65,648,l)
);
},
{
closed = 1;
nodes = (
(53,470,l),
(37,398,l),
(82,398,l),
(82,0,l),
(154,0,l),
(154,470,l)
);
}
);
userData = {
com.hugojourdan.ColorFlow = {
"0" = 0;
"1" = 0;
"10" = 0;
"11" = 0;
"2" = 0;
"3" = 0;
"4" = 0;
"5" = 0;
"6" = 0;
"7" = 0;
"8" = 0;
"9" = 0;
};
};
width = 220;
},
{
anchors = (
{
name = bottom;
pos = (178,0);
}
);
layerId = m003;
shapes = (
{
closed = 1;
nodes = (
(85,547,l),
(256,547,l),
(256,708,l),
(85,708,l)
);
},
{
closed = 1;
nodes = (
(64,470,l),
(38,338,l),
(102,338,l),
(102,0,l),
(254,0,l),
(254,470,l)
);
}
);
userData = {
com.hugojourdan.ColorFlow = {
"0" = 0;
"1" = 0;
"10" = 0;
"11" = 0;
"2" = 0;
"3" = 0;
"4" = 0;
"5" = 0;
"6" = 0;
"7" = 0;
"8" = 0;
"9" = 0;
};
};
width = 320;
}
);
},
{
glyphname = idotless.ss04;
kernLeft = si;
kernRight = si;
lastChange = "2023-08-12 05:51:30 +0000";
layers = (
{
anchors = (
{
name = bottom;
pos = (90,0);
},
{
name = ogonek;
pos = (178,10);
},
{
name = top;
pos = (90,480);
}
);
layerId = m01;
shapes = (
{
closed = 1;
nodes = (
(43,470,l),
(37,438,l),
(78,438,l),
(78,0,l),
(114,0,l),
(114,470,l)
);
}
);
userData = {
com.hugojourdan.ColorFlow = {
"0" = 0;
"1" = 0;
"10" = 0;
"11" = 0;
"2" = 0;
"3" = 0;
"4" = 0;
"5" = 0;
"6" = 0;
"7" = 0;
"8" = 0;
"9" = 0;
};
};
width = 180;
},
{
anchors = (
{
name = bottom;
pos = (110,0);
},
{
name = ogonek;
pos = (198,10);
},
{
name = top;
pos = (110,480);
}
);
layerId = m002;
shapes = (
{
closed = 1;
nodes = (
(53,470,l),
(37,398,l),
(82,398,l),
(82,0,l),
(154,0,l),
(154,470,l)
);
}
);
userData = {
com.hugojourdan.ColorFlow = {
"0" = 0;
"1" = 0;
"10" = 0;
"11" = 0;
"2" = 0;
"3" = 0;
"4" = 0;
"5" = 0;
"6" = 0;
"7" = 0;
"8" = 0;
"9" = 0;
};
};
width = 220;
},
{
anchors = (
{
name = bottom;
pos = (160,0);
},
{
name = ogonek;
pos = (198,10);
},
{
name = top;
pos = (160,480);
}
);
layerId = m003;
shapes = (
{
closed = 1;
nodes = (
(64,470,l),
(38,338,l),
(102,338,l),
(102,0,l),
(254,0,l),
(254,470,l)
);
}
);
userData = {
com.hugojourdan.ColorFlow = {
"0" = 0;
"1" = 0;
"10" = 0;
"11" = 0;
"2" = 0;
"3" = 0;
"4" = 0;
"5" = 0;
"6" = 0;
"7" = 0;
"8" = 0;
"9" = 0;
};
};
width = 320;
}
);
},
{
color = 7;
glyphname = j.ss04;
kernLeft = sj;
kernRight = sg;
lastChange = "2023-08-12 05:55:03 +0000";
layers = (
{
layerId = m01;
shapes = (
{
closed = 1;
nodes = (
(98,575,l),
(153,575,l),
(153,630,l),
(98,630,l)
);
},
{
closed = 1;
nodes = (
(78,470,l),
(72,438,l),
(113,438,l),
(114,-60,ls),
(114,-128,o),
(101,-198,o),
(34,-198,cs),
(30,-198,o),
(26,-198,o),
(21,-197,c),
(8,-230,l),
(20,-232,o),
(28,-233,o),
(35,-233,cs),
(114,-233,o),
(148,-167,o),
(148,-81,cs),
(149,470,l)
);
}
);
userData = {
com.hugojourdan.ColorFlow = {
"0" = 0;
"1" = 0;
"10" = 0;
"11" = 0;
"2" = 0;
"3" = 0;
"4" = 0;
"5" = 0;
"6" = 0;
"7" = 0;
"8" = 0;
"9" = 0;
};
};
width = 210;
},
{
layerId = m002;
shapes = (
{
closed = 1;
nodes = (
(85,557,l),
(176,557,l),
(176,648,l),
(85,648,l)
);
},
{
closed = 1;
nodes = (
(73,470,l),
(57,398,l),
(102,398,l),
(103,-60,ls),
(103,-114,o),
(90,-158,o),
(39,-158,cs),
(32,-158,o),
(24,-157,o),
(7,-153,c),
(-6,-227,l),
(13,-231,o),
(27,-233,o),
(40,-233,cs),
(128,-233,o),
(173,-180,o),
(173,-101,cs),
(174,470,l)
);
}
);
userData = {
com.hugojourdan.ColorFlow = {
"0" = 0;
"1" = 0;
"10" = 0;
"11" = 0;
"2" = 0;
"3" = 0;
"4" = 0;
"5" = 0;
"6" = 0;
"7" = 0;
"8" = 0;
"9" = 0;
};
};
width = 240;
},
{
layerId = m003;
shapes = (
{
closed = 1;
nodes = (
(115,547,l),
(286,547,l),
(286,708,l),
(115,708,l)
);
},
{
closed = 1;
nodes = (
(94,470,l),
(68,338,l),
(132,338,l),
(133,0,ls),
(133,-55,o),
(123,-83,o),
(89,-83,cs),
(67,-83,o),
(52,-81,o),
(30,-73,c),
(-4,-217,l),
(30,-228,o),
(63,-233,o),
(110,-233,cs),
(246,-233,o),
(283,-115,o),
(283,-51,cs),
(284,470,l)
);
}
);
userData = {
com.hugojourdan.ColorFlow = {
"0" = 0;
"1" = 0;
"10" = 0;
"11" = 0;
"2" = 0;
"3" = 0;
"4" = 0;
"5" = 0;
"6" = 0;
"7" = 0;
"8" = 0;
"9" = 0;
};
};
width = 350;
}
);
},
{
glyphname = jdotless.ss04;
kernLeft = sj;
kernRight = sg;
lastChange = "2023-08-12 05:55:11 +0000";
layers = (
{
anchors = (
{
name = bottom;
pos = (115,-220);
},
{
name = top;
pos = (115,480);
}
);
layerId = m01;
shapes = (
{
closed = 1;
nodes = (
(78,470,l),
(72,438,l),
(113,438,l),
(114,-60,ls),
(114,-128,o),
(101,-198,o),
(34,-198,cs),
(30,-198,o),
(26,-198,o),
(21,-197,c),
(8,-230,l),
(20,-232,o),
(28,-233,o),
(35,-233,cs),
(114,-233,o),
(148,-167,o),
(148,-81,cs),
(149,470,l)
);
}
);
userData = {
com.hugojourdan.ColorFlow = {
"0" = 0;
"1" = 0;
"10" = 0;
"11" = 0;
"2" = 0;
"3" = 0;
"4" = 0;
"5" = 0;
"6" = 0;
"7" = 0;
"8" = 0;
"9" = 0;
};
};
width = 210;
},
{
anchors = (
{
name = bottom;
pos = (120,-220);
},
{
name = top;
pos = (120,480);
}
);
layerId = m002;
shapes = (
{
closed = 1;
nodes = (
(73,470,l),
(57,398,l),
(102,398,l),
(103,-60,ls),
(103,-114,o),
(90,-158,o),
(39,-158,cs),
(32,-158,o),
(24,-157,o),
(7,-153,c),
(-6,-227,l),
(13,-231,o),
(27,-233,o),
(40,-233,cs),
(128,-233,o),
(173,-180,o),
(173,-101,cs),
(174,470,l)
);
}
);
userData = {
com.hugojourdan.ColorFlow = {
"0" = 0;
"1" = 0;
"10" = 0;
"11" = 0;
"2" = 0;
"3" = 0;
"4" = 0;
"5" = 0;
"6" = 0;
"7" = 0;
"8" = 0;
"9" = 0;
};
};
width = 240;
},
{
anchors = (
{
name = bottom;
pos = (180,-220);
},
{
name = top;
pos = (180,480);
}
);
layerId = m003;
shapes = (
{
closed = 1;
nodes = (
(94,470,l),
(68,338,l),
(132,338,l),
(133,0,ls),
(133,-55,o),
(123,-83,o),
(89,-83,cs),
(67,-83,o),
(52,-81,o),
(30,-73,c),
(-4,-217,l),
(30,-228,o),
(63,-233,o),
(110,-233,cs),
(246,-233,o),
(283,-115,o),
(283,-51,cs),
(284,470,l)
);
}
);
userData = {
com.hugojourdan.ColorFlow = {
"0" = 0;
"1" = 0;
"10" = 0;
"11" = 0;
"2" = 0;
"3" = 0;
"4" = 0;
"5" = 0;
"6" = 0;
"7" = 0;
"8" = 0;
"9" = 0;
};
};
width = 350;
}
);
},
{
color = 6;
glyphname = f_b;
kernLeft = sf;
kernRight = so;
lastChange = "2023-08-12 06:21:10 +0000";
layers = (
{
layerId = m01;
shapes = (
{
closed = 1;
nodes = (
(164,747,o),
(123,683,o),
(123,615,cs),
(123,590,o),
(122,494,o),
(121,470,c),
(34,470,l),
(28,438,l),
(121,438,l),
(121,0,l),
(158,0,l),
(158,438,l),
(159,470,l),
(159,505,o),
(159,569,o),
(159,604,cs),
(159,677,o),
(195,712,o),
(253,712,cs),
(287,712,o),
(308,705,o),
(324,694,c),
(354,723,l),
(331,735,o),
(289,747,o),
(252,747,cs)
);
},
{
closed = 1;
nodes = (
(669,446,o),
(752,362,o),
(752,235,cs),
(752,108,o),
(669,23,o),
(552,23,cs),
(440,23,o),
(346,112,o),
(346,235,cs),
(346,356,o),
(440,446,o),
(552,446,cs)
);
},
{
closed = 1;
nodes = (
(696,-13,o),
(788,97,o),
(788,235,cs),
(788,388,o),
(678,482,o),
(550,482,cs),
(439,482,o),
(375,421,o),
(352,356,c),
(354,458,l),
(354,723,l),
(316,723,l),
(316,0,l),
(354,0,l),
(354,8,l),
(352,110,l),
(374,53,o),
(441,-13,o),
(550,-13,cs)
);
}
);
userData = {
com.hugojourdan.ColorFlow = {
"0" = 0;
"1" = 0;
"10" = 0;
"11" = 0;
"2" = 0;
"3" = 0;
"4" = 0;
"5" = 0;
"6" = 0;
"7" = 0;
"8" = 0;
"9" = 0;
};
};
width = 830;
},
{
layerId = m002;
shapes = (
{
closed = 1;
nodes = (
(168,747,o),
(105,710,o),
(105,615,cs),
(104,562,o),
(104,515,o),
(103,470,c),
(34,470,l),
(18,398,l),
(103,398,l),
(103,0,l),
(178,0,l),
(178,398,l),
(179,470,l),
(179,505,o),
(179,539,o),
(179,574,cs),
(179,626,o),
(191,670,o),
(243,670,cs),
(280,670,o),
(317,659,o),
(333,649,c),
(390,703,l),
(362,727,o),
(295,747,o),
(242,747,cs)
);
},
{
closed = 1;
nodes = (
(647,404,o),
(710,329,o),
(710,234,cs),
(710,140,o),
(647,65,o),
(552,65,cs),
(454,65,o),
(388,143,o),
(388,234,cs),
(388,326,o),
(454,404,o),
(552,404,cs)
);
},
{
closed = 1;
nodes = (
(692,-13,o),
(788,87,o),
(788,234,cs),
(788,366,o),
(691,482,o),
(550,482,cs),
(485,482,o),
(408,454,o),
(388,409,c),
(390,461,l),
(390,703,l),
(316,703,l),
(316,0,l),
(394,0,l),
(394,11,l),
(392,63,l),
(412,22,o),
(479,-13,o),
(550,-13,cs)
);
}
);
userData = {
com.hugojourdan.ColorFlow = {
"0" = 0;
"1" = 0;
"10" = 0;
"11" = 0;
"2" = 0;
"3" = 0;
"4" = 0;
"5" = 0;
"6" = 0;
"7" = 0;
"8" = 0;
"9" = 0;
};
};
width = 830;
},
{
layerId = m003;
shapes = (
{
closed = 1;
nodes = (
(210,747,o),
(104,695,o),
(104,575,cs),
(104,549,o),
(103,493,o),
(102,470,c),
(44,470,l),
(18,338,l),
(102,338,l),
(102,0,l),
(257,0,l),
(257,338,l),
(258,470,l),
(258,495,o),
(258,519,o),
(258,544,cs),
(258,587,o),
(289,610,o),
(332,610,cs),
(386,610,o),
(430,596,o),
(455,577,c),
(580,703,l),
(520,729,o),
(418,747,o),
(321,747,cs)
);
},
{
closed = 1;
nodes = (
(739,344,o),
(780,303,o),
(780,234,cs),
(780,166,o),
(739,125,o),
(682,125,cs),
(622,125,o),
(578,169,o),
(578,234,cs),
(578,300,o),
(622,344,o),
(682,344,cs)
);
},
{
closed = 1;
nodes = (
(852,-13,o),
(938,83,o),
(938,234,cs),
(938,368,o),
(855,482,o),
(690,482,cs),
(657,482,o),
(599,472,o),
(578,453,c),
(580,478,l),
(580,703,l),
(426,703,l),
(426,0,l),
(584,0,l),
(584,6,l),
(583,21,l),
(610,-4,o),
(668,-13,o),
(690,-13,cs)
);
}
);
userData = {
com.hugojourdan.ColorFlow = {
"0" = 0;
"1" = 0;
"10" = 0;
"11" = 0;
"2" = 0;
"3" = 0;
"4" = 0;
"5" = 0;
"6" = 0;
"7" = 0;
"8" = 0;
"9" = 0;
};
};
width = 980;
}
);
metricLeft = f;
metricRight = b;
},
{
color = 6;
glyphname = f_f;
kernLeft = sf;
kernRight = sf;
lastChange = "2023-08-12 06:21:10 +0000";
layers = (
{
layerId = m01;
shapes = (
{
closed = 1;
nodes = (
(164,749,o),
(123,683,o),
(123,615,cs),
(123,590,o),
(122,494,o),
(121,470,c),
(34,470,l),
(28,438,l),
(121,438,l),
(121,0,l),
(158,0,l),
(158,438,l),
(262,438,l),
(262,470,l),
(159,470,l),
(159,505,o),
(159,569,o),
(159,604,cs),
(159,677,o),
(195,717,o),
(253,712,cs),
(257,712,o),
(263,711,o),
(269,710,c),
(279,744,l),
(266,746,o),
(259,747,o),
(252,747,cs)
);
},
{
closed = 1;
nodes = (
(354,749,o),
(313,683,o),
(313,615,cs),
(313,590,o),
(312,494,o),
(311,470,c),
(224,470,l),
(218,438,l),
(311,438,l),
(311,0,l),
(348,0,l),
(348,438,l),
(452,438,l),
(452,470,l),
(349,470,l),
(349,505,o),
(349,569,o),
(349,604,cs),
(349,677,o),
(385,717,o),
(443,712,cs),
(447,712,o),
(453,711,o),
(459,710,c),
(469,744,l),
(456,746,o),
(449,747,o),
(442,747,cs)
);
}
);
userData = {
com.hugojourdan.ColorFlow = {
"0" = 0;
"1" = 0;
"10" = 0;
"11" = 0;
"2" = 0;
"3" = 0;
"4" = 0;
"5" = 0;
"6" = 0;
"7" = 0;
"8" = 0;
"9" = 0;
};
};
width = 490;
},
{
layerId = m002;
shapes = (
{
closed = 1;
nodes = (
(158,749,o),
(105,710,o),
(105,615,cs),
(104,562,o),
(104,515,o),
(103,470,c),
(34,470,l),
(18,398,l),
(103,398,l),
(103,0,l),
(178,0,l),
(178,398,l),
(262,398,l),
(262,470,l),
(179,470,l),
(179,505,o),
(179,539,o),
(179,574,cs),
(179,626,o),
(181,670,o),
(233,670,cs),
(240,670,o),
(248,669,o),
(264,666,c),
(278,741,l),
(258,745,o),
(245,747,o),
(232,747,cs)
);
},
{
closed = 1;
nodes = (
(388,749,o),
(335,710,o),
(335,615,cs),
(334,562,o),
(334,515,o),
(333,470,c),
(254,470,l),
(238,398,l),
(333,398,l),
(333,0,l),
(408,0,l),
(408,398,l),
(492,398,l),
(492,470,l),
(409,470,l),
(409,505,o),
(409,539,o),
(409,574,cs),
(409,626,o),
(411,670,o),
(463,670,cs),
(470,670,o),
(478,669,o),
(494,666,c),
(508,741,l),
(488,745,o),
(475,747,o),
(462,747,cs)
);
}
);
userData = {
com.hugojourdan.ColorFlow = {
"0" = 0;
"1" = 0;
"10" = 0;
"11" = 0;
"2" = 0;
"3" = 0;
"4" = 0;
"5" = 0;
"6" = 0;
"7" = 0;
"8" = 0;
"9" = 0;
};
};
width = 530;
},
{
layerId = m003;
shapes = (
{
closed = 1;
nodes = (
(180,747,o),
(104,695,o),
(104,575,cs),
(104,549,o),
(103,493,o),
(102,470,c),
(44,470,l),
(18,338,l),
(102,338,l),
(102,0,l),
(257,0,l),
(257,338,l),
(361,338,l),
(361,470,l),
(258,470,l),
(258,495,o),
(258,519,o),
(258,544,cs),
(258,587,o),
(269,610,o),
(302,610,cs),
(326,610,o),
(337,609,o),
(352,603,c),
(398,732,l),
(358,743,o),
(318,747,o),
(281,747,cs)
);
},
{
closed = 1;
nodes = (
(490,747,o),
(414,695,o),
(414,575,cs),
(414,549,o),
(413,493,o),
(412,470,c),
(344,470,l),
(318,338,l),
(412,338,l),
(412,0,l),
(567,0,l),
(567,338,l),
(671,338,l),
(671,470,l),
(568,470,l),
(568,495,o),
(568,519,o),
(568,544,cs),
(568,587,o),
(579,610,o),
(612,610,cs),
(636,610,o),
(647,609,o),
(662,603,c),
(698,732,l),
(658,743,o),
(628,747,o),
(591,747,cs)
);
}
);
userData = {
com.hugojourdan.ColorFlow = {
"0" = 0;
"1" = 0;
"10" = 0;
"11" = 0;
"2" = 0;
"3" = 0;
"4" = 0;
"5" = 0;
"6" = 0;
"7" = 0;
"8" = 0;
"9" = 0;
};
};
width = 720;
}
);
metricLeft = f;
metricRight = f;
},
{
color = 6;
glyphname = f_f_i;
kernLeft = sf;
kernRight = si;
lastChange = "2023-08-12 06:21:10 +0000";
layers = (
{
layerId = m01;
shapes = (
{
closed = 1;
nodes = (
(164,749,o),
(123,683,o),
(123,615,cs),
(123,590,o),
(122,494,o),
(121,470,c),
(34,470,l),
(28,438,l),
(121,438,l),
(121,0,l),
(158,0,l),
(158,438,l),
(262,438,l),
(262,470,l),
(159,470,l),
(159,505,o),
(159,569,o),
(159,604,cs),
(159,677,o),
(195,717,o),
(253,712,cs),
(257,712,o),
(263,711,o),
(269,710,c),
(279,744,l),
(266,746,o),
(259,747,o),
(252,747,cs)
);
},
{
closed = 1;
nodes = (
(354,749,o),
(313,683,o),
(313,615,cs),
(313,590,o),
(312,494,o),
(311,470,c),
(224,470,l),
(218,438,l),
(311,438,l),
(311,0,l),
(348,0,l),
(348,438,l),
(506,438,l),
(506,470,l),
(349,470,l),
(349,505,o),
(349,569,o),
(349,604,cs),
(349,677,o),
(385,717,o),
(443,712,cs),
(447,712,o),
(453,711,o),
(459,710,c),
(469,744,l),
(456,746,o),
(449,747,o),
(442,747,cs)
);
},
{
closed = 1;
nodes = (
(473,470,l),
(467,438,l),
(512,438,l),
(512,0,l),
(548,0,l),
(548,470,l)
);
}
);
userData = {
com.hugojourdan.ColorFlow = {
"0" = 0;
"1" = 0;
"10" = 0;
"11" = 0;
"2" = 0;
"3" = 0;
"4" = 0;
"5" = 0;
"6" = 0;
"7" = 0;
"8" = 0;
"9" = 0;
};
};
width = 610;
},
{
layerId = m002;
shapes = (
{
closed = 1;
nodes = (
(158,749,o),
(105,710,o),
(105,615,cs),
(104,562,o),
(104,515,o),
(103,470,c),
(34,470,l),
(18,398,l),
(103,398,l),
(103,0,l),
(178,0,l),
(178,398,l),
(262,398,l),
(262,470,l),
(179,470,l),
(179,505,o),
(179,539,o),
(179,574,cs),
(179,626,o),
(181,670,o),
(233,670,cs),
(240,670,o),
(248,669,o),
(264,666,c),
(278,741,l),
(258,745,o),
(245,747,o),
(232,747,cs)
);
},
{
closed = 1;
nodes = (
(388,749,o),
(335,710,o),
(335,615,cs),
(334,562,o),
(334,515,o),
(333,470,c),
(264,470,l),
(248,398,l),
(333,398,l),
(333,0,l),
(408,0,l),
(408,398,l),
(552,398,l),
(552,470,l),
(409,470,l),
(409,505,o),
(409,539,o),
(409,574,cs),
(409,626,o),
(411,670,o),
(463,670,cs),
(470,670,o),
(478,669,o),
(494,666,c),
(508,741,l),
(488,745,o),
(475,747,o),
(462,747,cs)
);
},
{
closed = 1;
nodes = (
(535,470,l),
(519,398,l),
(564,398,l),
(564,0,l),
(636,0,l),
(636,470,l)
);
}
);
userData = {
com.hugojourdan.ColorFlow = {
"0" = 0;
"1" = 0;
"10" = 0;
"11" = 0;
"2" = 0;
"3" = 0;
"4" = 0;
"5" = 0;
"6" = 0;
"7" = 0;
"8" = 0;
"9" = 0;
};
};
width = 700;
},
{
layerId = m003;
shapes = (
{
closed = 1;
nodes = (
(180,747,o),
(104,695,o),
(104,575,cs),
(104,549,o),
(103,493,o),
(102,470,c),
(44,470,l),
(18,338,l),
(102,338,l),
(102,0,l),
(257,0,l),
(257,338,l),
(361,338,l),
(361,470,l),
(258,470,l),
(258,495,o),
(258,519,o),
(258,544,cs),
(258,587,o),
(269,610,o),
(302,610,cs),
(326,610,o),
(337,609,o),
(352,603,c),
(388,732,l),
(348,743,o),
(318,747,o),
(281,747,cs)
);
},
{
closed = 1;
nodes = (
(490,747,o),
(414,695,o),
(414,575,cs),
(414,549,o),
(413,493,o),
(412,470,c),
(354,470,l),
(328,338,l),
(412,338,l),
(412,0,l),
(567,0,l),
(567,338,l),
(721,338,l),
(721,470,l),
(568,470,l),
(568,495,o),
(568,519,o),
(568,544,cs),
(568,587,o),
(579,610,o),
(612,610,cs),
(636,610,o),
(647,609,o),
(662,603,c),
(698,732,l),
(658,743,o),
(628,747,o),
(591,747,cs)
);
},
{
closed = 1;
nodes = (
(696,470,l),
(670,338,l),
(734,338,l),
(734,0,l),
(886,0,l),
(886,470,l)
);
}
);
userData = {
com.hugojourdan.ColorFlow = {
"0" = 0;
"1" = 0;
"10" = 0;
"11" = 0;
"2" = 0;
"3" = 0;
"4" = 0;
"5" = 0;
"6" = 0;
"7" = 0;
"8" = 0;
"9" = 0;
};
};
width = 950;
}
);
metricLeft = f;
metricRight = i;
},
{
color = 6;
glyphname = f_f_l;
kernLeft = sf;
kernRight = sl;
lastChange = "2023-08-12 06:21:10 +0000";
layers = (
{
anchors = (
{
name = bottom;
pos = (750,0);
},
{
name = center;
pos = (720,440);
},
{
name = top;
pos = (700,733);
},
{
name = topright;
pos = (770,880);
}
);
layerId = m01;
shapes = (
{
closed = 1;
nodes = (
(164,749,o),
(123,683,o),
(123,615,cs),
(123,590,o),
(122,494,o),
(121,470,c),
(34,470,l),
(28,438,l),
(121,438,l),
(121,0,l),
(158,0,l),
(158,438,l),
(262,438,l),
(262,470,l),
(159,470,l),
(159,505,o),
(159,569,o),
(159,604,cs),
(159,677,o),
(195,717,o),
(253,712,cs),
(257,712,o),
(263,711,o),
(269,710,c),
(279,744,l),
(266,746,o),
(259,747,o),
(252,747,cs)
);
},
{
closed = 1;
nodes = (
(354,747,o),
(313,683,o),
(313,615,cs),
(313,590,o),
(312,494,o),
(311,470,c),
(224,470,l),
(218,438,l),
(311,438,l),
(311,0,l),
(348,0,l),
(348,438,l),
(349,470,l),
(349,505,o),
(349,569,o),
(349,604,cs),
(349,677,o),
(385,712,o),
(443,712,cs),
(467,712,o),
(501,706,o),
(518,696,c),
(538,728,l),
(518,737,o),
(479,747,o),
(442,747,cs)
);
},
{
closed = 1;
nodes = (
(619,-14,o),
(626,-13,o),
(639,-11,c),
(630,24,l),
(626,23,o),
(617,23,o),
(613,23,cs),
(541,23,o),
(538,87,o),
(538,159,cs),
(537,390,o),
(537,537,o),
(538,728,c),
(503,728,l),
(502,598,o),
(503,245,o),
(503,148,cs),
(503,58,o),
(522,-14,o),
(612,-14,cs)
);
}
);
userData = {
com.hugojourdan.ColorFlow = {
"0" = 0;
"1" = 0;
"10" = 0;
"11" = 0;
"2" = 0;
"3" = 0;
"4" = 0;
"5" = 0;
"6" = 0;
"7" = 0;
"8" = 0;
"9" = 0;
};
};
width = 670;
},
{
anchors = (
{
name = bottom;
pos = (750,0);
},
{
name = center;
pos = (720,440);
},
{
name = top;
pos = (700,733);
},
{
name = topright;
pos = (770,880);
}
);
layerId = m002;
shapes = (
{
closed = 1;
nodes = (
(158,749,o),
(105,710,o),
(105,615,cs),
(104,562,o),
(104,515,o),
(103,470,c),
(34,470,l),
(18,398,l),
(103,398,l),
(103,0,l),
(178,0,l),
(178,398,l),
(262,398,l),
(262,470,l),
(179,470,l),
(179,505,o),
(179,539,o),
(179,574,cs),
(179,626,o),
(181,670,o),
(233,670,cs),
(240,670,o),
(248,669,o),
(264,666,c),
(278,741,l),
(258,745,o),
(245,747,o),
(232,747,cs)
);
},
{
closed = 1;
nodes = (
(398,747,o),
(335,710,o),
(335,615,cs),
(335,562,o),
(334,515,o),
(333,470,c),
(244,470,l),
(248,398,l),
(333,398,l),
(333,0,l),
(408,0,l),
(408,398,l),
(409,470,l),
(409,505,o),
(409,539,o),
(409,574,cs),
(409,646,o),
(421,670,o),
(473,670,cs),
(510,670,o),
(551,660,o),
(572,649,c),
(619,703,l),
(580,730,o),
(535,747,o),
(472,747,cs)
);
},
{
closed = 1;
nodes = (
(685,-14,o),
(698,-12,o),
(718,-8,c),
(704,67,l),
(688,64,o),
(680,63,o),
(673,63,cs),
(624,63,o),
(619,111,o),
(619,159,cs),
(618,390,o),
(618,512,o),
(619,703,c),
(545,703,l),
(544,498,o),
(545,403,o),
(545,138,cs),
(545,44,o),
(580,-14,o),
(672,-14,cs)
);
}
);
userData = {
com.hugojourdan.ColorFlow = {
"0" = 0;
"1" = 0;
"10" = 0;
"11" = 0;
"2" = 0;
"3" = 0;
"4" = 0;
"5" = 0;
"6" = 0;
"7" = 0;
"8" = 0;
"9" = 0;
};
};
width = 730;
},
{
anchors = (
{
name = bottom;
pos = (1015,0);
},
{
name = center;
pos = (985,440);
},
{
name = top;
pos = (963,733);
},
{
name = topright;
pos = (1080,880);
}
);
layerId = m003;
shapes = (
{
closed = 1;
nodes = (
(180,747,o),
(104,695,o),
(104,575,cs),
(104,549,o),
(103,493,o),
(102,470,c),
(44,470,l),
(18,338,l),
(102,338,l),
(102,0,l),
(257,0,l),
(257,338,l),
(361,338,l),
(361,470,l),
(258,470,l),
(258,495,o),
(258,519,o),
(258,544,cs),
(258,587,o),
(269,610,o),
(302,610,cs),
(326,610,o),
(337,609,o),
(352,603,c),
(388,732,l),
(348,743,o),
(318,747,o),
(281,747,cs)
);
},
{
closed = 1;
nodes = (
(510,747,o),
(414,695,o),
(414,575,cs),
(414,549,o),
(413,493,o),
(412,470,c),
(354,470,l),
(328,338,l),
(412,338,l),
(412,0,l),
(567,0,l),
(567,338,l),
(568,470,l),
(568,495,o),
(568,519,o),
(568,544,cs),
(568,587,o),
(579,610,o),
(642,610,cs),
(686,610,o),
(762,599,o),
(809,580,c),
(880,703,l),
(832,733,o),
(738,747,o),
(641,747,cs)
);
},
{
closed = 1;
nodes = (
(926,-14,o),
(966,-10,o),
(988,1,c),
(964,131,l),
(951,126,o),
(938,125,o),
(924,125,cs),
(897,125,o),
(881,147,o),
(880,189,c),
(880,315,o),
(880,577,o),
(880,703,c),
(725,703,l),
(725,580,o),
(725,331,o),
(726,168,cs),
(727,76,o),
(780,-14,o),
(890,-14,cs)
);
}
);
userData = {
com.hugojourdan.ColorFlow = {
"0" = 0;
"1" = 0;
"10" = 0;
"11" = 0;
"2" = 0;
"3" = 0;
"4" = 0;
"5" = 0;
"6" = 0;
"7" = 0;
"8" = 0;
"9" = 0;
};
};
width = 1000;
}
);
metricLeft = f;
metricRight = l;
},
{
color = 6;
glyphname = f_h;
kernLeft = sf;
kernRight = sn;
lastChange = "2023-08-12 06:21:10 +0000";
layers = (
{
layerId = m01;
shapes = (
{
closed = 1;
nodes = (
(164,747,o),
(123,683,o),
(123,615,cs),
(123,590,o),
(122,494,o),
(121,470,c),
(34,470,l),
(28,438,l),
(121,438,l),
(121,0,l),
(158,0,l),
(158,438,l),
(159,470,l),
(159,505,o),
(159,569,o),
(159,604,cs),
(159,677,o),
(195,712,o),
(253,712,cs),
(277,712,o),
(311,706,o),
(329,696,c),
(351,722,l),
(325,738,o),
(289,747,o),
(252,747,cs)
);
},
{
closed = 1;
nodes = (
(351,380,l),
(394,426,o),
(447,445,o),
(500,445,cs),
(603,445,o),
(664,373,o),
(665,260,cs),
(666,175,o),
(666,85,o),
(665,0,c),
(701,0,l),
(702,95,o),
(702,176,o),
(701,271,cs),
(700,402,o),
(616,483,o),
(500,483,cs),
(442,483,o),
(383,461,o),
(351,427,c),
(351,722,l),
(317,722,l),
(317,0,l),
(351,0,l)
);
}
);
userData = {
com.hugojourdan.ColorFlow = {
"0" = 0;
"1" = 0;
"10" = 0;
"11" = 0;
"2" = 0;
"3" = 0;
"4" = 0;
"5" = 0;
"6" = 0;
"7" = 0;
"8" = 0;
"9" = 0;
};
};
width = 760;
},
{
layerId = m002;
shapes = (
{
closed = 1;
nodes = (
(168,747,o),
(105,710,o),
(105,615,cs),
(104,562,o),
(104,515,o),
(103,470,c),
(34,470,l),
(18,398,l),
(103,398,l),
(103,0,l),
(178,0,l),
(178,398,l),
(179,470,l),
(179,505,o),
(179,539,o),
(179,574,cs),
(179,626,o),
(191,670,o),
(243,670,cs),
(280,670,o),
(310,662,o),
(326,643,c),
(391,703,l),
(361,727,o),
(305,747,o),
(242,747,cs)
);
},
{
closed = 1;
nodes = (
(391,380,l),
(409,393,o),
(451,402,o),
(500,402,cs),
(601,402,o),
(654,365,o),
(655,250,cs),
(656,165,o),
(656,85,o),
(655,0,c),
(731,0,l),
(732,95,o),
(732,176,o),
(731,271,cs),
(730,392,o),
(659,483,o),
(487,483,cs),
(445,483,o),
(419,475,o),
(391,461,c),
(391,703,l),
(315,683,l),
(315,0,l),
(391,0,l)
);
}
);
userData = {
com.hugojourdan.ColorFlow = {
"0" = 0;
"1" = 0;
"10" = 0;
"11" = 0;
"2" = 0;
"3" = 0;
"4" = 0;
"5" = 0;
"6" = 0;
"7" = 0;
"8" = 0;
"9" = 0;
};
};
width = 790;
},
{
layerId = m003;
shapes = (
{
closed = 1;
nodes = (
(200,747,o),
(104,695,o),
(104,575,cs),
(104,549,o),
(103,493,o),
(102,470,c),
(44,470,l),
(18,338,l),
(102,338,l),
(102,0,l),
(257,0,l),
(257,338,l),
(258,470,l),
(258,495,o),
(258,519,o),
(258,544,cs),
(258,587,o),
(299,610,o),
(342,610,cs),
(386,610,o),
(420,603,o),
(448,583,c),
(581,703,l),
(517,733,o),
(428,747,o),
(331,747,cs)
);
},
{
closed = 1;
nodes = (
(581,330,l),
(596,338,o),
(629,342,o),
(660,342,cs),
(732,342,o),
(764,320,o),
(765,250,cs),
(766,165,o),
(766,85,o),
(765,0,c),
(921,0,l),
(922,95,o),
(922,176,o),
(921,271,cs),
(920,384,o),
(859,483,o),
(647,483,cs),
(626,483,o),
(595,480,o),
(581,476,c),
(581,703,l),
(425,633,l),
(425,0,l),
(581,0,l)
);
}
);
userData = {
com.hugojourdan.ColorFlow = {
"0" = 0;
"1" = 0;
"10" = 0;
"11" = 0;
"2" = 0;
"3" = 0;
"4" = 0;
"5" = 0;
"6" = 0;
"7" = 0;
"8" = 0;
"9" = 0;
};
};
width = 980;
}
);
metricLeft = f;
metricRight = h;
},
{
color = 6;
glyphname = f_t;
kernLeft = sf;
kernRight = st;
lastChange = "2023-08-12 06:21:10 +0000";
layers = (
{
anchors = (
{
name = bottom;
pos = (530,0);
},
{
name = center;
pos = (450,235);
},
{
name = top;
pos = (450,470);
},
{
name = topright;
pos = (520,880);
}
);
layerId = m01;
shapes = (
{
closed = 1;
nodes = (
(164,749,o),
(123,683,o),
(123,615,cs),
(123,590,o),
(122,494,o),
(121,470,c),
(34,470,l),
(28,438,l),
(121,438,l),
(121,0,l),
(158,0,l),
(158,438,l),
(262,438,l),
(262,470,l),
(159,470,l),
(159,505,o),
(159,569,o),
(159,604,cs),
(159,677,o),
(195,717,o),
(253,712,cs),
(257,712,o),
(263,711,o),
(269,710,c),
(279,744,l),
(266,746,o),
(259,747,o),
(252,747,cs)
);
},
{
closed = 1;
nodes = (
(457,-13,o),
(468,-11,o),
(483,-5,c),
(470,25,l),
(455,21,o),
(446,20,o),
(435,21,cs),
(369,27,o),
(359,83,o),
(359,149,cs),
(358,229,o),
(358,358,o),
(359,438,c),
(446,438,l),
(446,470,l),
(359,470,l),
(359,568,l),
(323,568,l),
(323,470,l),
(248,470,l),
(242,438,l),
(324,438,l),
(323,345,o),
(324,271,o),
(324,138,cs),
(324,37,o),
(358,-13,o),
(441,-13,cs)
);
}
);
userData = {
com.hugojourdan.ColorFlow = {
"0" = 0;
"1" = 0;
"10" = 0;
"11" = 0;
"2" = 0;
"3" = 0;
"4" = 0;
"5" = 0;
"6" = 0;
"7" = 0;
"8" = 0;
"9" = 0;
};
};
width = 520;
},
{
anchors = (
{
name = bottom;
pos = (520,0);
},
{
name = center;
pos = (450,235);
},
{
name = top;
pos = (450,470);
},
{
name = topright;
pos = (520,880);
}
);
layerId = m002;
shapes = (
{
closed = 1;
nodes = (
(158,749,o),
(105,710,o),
(105,615,cs),
(104,562,o),
(104,515,o),
(103,470,c),
(34,470,l),
(18,398,l),
(103,398,l),
(103,0,l),
(178,0,l),
(178,398,l),
(262,398,l),
(262,470,l),
(179,470,l),
(179,505,o),
(179,539,o),
(179,574,cs),
(179,626,o),
(181,670,o),
(233,670,cs),
(240,670,o),
(248,669,o),
(264,666,c),
(278,741,l),
(258,745,o),
(245,747,o),
(232,747,cs)
);
},
{
closed = 1;
nodes = (
(484,-14,o),
(502,-13,o),
(520,-7,c),
(507,71,l),
(490,66,o),
(482,66,o),
(475,66,cs),
(429,66,o),
(421,111,o),
(421,159,cs),
(420,239,o),
(420,318,o),
(421,398,c),
(506,398,l),
(506,470,l),
(421,470,l),
(421,568,l),
(344,568,l),
(344,470,l),
(248,470,l),
(252,398,l),
(345,398,l),
(344,305,o),
(344,251,o),
(345,118,cs),
(345,31,o),
(408,-14,o),
(471,-14,cs)
);
}
);
userData = {
com.hugojourdan.ColorFlow = {
"0" = 0;
"1" = 0;
"10" = 0;
"11" = 0;
"2" = 0;
"3" = 0;
"4" = 0;
"5" = 0;
"6" = 0;
"7" = 0;
"8" = 0;
"9" = 0;
};
};
width = 560;
},
{
anchors = (
{
name = bottom;
pos = (680,0);
},
{
name = center;
pos = (610,235);
},
{
name = top;
pos = (610,470);
},
{
name = topright;
pos = (760,880);
}
);
layerId = m003;
shapes = (
{
closed = 1;
nodes = (
(180,747,o),
(104,695,o),
(104,575,cs),
(104,549,o),
(103,493,o),
(102,470,c),
(44,470,l),
(18,338,l),
(102,338,l),
(102,0,l),
(257,0,l),
(257,338,l),
(361,338,l),
(361,470,l),
(258,470,l),
(258,495,o),
(258,519,o),
(258,544,cs),
(258,587,o),
(269,610,o),
(302,610,cs),
(326,610,o),
(337,609,o),
(352,603,c),
(388,732,l),
(348,743,o),
(318,747,o),
(281,747,cs)
);
},
{
closed = 1;
nodes = (
(626,-14,o),
(668,-10,o),
(690,1,c),
(666,131,l),
(653,126,o),
(638,125,o),
(624,125,cs),
(597,125,o),
(581,147,o),
(580,189,cs),
(579,229,o),
(579,258,o),
(580,338,c),
(675,338,l),
(675,470,l),
(580,470,l),
(580,568,l),
(423,568,l),
(423,470,l),
(334,470,l),
(332,338,l),
(424,338,l),
(423,255,o),
(423,221,o),
(424,158,cs),
(425,66,o),
(480,-14,o),
(590,-14,cs)
);
}
);
userData = {
com.hugojourdan.ColorFlow = {
"0" = 0;
"1" = 0;
"10" = 0;
"11" = 0;
"2" = 0;
"3" = 0;
"4" = 0;
"5" = 0;
"6" = 0;
"7" = 0;
"8" = 0;
"9" = 0;
};
};
width = 730;
}
);
metricLeft = f;
metricRight = t;
},
